<mxfile host="app.diagrams.net" modified="2023-05-22T15:50:03.043Z" agent="Mozilla/5.0 (X11; Linux x86_64; rv:109.0) Gecko/20100101 Firefox/113.0" etag="jER3WkwpILyyjmxtmzBX" version="21.3.2" type="device" pages="7">
  <diagram id="i-zVF6f099AAMXjwXL_y" name="full">
    <mxGraphModel dx="5360" dy="3775" grid="1" gridSize="10" guides="1" tooltips="1" connect="1" arrows="1" fold="1" page="0" pageScale="1" pageWidth="827" pageHeight="1169" background="none" math="0" shadow="0">
      <root>
        <mxCell id="0" />
        <mxCell id="1" parent="0" />
        <mxCell id="CcIX3b4XJO-R3UWU8Bb1-1" value="&lt;div&gt;&lt;u&gt;PrivacyPolicy&lt;/u&gt;&lt;/div&gt;&lt;div align=&quot;left&quot;&gt;int: policyId&lt;/div&gt;&lt;div align=&quot;left&quot;&gt;str: policyWebsite&lt;/div&gt;&lt;div align=&quot;left&quot;&gt;date: policyUpdate&lt;br&gt;&lt;/div&gt;" style="rounded=1;whiteSpace=wrap;html=1;fontSize=15;fontStyle=3;fillColor=#d80073;fontColor=#ffffff;strokeColor=#A50040;shadow=0;fontFamily=Helvetica;" parent="1" vertex="1">
          <mxGeometry x="-460" y="-292.75" width="147.5" height="92" as="geometry" />
        </mxCell>
        <mxCell id="CcIX3b4XJO-R3UWU8Bb1-2" value="Mechanism" style="rounded=1;whiteSpace=wrap;html=1;fillColor=#fff2cc;strokeColor=#d6b656;fontSize=15;fontStyle=3;shadow=0;strokeWidth=5;fontFamily=Helvetica;" parent="1" vertex="1">
          <mxGeometry x="999.4000000000001" y="-161.5" width="100" height="40" as="geometry" />
        </mxCell>
        <mxCell id="CcIX3b4XJO-R3UWU8Bb1-4" value="Agent" style="rounded=1;whiteSpace=wrap;html=1;fillColor=#dae8fc;strokeColor=#FF0080;fontSize=15;fontStyle=3;shadow=0;strokeWidth=5;fontFamily=Helvetica;" parent="1" vertex="1">
          <mxGeometry x="-560" y="190" width="66" height="40" as="geometry" />
        </mxCell>
        <mxCell id="CcIX3b4XJO-R3UWU8Bb1-5" value="PolicyChange" style="rounded=1;whiteSpace=wrap;html=1;fillColor=#e1d5e7;strokeColor=#9673a6;fontSize=15;fontStyle=2;shadow=0;fontFamily=Helvetica;" parent="1" vertex="1">
          <mxGeometry x="508.45" y="332" width="110.19" height="40" as="geometry" />
        </mxCell>
        <mxCell id="CcIX3b4XJO-R3UWU8Bb1-12" value="DataControl" style="rounded=1;whiteSpace=wrap;html=1;fillColor=#e1d5e7;strokeColor=#9673a6;fontSize=15;fontStyle=2;shadow=0;fontFamily=Helvetica;" parent="1" vertex="1">
          <mxGeometry x="711.27" y="156" width="92.37" height="40" as="geometry" />
        </mxCell>
        <mxCell id="CcIX3b4XJO-R3UWU8Bb1-13" value="ConsentActivity" style="rounded=1;whiteSpace=wrap;html=1;fillColor=#e1d5e7;strokeColor=#9673a6;fontSize=15;fontStyle=2;shadow=0;fontFamily=Helvetica;" parent="1" vertex="1">
          <mxGeometry x="783.65" y="268" width="110" height="40" as="geometry" />
        </mxCell>
        <mxCell id="CcIX3b4XJO-R3UWU8Bb1-14" value="ControlActivity" style="rounded=1;whiteSpace=wrap;html=1;fillColor=#e1d5e7;strokeColor=#9673a6;fontSize=15;fontStyle=2;shadow=0;fontFamily=Helvetica;" parent="1" vertex="1">
          <mxGeometry x="459.99999999999994" y="-270" width="114.09" height="40" as="geometry" />
        </mxCell>
        <mxCell id="CcIX3b4XJO-R3UWU8Bb1-16" value="" style="endArrow=block;html=1;endFill=0;fontSize=15;fontStyle=2;curved=1;shadow=0;fontFamily=Helvetica;" parent="1" source="CcIX3b4XJO-R3UWU8Bb1-12" target="CcIX3b4XJO-R3UWU8Bb1-14" edge="1">
          <mxGeometry width="50" height="50" relative="1" as="geometry">
            <mxPoint x="715.92" y="424" as="sourcePoint" />
            <mxPoint x="665.92" y="474" as="targetPoint" />
            <Array as="points">
              <mxPoint x="760" y="-30" />
            </Array>
          </mxGeometry>
        </mxCell>
        <mxCell id="CcIX3b4XJO-R3UWU8Bb1-18" value="" style="endArrow=block;html=1;endFill=0;fontSize=15;fontStyle=2;curved=1;shadow=0;fontFamily=Helvetica;" parent="1" source="CcIX3b4XJO-R3UWU8Bb1-13" target="CcIX3b4XJO-R3UWU8Bb1-12" edge="1">
          <mxGeometry width="50" height="50" relative="1" as="geometry">
            <mxPoint x="735.92" y="444" as="sourcePoint" />
            <mxPoint x="685.92" y="494" as="targetPoint" />
            <Array as="points">
              <mxPoint x="820" y="230" />
            </Array>
          </mxGeometry>
        </mxCell>
        <mxCell id="CcIX3b4XJO-R3UWU8Bb1-19" value="" style="endArrow=block;html=1;endFill=0;fontSize=15;fontStyle=2;curved=1;shadow=0;fontFamily=Helvetica;" parent="1" source="CcIX3b4XJO-R3UWU8Bb1-5" target="CcIX3b4XJO-R3UWU8Bb1-14" edge="1">
          <mxGeometry width="50" height="50" relative="1" as="geometry">
            <mxPoint x="927.5866666666665" y="544" as="sourcePoint" />
            <mxPoint x="767" y="-193" as="targetPoint" />
            <Array as="points">
              <mxPoint x="780" y="130" />
            </Array>
          </mxGeometry>
        </mxCell>
        <mxCell id="CcIX3b4XJO-R3UWU8Bb1-20" value="" style="endArrow=block;html=1;endFill=0;fontSize=15;fontStyle=2;curved=1;shadow=0;fontFamily=Helvetica;" parent="1" source="CcIX3b4XJO-R3UWU8Bb1-14" target="CcIX3b4XJO-R3UWU8Bb1-3" edge="1">
          <mxGeometry width="50" height="50" relative="1" as="geometry">
            <mxPoint x="697.0384615384614" y="369" as="sourcePoint" />
            <mxPoint x="673.9615384615386" y="344" as="targetPoint" />
            <Array as="points">
              <mxPoint x="350" y="-350" />
            </Array>
          </mxGeometry>
        </mxCell>
        <mxCell id="CcIX3b4XJO-R3UWU8Bb1-21" value="Breach" style="rounded=1;whiteSpace=wrap;html=1;fillColor=#e1d5e7;strokeColor=#9673a6;fontSize=15;fontStyle=2;shadow=0;fontFamily=Helvetica;" parent="1" vertex="1">
          <mxGeometry x="527.2900000000001" y="230" width="71" height="40" as="geometry" />
        </mxCell>
        <mxCell id="CcIX3b4XJO-R3UWU8Bb1-24" value="NotificationMechanism" style="rounded=1;whiteSpace=wrap;html=1;fillColor=#fff2cc;strokeColor=#d6b656;fontSize=15;fontStyle=2;shadow=0;fontFamily=Helvetica;" parent="1" vertex="1">
          <mxGeometry x="842.24" y="73.5" width="169" height="40" as="geometry" />
        </mxCell>
        <mxCell id="CcIX3b4XJO-R3UWU8Bb1-25" value="" style="endArrow=block;html=1;endFill=0;fontSize=15;fontStyle=2;curved=1;shadow=0;fontFamily=Helvetica;" parent="1" source="CcIX3b4XJO-R3UWU8Bb1-24" target="CcIX3b4XJO-R3UWU8Bb1-2" edge="1">
          <mxGeometry width="50" height="50" relative="1" as="geometry">
            <mxPoint x="1686.28947368421" y="-1257.4" as="sourcePoint" />
            <mxPoint x="1663.71052631579" y="-1312.4" as="targetPoint" />
            <Array as="points">
              <mxPoint x="1060" y="-30" />
            </Array>
          </mxGeometry>
        </mxCell>
        <mxCell id="CcIX3b4XJO-R3UWU8Bb1-26" value="BreachConsequence" style="rounded=1;whiteSpace=wrap;html=1;fillColor=#1ba1e2;strokeColor=#006EAF;fontSize=15;fontStyle=2;fontColor=#ffffff;shadow=0;fontFamily=Helvetica;" parent="1" vertex="1">
          <mxGeometry x="850.4499999999999" y="670" width="155" height="40" as="geometry" />
        </mxCell>
        <mxCell id="CcIX3b4XJO-R3UWU8Bb1-27" value="BreachInvestigationTime" style="rounded=1;whiteSpace=wrap;html=1;fillColor=#ffe6cc;strokeColor=#d79b00;fontSize=15;fontStyle=2;shadow=0;fontFamily=Helvetica;" parent="1" vertex="1">
          <mxGeometry x="582.08" y="860" width="176" height="40" as="geometry" />
        </mxCell>
        <mxCell id="CcIX3b4XJO-R3UWU8Bb1-28" value="Cause" style="rounded=1;whiteSpace=wrap;html=1;fillColor=#008a00;strokeColor=#005700;fontSize=15;fontStyle=3;fontColor=#ffffff;shadow=0;glass=0;gradientColor=none;strokeWidth=5;fontFamily=Helvetica;" parent="1" vertex="1">
          <mxGeometry x="900" y="414.5" width="62" height="40" as="geometry" />
        </mxCell>
        <mxCell id="CcIX3b4XJO-R3UWU8Bb1-29" value="&lt;div&gt;RemoveCompromised&lt;/div&gt;&lt;div&gt;Information&lt;/div&gt;" style="rounded=1;whiteSpace=wrap;html=1;fillColor=#1ba1e2;strokeColor=#006EAF;fontSize=15;fontStyle=2;fontColor=#ffffff;shadow=0;fontFamily=Helvetica;" parent="1" vertex="1">
          <mxGeometry x="951.3799999999999" y="800" width="158.6" height="40" as="geometry" />
        </mxCell>
        <mxCell id="CcIX3b4XJO-R3UWU8Bb1-30" value="Compensation" style="rounded=1;whiteSpace=wrap;html=1;fillColor=#1ba1e2;strokeColor=#006EAF;fontSize=15;fontStyle=2;fontColor=#ffffff;shadow=0;fontFamily=Helvetica;" parent="1" vertex="1">
          <mxGeometry x="973.5799999999999" y="750" width="103.5" height="40" as="geometry" />
        </mxCell>
        <mxCell id="CcIX3b4XJO-R3UWU8Bb1-32" value="&lt;div&gt;NotificationTime&lt;/div&gt;" style="rounded=1;whiteSpace=wrap;html=1;fillColor=#ffe6cc;strokeColor=#d79b00;fontSize=15;fontStyle=2;shadow=0;fontFamily=Helvetica;" parent="1" vertex="1">
          <mxGeometry x="396.71" y="840" width="119" height="40" as="geometry" />
        </mxCell>
        <mxCell id="CcIX3b4XJO-R3UWU8Bb1-33" value="TimePeriod" style="rounded=1;whiteSpace=wrap;html=1;fillColor=#ffe6cc;strokeColor=#d79b00;fontSize=15;fontStyle=3;shadow=0;strokeWidth=5;fontFamily=Helvetica;" parent="1" vertex="1">
          <mxGeometry x="440" y="910" width="103" height="40" as="geometry" />
        </mxCell>
        <mxCell id="CcIX3b4XJO-R3UWU8Bb1-34" value="" style="endArrow=block;html=1;endFill=0;fontSize=15;fontStyle=2;shadow=0;fontFamily=Helvetica;" parent="1" source="CcIX3b4XJO-R3UWU8Bb1-32" target="CcIX3b4XJO-R3UWU8Bb1-33" edge="1">
          <mxGeometry width="50" height="50" relative="1" as="geometry">
            <mxPoint x="1602.5" y="1094" as="sourcePoint" />
            <mxPoint x="1602.5" y="1039" as="targetPoint" />
          </mxGeometry>
        </mxCell>
        <mxCell id="CcIX3b4XJO-R3UWU8Bb1-35" value="" style="endArrow=block;html=1;endFill=0;fontSize=15;fontStyle=2;shadow=0;fontFamily=Helvetica;" parent="1" source="CcIX3b4XJO-R3UWU8Bb1-27" target="CcIX3b4XJO-R3UWU8Bb1-33" edge="1">
          <mxGeometry width="50" height="50" relative="1" as="geometry">
            <mxPoint x="1432.5" y="1309" as="sourcePoint" />
            <mxPoint x="1402.5" y="1329" as="targetPoint" />
          </mxGeometry>
        </mxCell>
        <mxCell id="CcIX3b4XJO-R3UWU8Bb1-36" value="" style="endArrow=classic;html=1;dashed=1;fontSize=15;fontStyle=2;startArrow=none;curved=1;fillColor=#008a00;strokeColor=#005700;shadow=0;strokeWidth=2;fontFamily=Helvetica;" parent="1" source="CcIX3b4XJO-R3UWU8Bb1-21" target="CcIX3b4XJO-R3UWU8Bb1-127" edge="1">
          <mxGeometry width="50" height="50" relative="1" as="geometry">
            <mxPoint x="1706.6633333333332" y="492.34000000000003" as="sourcePoint" />
            <mxPoint x="1679.9966666666664" y="472.34000000000003" as="targetPoint" />
            <Array as="points" />
          </mxGeometry>
        </mxCell>
        <mxCell id="CcIX3b4XJO-R3UWU8Bb1-39" value="" style="endArrow=block;html=1;endFill=0;fontSize=15;fontStyle=2;shadow=0;fontFamily=Helvetica;curved=1;" parent="1" source="4GEwqGWDiLAYL1l5WSFT-30" target="CcIX3b4XJO-R3UWU8Bb1-26" edge="1">
          <mxGeometry width="50" height="50" relative="1" as="geometry">
            <mxPoint x="1981.8066666666664" y="1188.1" as="sourcePoint" />
            <mxPoint x="2008.4733333333334" y="1208.1" as="targetPoint" />
          </mxGeometry>
        </mxCell>
        <mxCell id="CcIX3b4XJO-R3UWU8Bb1-40" value="" style="endArrow=block;html=1;endFill=0;fontSize=15;fontStyle=2;shadow=0;fontFamily=Helvetica;curved=1;" parent="1" source="CcIX3b4XJO-R3UWU8Bb1-31" target="CcIX3b4XJO-R3UWU8Bb1-26" edge="1">
          <mxGeometry width="50" height="50" relative="1" as="geometry">
            <mxPoint x="1991.8066666666664" y="1198.1" as="sourcePoint" />
            <mxPoint x="2018.4733333333334" y="1218.1" as="targetPoint" />
          </mxGeometry>
        </mxCell>
        <mxCell id="CcIX3b4XJO-R3UWU8Bb1-41" value="" style="endArrow=classic;html=1;dashed=1;fontSize=15;fontStyle=2;curved=1;fillColor=#1ba1e2;strokeColor=#006EAF;shadow=0;startArrow=none;strokeWidth=2;fontFamily=Helvetica;" parent="1" source="CcIX3b4XJO-R3UWU8Bb1-21" target="CcIX3b4XJO-R3UWU8Bb1-26" edge="1">
          <mxGeometry width="50" height="50" relative="1" as="geometry">
            <mxPoint x="1830" y="349.84000000000003" as="sourcePoint" />
            <mxPoint x="1750" y="334.84000000000003" as="targetPoint" />
            <Array as="points">
              <mxPoint x="910" y="380" />
            </Array>
          </mxGeometry>
        </mxCell>
        <mxCell id="CcIX3b4XJO-R3UWU8Bb1-43" value="" style="endArrow=classic;html=1;dashed=1;fontSize=15;fontStyle=2;curved=1;fillColor=#ffe6cc;strokeColor=#d79b00;shadow=0;strokeWidth=2;fontFamily=Helvetica;" parent="1" source="CcIX3b4XJO-R3UWU8Bb1-31" target="CcIX3b4XJO-R3UWU8Bb1-27" edge="1">
          <mxGeometry width="50" height="50" relative="1" as="geometry">
            <mxPoint x="63.33333333333326" y="450" as="sourcePoint" />
            <mxPoint x="10" y="400" as="targetPoint" />
            <Array as="points">
              <mxPoint x="790" y="850" />
            </Array>
          </mxGeometry>
        </mxCell>
        <mxCell id="CcIX3b4XJO-R3UWU8Bb1-45" value="" style="endArrow=classic;html=1;dashed=1;fontSize=15;fontStyle=2;curved=1;fillColor=#ffe6cc;strokeColor=#d79b00;shadow=0;strokeWidth=2;fontFamily=Helvetica;" parent="1" source="4GEwqGWDiLAYL1l5WSFT-10" target="CcIX3b4XJO-R3UWU8Bb1-32" edge="1">
          <mxGeometry width="50" height="50" relative="1" as="geometry">
            <mxPoint x="564.7545454545452" y="-10" as="sourcePoint" />
            <mxPoint x="-14.347826086956502" y="390" as="targetPoint" />
            <Array as="points">
              <mxPoint x="690" y="240" />
              <mxPoint x="720" y="660" />
            </Array>
          </mxGeometry>
        </mxCell>
        <mxCell id="CcIX3b4XJO-R3UWU8Bb1-51" value="User" style="rounded=1;whiteSpace=wrap;html=1;fillColor=#dae8fc;strokeColor=#6c8ebf;fontSize=15;fontStyle=2;shadow=0;fontFamily=Helvetica;" parent="1" vertex="1">
          <mxGeometry x="-346" y="528" width="54" height="40" as="geometry" />
        </mxCell>
        <mxCell id="CcIX3b4XJO-R3UWU8Bb1-52" value="Criminals" style="rounded=1;whiteSpace=wrap;html=1;fillColor=#dae8fc;strokeColor=#6c8ebf;fontSize=15;fontStyle=2;shadow=0;fontFamily=Helvetica;" parent="1" vertex="1">
          <mxGeometry x="-360.25" y="300" width="71.5" height="40" as="geometry" />
        </mxCell>
        <mxCell id="CcIX3b4XJO-R3UWU8Bb1-53" value="ThirdParty" style="rounded=1;whiteSpace=wrap;html=1;fillColor=#dae8fc;strokeColor=#6c8ebf;fontSize=15;fontStyle=2;shadow=0;fontFamily=Helvetica;" parent="1" vertex="1">
          <mxGeometry x="-358" y="80" width="78" height="40" as="geometry" />
        </mxCell>
        <mxCell id="CcIX3b4XJO-R3UWU8Bb1-58" value="NonPersonalData" style="rounded=1;whiteSpace=wrap;html=1;fillColor=#f5f5f5;fontColor=#333333;strokeColor=#666666;fontSize=15;fontStyle=2;shadow=0;fontFamily=Helvetica;" parent="1" vertex="1">
          <mxGeometry x="-174.49" y="790" width="150" height="40" as="geometry" />
        </mxCell>
        <mxCell id="CcIX3b4XJO-R3UWU8Bb1-59" value="SensitiveData" style="rounded=1;whiteSpace=wrap;html=1;fillColor=#f5f5f5;fontColor=#333333;strokeColor=#666666;fontSize=15;fontStyle=2;shadow=0;fontFamily=Helvetica;" parent="1" vertex="1">
          <mxGeometry x="-380" y="795.5" width="111" height="40" as="geometry" />
        </mxCell>
        <mxCell id="CcIX3b4XJO-R3UWU8Bb1-60" value="PersonalData" style="rounded=1;whiteSpace=wrap;html=1;fillColor=#f5f5f5;fontColor=#333333;strokeColor=#666666;fontSize=15;fontStyle=2;shadow=0;fontFamily=Helvetica;" parent="1" vertex="1">
          <mxGeometry x="-228.49" y="850" width="100" height="40" as="geometry" />
        </mxCell>
        <mxCell id="CcIX3b4XJO-R3UWU8Bb1-61" value="TrackingData" style="rounded=1;whiteSpace=wrap;html=1;fillColor=#f5f5f5;fontColor=#333333;strokeColor=#666666;fontSize=15;fontStyle=2;shadow=0;fontFamily=Helvetica;" parent="1" vertex="1">
          <mxGeometry x="-534.01" y="875.5" width="100" height="40" as="geometry" />
        </mxCell>
        <mxCell id="CcIX3b4XJO-R3UWU8Bb1-62" value="UserAccountData" style="rounded=1;whiteSpace=wrap;html=1;fillColor=#f5f5f5;fontColor=#333333;strokeColor=#666666;fontSize=15;fontStyle=2;shadow=0;fontFamily=Helvetica;" parent="1" vertex="1">
          <mxGeometry x="-675.01" y="817.79" width="129" height="40" as="geometry" />
        </mxCell>
        <mxCell id="CcIX3b4XJO-R3UWU8Bb1-63" value="UserAppInfo" style="rounded=1;whiteSpace=wrap;html=1;fillColor=#f5f5f5;fontColor=#333333;strokeColor=#666666;fontSize=15;fontStyle=2;shadow=0;fontFamily=Helvetica;" parent="1" vertex="1">
          <mxGeometry x="-648.26" y="875.5" width="100" height="40" as="geometry" />
        </mxCell>
        <mxCell id="CcIX3b4XJO-R3UWU8Bb1-64" value="UserDeviceInfo" style="rounded=1;whiteSpace=wrap;html=1;fillColor=#f5f5f5;fontColor=#333333;strokeColor=#666666;fontSize=15;fontStyle=2;shadow=0;fontFamily=Helvetica;" parent="1" vertex="1">
          <mxGeometry x="-536.5" y="817.79" width="120" height="40" as="geometry" />
        </mxCell>
        <mxCell id="CcIX3b4XJO-R3UWU8Bb1-65" value="UserFinancialData" style="rounded=1;whiteSpace=wrap;html=1;fillColor=#f5f5f5;fontColor=#333333;strokeColor=#666666;fontSize=15;fontStyle=2;shadow=0;fontFamily=Helvetica;" parent="1" vertex="1">
          <mxGeometry x="-600.51" y="765.5" width="132.5" height="40" as="geometry" />
        </mxCell>
        <mxCell id="CcIX3b4XJO-R3UWU8Bb1-66" value="BiometricData" style="rounded=1;whiteSpace=wrap;html=1;fillColor=#f5f5f5;fontColor=#333333;strokeColor=#666666;fontSize=15;fontStyle=2;shadow=0;fontFamily=Helvetica;" parent="1" vertex="1">
          <mxGeometry x="-789.25" y="695.5" width="111" height="40" as="geometry" />
        </mxCell>
        <mxCell id="CcIX3b4XJO-R3UWU8Bb1-67" value="CrimeData" style="rounded=1;whiteSpace=wrap;html=1;fillColor=#f5f5f5;fontColor=#333333;strokeColor=#666666;fontSize=15;fontStyle=2;shadow=0;fontFamily=Helvetica;" parent="1" vertex="1">
          <mxGeometry x="-872.75" y="645.5" width="80" height="40" as="geometry" />
        </mxCell>
        <mxCell id="CcIX3b4XJO-R3UWU8Bb1-68" value="GenericData" style="rounded=1;whiteSpace=wrap;html=1;fillColor=#f5f5f5;fontColor=#333333;strokeColor=#666666;fontSize=15;fontStyle=2;shadow=0;fontFamily=Helvetica;" parent="1" vertex="1">
          <mxGeometry x="-844.25" y="595.5" width="100" height="40" as="geometry" />
        </mxCell>
        <mxCell id="CcIX3b4XJO-R3UWU8Bb1-69" value="HealthData" style="rounded=1;whiteSpace=wrap;html=1;fillColor=#f5f5f5;fontColor=#333333;strokeColor=#666666;fontSize=15;fontStyle=2;shadow=0;fontFamily=Helvetica;" parent="1" vertex="1">
          <mxGeometry x="-773.75" y="645.5" width="85" height="40" as="geometry" />
        </mxCell>
        <mxCell id="CcIX3b4XJO-R3UWU8Bb1-70" value="RacialData" style="rounded=1;whiteSpace=wrap;html=1;fillColor=#f5f5f5;fontColor=#333333;strokeColor=#666666;fontSize=15;fontStyle=2;shadow=0;fontFamily=Helvetica;" parent="1" vertex="1">
          <mxGeometry x="-914.25" y="695.5" width="90" height="40" as="geometry" />
        </mxCell>
        <mxCell id="CcIX3b4XJO-R3UWU8Bb1-71" value="ReligionData" style="rounded=1;whiteSpace=wrap;html=1;fillColor=#f5f5f5;fontColor=#333333;strokeColor=#666666;fontSize=15;fontStyle=2;shadow=0;fontFamily=Helvetica;" parent="1" vertex="1">
          <mxGeometry x="-854.25" y="745.5" width="99" height="40" as="geometry" />
        </mxCell>
        <mxCell id="CcIX3b4XJO-R3UWU8Bb1-72" value="" style="endArrow=block;html=1;endFill=0;fontSize=15;fontStyle=2;shadow=0;curved=1;fontFamily=Helvetica;" parent="1" source="CcIX3b4XJO-R3UWU8Bb1-59" target="CcIX3b4XJO-R3UWU8Bb1-60" edge="1">
          <mxGeometry width="50" height="50" relative="1" as="geometry">
            <mxPoint x="-14.810000000000002" y="1537.98" as="sourcePoint" />
            <mxPoint x="-480.9987755102043" y="699" as="targetPoint" />
            <Array as="points">
              <mxPoint x="-260" y="860" />
            </Array>
          </mxGeometry>
        </mxCell>
        <mxCell id="CcIX3b4XJO-R3UWU8Bb1-73" value="" style="endArrow=block;html=1;endFill=0;fontSize=15;fontStyle=2;shadow=0;fontFamily=Helvetica;" parent="1" source="4GEwqGWDiLAYL1l5WSFT-31" target="y-dyS5vIyWXZ1245UoUS-1" edge="1">
          <mxGeometry width="50" height="50" relative="1" as="geometry">
            <mxPoint x="-81.27923076923071" y="1577.98" as="sourcePoint" />
            <mxPoint x="-60.800769230768765" y="1667.98" as="targetPoint" />
          </mxGeometry>
        </mxCell>
        <mxCell id="CcIX3b4XJO-R3UWU8Bb1-78" value="" style="endArrow=block;html=1;endFill=0;fontSize=15;fontStyle=2;shadow=0;fontFamily=Helvetica;curved=1;" parent="1" source="4GEwqGWDiLAYL1l5WSFT-33" target="CcIX3b4XJO-R3UWU8Bb1-59" edge="1">
          <mxGeometry width="50" height="50" relative="1" as="geometry">
            <mxPoint x="261.94" y="1367.54" as="sourcePoint" />
            <mxPoint x="207.4248484848485" y="1677.54" as="targetPoint" />
            <Array as="points">
              <mxPoint x="-460" y="590" />
            </Array>
          </mxGeometry>
        </mxCell>
        <mxCell id="CcIX3b4XJO-R3UWU8Bb1-84" value="" style="endArrow=block;html=1;endFill=0;fontSize=15;fontStyle=2;shadow=0;curved=1;fontFamily=Helvetica;" parent="1" source="CcIX3b4XJO-R3UWU8Bb1-58" target="4Ul_LHpnBtSVW_RfF9cD-1" edge="1">
          <mxGeometry width="50" height="50" relative="1" as="geometry">
            <mxPoint x="-100.83333333333348" y="1587.98" as="sourcePoint" />
            <mxPoint x="54.639796659404965" y="1751.12" as="targetPoint" />
            <Array as="points" />
          </mxGeometry>
        </mxCell>
        <mxCell id="CcIX3b4XJO-R3UWU8Bb1-85" value="" style="endArrow=block;html=1;endFill=0;fontSize=15;fontStyle=2;shadow=0;fontFamily=Helvetica;curved=1;" parent="1" source="CcIX3b4XJO-R3UWU8Bb1-60" target="4Ul_LHpnBtSVW_RfF9cD-1" edge="1">
          <mxGeometry width="50" height="50" relative="1" as="geometry">
            <mxPoint x="-90.83333333333348" y="1597.98" as="sourcePoint" />
            <mxPoint x="-11.80900508351533" y="1751.12" as="targetPoint" />
          </mxGeometry>
        </mxCell>
        <mxCell id="CcIX3b4XJO-R3UWU8Bb1-87" value="LegalBasis" style="rounded=1;whiteSpace=wrap;html=1;fillColor=#fa6800;strokeColor=#C73500;fontSize=15;fontStyle=2;fontColor=#000000;shadow=0;fontFamily=Helvetica;" parent="1" vertex="1">
          <mxGeometry x="-154.49" y="-458.25" width="89.75" height="40" as="geometry" />
        </mxCell>
        <mxCell id="CcIX3b4XJO-R3UWU8Bb1-88" value="Mode" style="rounded=1;whiteSpace=wrap;html=1;fillColor=#e3c800;strokeColor=#B09500;fontSize=15;fontStyle=3;fontColor=#000000;shadow=0;strokeWidth=5;fontFamily=Helvetica;" parent="1" vertex="1">
          <mxGeometry x="582.0799999999998" y="-480" width="84.25" height="40" as="geometry" />
        </mxCell>
        <mxCell id="CcIX3b4XJO-R3UWU8Bb1-91" value="UserSpecialCategory" style="rounded=1;whiteSpace=wrap;html=1;fillColor=#76608a;strokeColor=#432D57;fontSize=15;fontStyle=3;fontColor=#ffffff;shadow=0;fontFamily=Helvetica;strokeWidth=5;" parent="1" vertex="1">
          <mxGeometry x="-700.51" y="528" width="159" height="40" as="geometry" />
        </mxCell>
        <mxCell id="CcIX3b4XJO-R3UWU8Bb1-92" value="DataActivityPurpose" style="rounded=1;whiteSpace=wrap;html=1;fillColor=#6a00ff;strokeColor=#3700CC;fontSize=15;fontStyle=2;fontColor=#ffffff;shadow=0;fontFamily=Helvetica;" parent="1" vertex="1">
          <mxGeometry x="173.7499999999998" y="-454" width="150" height="40" as="geometry" />
        </mxCell>
        <mxCell id="CcIX3b4XJO-R3UWU8Bb1-97" value="SecurityMechanism" style="rounded=1;whiteSpace=wrap;html=1;fillColor=#fff2cc;strokeColor=#d6b656;fontSize=15;fontStyle=2;shadow=0;fontFamily=Helvetica;" parent="1" vertex="1">
          <mxGeometry x="640.04" y="-240" width="147" height="40" as="geometry" />
        </mxCell>
        <mxCell id="CcIX3b4XJO-R3UWU8Bb1-99" value="FPCollectionMechanism" style="rounded=1;whiteSpace=wrap;html=1;fillColor=#fff2cc;strokeColor=#d6b656;fontSize=15;fontStyle=2;shadow=0;fontFamily=Helvetica;" parent="1" vertex="1">
          <mxGeometry x="686.1099999999999" y="-161.5" width="186" height="40" as="geometry" />
        </mxCell>
        <mxCell id="CcIX3b4XJO-R3UWU8Bb1-100" value="" style="endArrow=block;html=1;endFill=0;fontSize=15;fontStyle=2;curved=1;shadow=0;fontFamily=Helvetica;" parent="1" source="pIO2bBWsaHQuIE4qCJqX-5" target="CcIX3b4XJO-R3UWU8Bb1-2" edge="1">
          <mxGeometry width="50" height="50" relative="1" as="geometry">
            <mxPoint x="1107.81" y="-1370.4091477082325" as="sourcePoint" />
            <mxPoint x="1266.056483608269" y="-1314.9" as="targetPoint" />
            <Array as="points">
              <mxPoint x="1150" y="40" />
            </Array>
          </mxGeometry>
        </mxCell>
        <mxCell id="CcIX3b4XJO-R3UWU8Bb1-101" value="" style="endArrow=block;html=1;endFill=0;fontSize=15;fontStyle=2;curved=1;shadow=0;fontFamily=Helvetica;" parent="1" source="CcIX3b4XJO-R3UWU8Bb1-98" target="CcIX3b4XJO-R3UWU8Bb1-2" edge="1">
          <mxGeometry width="50" height="50" relative="1" as="geometry">
            <mxPoint x="1234.4489153833415" y="-1516.46" as="sourcePoint" />
            <mxPoint x="1249.0510846166585" y="-1314.9" as="targetPoint" />
            <Array as="points" />
          </mxGeometry>
        </mxCell>
        <mxCell id="CcIX3b4XJO-R3UWU8Bb1-102" value="" style="endArrow=block;html=1;endFill=0;fontSize=15;fontStyle=2;curved=1;shadow=0;fontFamily=Helvetica;" parent="1" source="CcIX3b4XJO-R3UWU8Bb1-97" target="CcIX3b4XJO-R3UWU8Bb1-2" edge="1">
          <mxGeometry width="50" height="50" relative="1" as="geometry">
            <mxPoint x="864.9034414459024" y="-1923.96" as="sourcePoint" />
            <mxPoint x="708.139905548996" y="-1901.31" as="targetPoint" />
            <Array as="points">
              <mxPoint x="900" y="-290" />
            </Array>
          </mxGeometry>
        </mxCell>
        <mxCell id="CcIX3b4XJO-R3UWU8Bb1-104" value="" style="endArrow=block;html=1;endFill=0;fontSize=15;fontStyle=2;curved=1;shadow=0;fontFamily=Helvetica;" parent="1" source="CcIX3b4XJO-R3UWU8Bb1-99" target="CcIX3b4XJO-R3UWU8Bb1-2" edge="1">
          <mxGeometry width="50" height="50" relative="1" as="geometry">
            <mxPoint x="1090.5" y="-1323.196170212766" as="sourcePoint" />
            <mxPoint x="1210.5" y="-1301.9740425531918" as="targetPoint" />
            <Array as="points">
              <mxPoint x="940" y="-200" />
            </Array>
          </mxGeometry>
        </mxCell>
        <mxCell id="CcIX3b4XJO-R3UWU8Bb1-105" value="TechnicalMeasures" style="rounded=1;whiteSpace=wrap;html=1;fillColor=#fff2cc;strokeColor=#d6b656;fontSize=15;fontStyle=2;shadow=0;fontFamily=Helvetica;" parent="1" vertex="1">
          <mxGeometry x="893.6500000000001" y="-340.5" width="149" height="40" as="geometry" />
        </mxCell>
        <mxCell id="CcIX3b4XJO-R3UWU8Bb1-106" value="OrganizationalMeasures" style="rounded=1;whiteSpace=wrap;html=1;fillColor=#fff2cc;strokeColor=#d6b656;fontSize=15;fontStyle=2;shadow=0;fontFamily=Helvetica;" parent="1" vertex="1">
          <mxGeometry x="783.65" y="-409.5" width="177" height="40" as="geometry" />
        </mxCell>
        <mxCell id="CcIX3b4XJO-R3UWU8Bb1-107" value="Encryption" style="rounded=1;whiteSpace=wrap;html=1;fillColor=#fff2cc;strokeColor=#d6b656;fontSize=15;fontStyle=2;shadow=0;fontFamily=Helvetica;" parent="1" vertex="1">
          <mxGeometry x="1102.4499999999998" y="-431.25" width="91" height="40" as="geometry" />
        </mxCell>
        <mxCell id="CcIX3b4XJO-R3UWU8Bb1-108" value="PseudoAnonymization" style="rounded=1;whiteSpace=wrap;html=1;fillColor=#fff2cc;strokeColor=#d6b656;fontSize=15;fontStyle=2;shadow=0;fontFamily=Helvetica;" parent="1" vertex="1">
          <mxGeometry x="949.63" y="-558.75" width="162.79" height="40" as="geometry" />
        </mxCell>
        <mxCell id="CcIX3b4XJO-R3UWU8Bb1-109" value="" style="endArrow=block;html=1;endFill=0;fontSize=15;fontStyle=2;curved=1;shadow=0;fontFamily=Helvetica;" parent="1" source="CcIX3b4XJO-R3UWU8Bb1-107" target="CcIX3b4XJO-R3UWU8Bb1-105" edge="1">
          <mxGeometry width="50" height="50" relative="1" as="geometry">
            <mxPoint x="1262.32" y="-1269.0900000000001" as="sourcePoint" />
            <mxPoint x="1392.32" y="-1283.588823529412" as="targetPoint" />
            <Array as="points">
              <mxPoint x="1080" y="-370" />
            </Array>
          </mxGeometry>
        </mxCell>
        <mxCell id="CcIX3b4XJO-R3UWU8Bb1-111" value="" style="endArrow=block;html=1;endFill=0;fontSize=15;fontStyle=2;curved=1;shadow=0;fontFamily=Helvetica;" parent="1" source="CcIX3b4XJO-R3UWU8Bb1-106" target="CcIX3b4XJO-R3UWU8Bb1-97" edge="1">
          <mxGeometry width="50" height="50" relative="1" as="geometry">
            <mxPoint x="992.41" y="-1392.2638461538463" as="sourcePoint" />
            <mxPoint x="1037.41" y="-1389.956153846154" as="targetPoint" />
            <Array as="points" />
          </mxGeometry>
        </mxCell>
        <mxCell id="CcIX3b4XJO-R3UWU8Bb1-112" value="" style="endArrow=block;html=1;endFill=0;fontSize=15;fontStyle=2;curved=1;shadow=0;fontFamily=Helvetica;" parent="1" source="CcIX3b4XJO-R3UWU8Bb1-105" target="CcIX3b4XJO-R3UWU8Bb1-97" edge="1">
          <mxGeometry width="50" height="50" relative="1" as="geometry">
            <mxPoint x="1157.41" y="-1345.6752173913046" as="sourcePoint" />
            <mxPoint x="1237.41" y="-1366.5447826086956" as="targetPoint" />
            <Array as="points">
              <mxPoint x="840" y="-290" />
            </Array>
          </mxGeometry>
        </mxCell>
        <mxCell id="CcIX3b4XJO-R3UWU8Bb1-113" value="ViaEmail" style="rounded=1;whiteSpace=wrap;html=1;fillColor=#fff2cc;strokeColor=#d6b656;fontSize=15;fontStyle=2;shadow=0;fontFamily=Helvetica;" parent="1" vertex="1">
          <mxGeometry x="1355.69" y="-182" width="71" height="40" as="geometry" />
        </mxCell>
        <mxCell id="CcIX3b4XJO-R3UWU8Bb1-114" value="OnServiceApp" style="rounded=1;whiteSpace=wrap;html=1;fillColor=#fff2cc;strokeColor=#d6b656;fontSize=15;fontStyle=2;shadow=0;fontFamily=Helvetica;" parent="1" vertex="1">
          <mxGeometry x="1435.69" y="-222" width="108" height="40" as="geometry" />
        </mxCell>
        <mxCell id="CcIX3b4XJO-R3UWU8Bb1-115" value="InPrivacyPolicy" style="rounded=1;whiteSpace=wrap;html=1;fillColor=#fff2cc;strokeColor=#d6b656;fontSize=15;fontStyle=2;shadow=0;fontFamily=Helvetica;" parent="1" vertex="1">
          <mxGeometry x="1345.69" y="-102" width="116" height="40" as="geometry" />
        </mxCell>
        <mxCell id="CcIX3b4XJO-R3UWU8Bb1-117" value="ViaPhoneCall" style="rounded=1;whiteSpace=wrap;html=1;fillColor=#fff2cc;strokeColor=#d6b656;fontSize=15;fontStyle=2;shadow=0;fontFamily=Helvetica;" parent="1" vertex="1">
          <mxGeometry x="1445.6899999999998" y="-156.5" width="106" height="40" as="geometry" />
        </mxCell>
        <mxCell id="CcIX3b4XJO-R3UWU8Bb1-118" value="ViaSMS" style="rounded=1;whiteSpace=wrap;html=1;fillColor=#fff2cc;strokeColor=#d6b656;fontSize=15;fontStyle=2;shadow=0;fontFamily=Helvetica;" parent="1" vertex="1">
          <mxGeometry x="1395.69" y="3.5" width="66" height="40" as="geometry" />
        </mxCell>
        <mxCell id="CcIX3b4XJO-R3UWU8Bb1-119" value="ViaPostalMail" style="rounded=1;whiteSpace=wrap;html=1;fillColor=#fff2cc;strokeColor=#d6b656;fontSize=15;fontStyle=2;shadow=0;fontFamily=Helvetica;" parent="1" vertex="1">
          <mxGeometry x="1443.69" y="-46.5" width="108" height="40" as="geometry" />
        </mxCell>
        <mxCell id="CcIX3b4XJO-R3UWU8Bb1-121" value="" style="endArrow=block;html=1;endFill=0;fontSize=15;fontStyle=2;curved=1;shadow=0;fontFamily=Helvetica;" parent="1" source="4GEwqGWDiLAYL1l5WSFT-19" target="CcIX3b4XJO-R3UWU8Bb1-24" edge="1">
          <mxGeometry width="50" height="50" relative="1" as="geometry">
            <mxPoint x="1798.25" y="-1637.38" as="sourcePoint" />
            <mxPoint x="1723.25" y="-1597.38" as="targetPoint" />
            <Array as="points">
              <mxPoint x="1230" y="90" />
            </Array>
          </mxGeometry>
        </mxCell>
        <mxCell id="CcIX3b4XJO-R3UWU8Bb1-127" value="BreachCause" style="rounded=1;whiteSpace=wrap;html=1;fillColor=#008a00;strokeColor=#005700;fontSize=15;fontStyle=2;fontColor=#ffffff;shadow=0;fontFamily=Helvetica;" parent="1" vertex="1">
          <mxGeometry x="1053.08" y="414.5" width="109.5" height="40" as="geometry" />
        </mxCell>
        <mxCell id="CcIX3b4XJO-R3UWU8Bb1-129" value="Intentional" style="rounded=1;whiteSpace=wrap;html=1;fillColor=#008a00;strokeColor=#005700;fontSize=15;fontStyle=2;fontColor=#ffffff;shadow=0;fontFamily=Helvetica;" parent="1" vertex="1">
          <mxGeometry x="1031.0799999999997" y="320.5" width="90" height="40" as="geometry" />
        </mxCell>
        <mxCell id="CcIX3b4XJO-R3UWU8Bb1-130" value="Unintentional" style="rounded=1;whiteSpace=wrap;html=1;fillColor=#008a00;strokeColor=#005700;fontSize=15;fontStyle=2;fontColor=#ffffff;shadow=0;fontFamily=Helvetica;" parent="1" vertex="1">
          <mxGeometry x="995.15" y="270.5" width="104.25" height="40" as="geometry" />
        </mxCell>
        <mxCell id="CcIX3b4XJO-R3UWU8Bb1-131" value="" style="endArrow=block;html=1;endFill=0;fontSize=15;fontStyle=2;curved=1;shadow=0;fontFamily=Helvetica;" parent="1" source="CcIX3b4XJO-R3UWU8Bb1-127" target="CcIX3b4XJO-R3UWU8Bb1-28" edge="1">
          <mxGeometry width="50" height="50" relative="1" as="geometry">
            <mxPoint x="2176.65" y="1200.21" as="sourcePoint" />
            <mxPoint x="2276.65" y="1200.21" as="targetPoint" />
            <Array as="points" />
          </mxGeometry>
        </mxCell>
        <mxCell id="CcIX3b4XJO-R3UWU8Bb1-134" value="" style="endArrow=block;html=1;endFill=0;fontSize=15;fontStyle=2;shadow=0;fontFamily=Helvetica;" parent="1" source="4GEwqGWDiLAYL1l5WSFT-28" target="CcIX3b4XJO-R3UWU8Bb1-127" edge="1">
          <mxGeometry width="50" height="50" relative="1" as="geometry">
            <mxPoint x="2088.65" y="917.0500000000001" as="sourcePoint" />
            <mxPoint x="2138.65" y="917.0500000000001" as="targetPoint" />
          </mxGeometry>
        </mxCell>
        <mxCell id="CcIX3b4XJO-R3UWU8Bb1-135" value="DataTransmissionMode" style="rounded=1;whiteSpace=wrap;html=1;fillColor=#e3c800;strokeColor=#B09500;fontSize=15;fontStyle=2;fontColor=#000000;shadow=0;fontFamily=Helvetica;" parent="1" vertex="1">
          <mxGeometry x="573.2899999999997" y="-332.75" width="177" height="40" as="geometry" />
        </mxCell>
        <mxCell id="CcIX3b4XJO-R3UWU8Bb1-137" value="" style="endArrow=block;html=1;endFill=0;fontSize=15;fontStyle=2;curved=1;shadow=0;fontFamily=Helvetica;" parent="1" source="CcIX3b4XJO-R3UWU8Bb1-135" target="KT9C6vuOZP5Z0PniKQ4T-3" edge="1">
          <mxGeometry width="50" height="50" relative="1" as="geometry">
            <mxPoint x="-1184.4664836082688" y="-1349.98" as="sourcePoint" />
            <mxPoint x="-1302.3535163917313" y="-1198.42" as="targetPoint" />
          </mxGeometry>
        </mxCell>
        <mxCell id="CcIX3b4XJO-R3UWU8Bb1-145" value="" style="endArrow=classic;html=1;dashed=1;fontSize=15;fontStyle=2;shadow=0;fillColor=#76608a;strokeColor=#432D57;strokeWidth=2;fontFamily=Helvetica;" parent="1" source="CcIX3b4XJO-R3UWU8Bb1-51" target="CcIX3b4XJO-R3UWU8Bb1-91" edge="1">
          <mxGeometry width="50" height="50" relative="1" as="geometry">
            <mxPoint x="389.5" y="46.639999999999986" as="sourcePoint" />
            <mxPoint x="357" y="6.639999999999986" as="targetPoint" />
          </mxGeometry>
        </mxCell>
        <mxCell id="CcIX3b4XJO-R3UWU8Bb1-147" value="DataActivity" style="rounded=1;whiteSpace=wrap;html=1;fillColor=#e1d5e7;strokeColor=#9673a6;fontSize=15;fontStyle=2;shadow=0;fontFamily=Helvetica;" parent="1" vertex="1">
          <mxGeometry x="203.75" y="-296.5" width="90" height="40" as="geometry" />
        </mxCell>
        <mxCell id="CcIX3b4XJO-R3UWU8Bb1-148" value="" style="endArrow=classic;html=1;dashed=1;fontSize=15;fontStyle=2;fillColor=#fa6800;strokeColor=#C73500;curved=1;shadow=0;strokeWidth=2;fontFamily=Helvetica;" parent="1" source="CcIX3b4XJO-R3UWU8Bb1-147" target="CcIX3b4XJO-R3UWU8Bb1-87" edge="1">
          <mxGeometry width="50" height="50" relative="1" as="geometry">
            <mxPoint x="898.2973333333334" y="315.08000000000004" as="sourcePoint" />
            <mxPoint x="897.6226666666666" y="205.07999999999993" as="targetPoint" />
            <Array as="points">
              <mxPoint x="140" y="-460" />
            </Array>
          </mxGeometry>
        </mxCell>
        <mxCell id="CcIX3b4XJO-R3UWU8Bb1-150" value="" style="endArrow=block;html=1;endFill=0;fontSize=15;fontStyle=2;curved=1;shadow=0;fontFamily=Helvetica;" parent="1" source="CcIX3b4XJO-R3UWU8Bb1-147" target="CcIX3b4XJO-R3UWU8Bb1-3" edge="1">
          <mxGeometry width="50" height="50" relative="1" as="geometry">
            <mxPoint x="879.6149999999998" y="449" as="sourcePoint" />
            <mxPoint x="880.3050000000003" y="329" as="targetPoint" />
            <Array as="points">
              <mxPoint x="180" y="-350" />
            </Array>
          </mxGeometry>
        </mxCell>
        <mxCell id="CcIX3b4XJO-R3UWU8Bb1-151" value="" style="endArrow=classic;html=1;dashed=1;fontSize=15;fontStyle=2;fillColor=#0050ef;strokeColor=#001DBC;curved=1;shadow=0;strokeWidth=2;fontFamily=Helvetica;" parent="1" source="CcIX3b4XJO-R3UWU8Bb1-147" target="CcIX3b4XJO-R3UWU8Bb1-92" edge="1">
          <mxGeometry width="50" height="50" relative="1" as="geometry">
            <mxPoint x="704.5" y="316.3217910447762" as="sourcePoint" />
            <mxPoint x="653.147994907702" y="292.2399999999999" as="targetPoint" />
            <Array as="points" />
          </mxGeometry>
        </mxCell>
        <mxCell id="CcIX3b4XJO-R3UWU8Bb1-155" value="GiveConsent" style="rounded=1;whiteSpace=wrap;html=1;fillColor=#e1d5e7;strokeColor=#9673a6;fontSize=15;fontStyle=2;shadow=0;fontFamily=Helvetica;" parent="1" vertex="1">
          <mxGeometry x="293.75" y="695.5" width="96.5" height="40" as="geometry" />
        </mxCell>
        <mxCell id="CcIX3b4XJO-R3UWU8Bb1-156" value="WithdrawConsent" style="rounded=1;whiteSpace=wrap;html=1;fillColor=#e1d5e7;strokeColor=#9673a6;fontSize=15;fontStyle=2;shadow=0;fontFamily=Helvetica;" parent="1" vertex="1">
          <mxGeometry x="130" y="760" width="131.75" height="40" as="geometry" />
        </mxCell>
        <mxCell id="CcIX3b4XJO-R3UWU8Bb1-157" value="" style="endArrow=block;html=1;endFill=0;fontSize=15;fontStyle=2;curved=1;shadow=0;fontFamily=Helvetica;" parent="1" source="CcIX3b4XJO-R3UWU8Bb1-155" target="CcIX3b4XJO-R3UWU8Bb1-13" edge="1">
          <mxGeometry width="50" height="50" relative="1" as="geometry">
            <mxPoint x="1131.75" y="702.13" as="sourcePoint" />
            <mxPoint x="864.25" y="550.9672093023258" as="targetPoint" />
            <Array as="points">
              <mxPoint x="730" y="720" />
            </Array>
          </mxGeometry>
        </mxCell>
        <mxCell id="CcIX3b4XJO-R3UWU8Bb1-158" value="" style="endArrow=block;html=1;endFill=0;fontSize=15;fontStyle=2;curved=1;shadow=0;fontFamily=Helvetica;" parent="1" source="CcIX3b4XJO-R3UWU8Bb1-156" target="CcIX3b4XJO-R3UWU8Bb1-13" edge="1">
          <mxGeometry width="50" height="50" relative="1" as="geometry">
            <mxPoint x="1115.5357142857142" y="672.13" as="sourcePoint" />
            <mxPoint x="1076.9642857142862" y="642.13" as="targetPoint" />
            <Array as="points">
              <mxPoint x="810" y="790" />
            </Array>
          </mxGeometry>
        </mxCell>
        <mxCell id="CcIX3b4XJO-R3UWU8Bb1-165" value="WebsiteForm" style="rounded=1;whiteSpace=wrap;html=1;fontSize=15;fontStyle=2;fillColor=#fff2cc;strokeColor=#d6b656;shadow=0;fontFamily=Helvetica;" parent="1" vertex="1">
          <mxGeometry x="1354.0299999999997" y="147.5" width="104.25" height="40" as="geometry" />
        </mxCell>
        <mxCell id="CcIX3b4XJO-R3UWU8Bb1-169" value="TPSharing" style="rounded=1;whiteSpace=wrap;html=1;fillColor=#e1d5e7;strokeColor=#9673a6;fontSize=15;fontStyle=2;shadow=0;fontFamily=Helvetica;" parent="1" vertex="1">
          <mxGeometry x="356.13" y="-50" width="83" height="40" as="geometry" />
        </mxCell>
        <mxCell id="CcIX3b4XJO-R3UWU8Bb1-170" value="" style="endArrow=block;html=1;endFill=0;fontSize=15;fontStyle=2;curved=1;shadow=0;fontFamily=Helvetica;" parent="1" source="CcIX3b4XJO-R3UWU8Bb1-169" target="CcIX3b4XJO-R3UWU8Bb1-147" edge="1">
          <mxGeometry width="50" height="50" relative="1" as="geometry">
            <mxPoint x="956.5" y="449" as="sourcePoint" />
            <mxPoint x="956.5" y="349" as="targetPoint" />
            <Array as="points">
              <mxPoint x="390" y="-170" />
            </Array>
          </mxGeometry>
        </mxCell>
        <mxCell id="CcIX3b4XJO-R3UWU8Bb1-171" value="FPCollection" style="rounded=1;whiteSpace=wrap;html=1;fillColor=#e1d5e7;strokeColor=#9673a6;fontSize=15;fontStyle=2;shadow=0;fontFamily=Helvetica;" parent="1" vertex="1">
          <mxGeometry x="260" y="-130" width="96.13" height="40" as="geometry" />
        </mxCell>
        <mxCell id="CcIX3b4XJO-R3UWU8Bb1-173" value="DataUse" style="rounded=1;whiteSpace=wrap;html=1;fillColor=#e1d5e7;strokeColor=#9673a6;fontSize=15;fontStyle=2;shadow=0;fontFamily=Helvetica;" parent="1" vertex="1">
          <mxGeometry x="29.999999999999993" y="-240.75" width="75" height="40" as="geometry" />
        </mxCell>
        <mxCell id="CcIX3b4XJO-R3UWU8Bb1-174" value="" style="endArrow=block;html=1;endFill=0;fontSize=15;fontStyle=2;curved=1;shadow=0;fontFamily=Helvetica;" parent="1" source="CcIX3b4XJO-R3UWU8Bb1-171" target="CcIX3b4XJO-R3UWU8Bb1-147" edge="1">
          <mxGeometry width="50" height="50" relative="1" as="geometry">
            <mxPoint x="620" y="439.5960264900664" as="sourcePoint" />
            <mxPoint x="766.5" y="478.4039735099336" as="targetPoint" />
            <Array as="points">
              <mxPoint x="300" y="-200" />
            </Array>
          </mxGeometry>
        </mxCell>
        <mxCell id="CcIX3b4XJO-R3UWU8Bb1-175" value="" style="endArrow=block;html=1;endFill=0;fontSize=15;fontStyle=2;curved=1;shadow=0;fontFamily=Helvetica;" parent="1" source="CcIX3b4XJO-R3UWU8Bb1-172" target="CcIX3b4XJO-R3UWU8Bb1-147" edge="1">
          <mxGeometry width="50" height="50" relative="1" as="geometry">
            <mxPoint x="635.6666666666665" y="389" as="sourcePoint" />
            <mxPoint x="772.333333333333" y="469" as="targetPoint" />
            <Array as="points">
              <mxPoint x="490" y="-150" />
            </Array>
          </mxGeometry>
        </mxCell>
        <mxCell id="CcIX3b4XJO-R3UWU8Bb1-176" value="" style="endArrow=block;html=1;endFill=0;fontSize=15;fontStyle=2;curved=1;shadow=0;fontFamily=Helvetica;" parent="1" source="CcIX3b4XJO-R3UWU8Bb1-173" target="CcIX3b4XJO-R3UWU8Bb1-147" edge="1">
          <mxGeometry width="50" height="50" relative="1" as="geometry">
            <mxPoint x="686.0588235294117" y="339" as="sourcePoint" />
            <mxPoint x="790.4411764705883" y="469" as="targetPoint" />
            <Array as="points">
              <mxPoint x="160" y="-230" />
            </Array>
          </mxGeometry>
        </mxCell>
        <mxCell id="CcIX3b4XJO-R3UWU8Bb1-177" value="DataRetentionMechanism" style="rounded=1;whiteSpace=wrap;html=1;fillColor=#fff2cc;strokeColor=#d6b656;fontSize=15;fontStyle=2;shadow=0;fontFamily=Helvetica;" parent="1" vertex="1">
          <mxGeometry x="798.36" y="-5" width="183" height="40" as="geometry" />
        </mxCell>
        <mxCell id="CcIX3b4XJO-R3UWU8Bb1-182" value="" style="endArrow=block;html=1;endFill=0;fontSize=15;fontStyle=2;curved=1;shadow=0;fontFamily=Helvetica;" parent="1" source="CcIX3b4XJO-R3UWU8Bb1-177" target="CcIX3b4XJO-R3UWU8Bb1-2" edge="1">
          <mxGeometry width="50" height="50" relative="1" as="geometry">
            <mxPoint x="1141.4057647058821" y="-1273.96" as="sourcePoint" />
            <mxPoint x="1057.5342352941175" y="-1446.46" as="targetPoint" />
            <Array as="points">
              <mxPoint x="1000" y="-80" />
            </Array>
          </mxGeometry>
        </mxCell>
        <mxCell id="CcIX3b4XJO-R3UWU8Bb1-191" value="DataRetentionTime" style="rounded=1;whiteSpace=wrap;html=1;fillColor=#ffe6cc;strokeColor=#d79b00;fontSize=15;fontStyle=2;shadow=0;fontFamily=Helvetica;" parent="1" vertex="1">
          <mxGeometry x="553.08" y="800" width="145" height="40" as="geometry" />
        </mxCell>
        <mxCell id="CcIX3b4XJO-R3UWU8Bb1-192" value="" style="endArrow=block;html=1;endFill=0;fontSize=15;fontStyle=2;shadow=0;fontFamily=Helvetica;" parent="1" source="CcIX3b4XJO-R3UWU8Bb1-191" target="CcIX3b4XJO-R3UWU8Bb1-33" edge="1">
          <mxGeometry width="50" height="50" relative="1" as="geometry">
            <mxPoint x="1459.6428571428573" y="1389" as="sourcePoint" />
            <mxPoint x="1425.37" y="1430" as="targetPoint" />
          </mxGeometry>
        </mxCell>
        <mxCell id="CcIX3b4XJO-R3UWU8Bb1-194" value="" style="endArrow=block;html=1;endFill=0;fontSize=15;fontStyle=2;curved=1;shadow=0;fontFamily=Helvetica;" parent="1" source="CcIX3b4XJO-R3UWU8Bb1-21" target="CcIX3b4XJO-R3UWU8Bb1-147" edge="1">
          <mxGeometry width="50" height="50" relative="1" as="geometry">
            <mxPoint x="956.5000000000005" y="449" as="sourcePoint" />
            <mxPoint x="956.4999999999995" y="349" as="targetPoint" />
            <Array as="points">
              <mxPoint x="650" y="110" />
              <mxPoint x="520" y="-190" />
            </Array>
          </mxGeometry>
        </mxCell>
        <mxCell id="CcIX3b4XJO-R3UWU8Bb1-196" value="PolicyScopeChange" style="rounded=1;whiteSpace=wrap;html=1;fontSize=15;fontStyle=2;fillColor=#f0a30a;strokeColor=#BD7000;fontColor=#000000;shadow=0;fontFamily=Helvetica;strokeWidth=5;" parent="1" vertex="1">
          <mxGeometry x="16.75" y="860" width="150" height="40" as="geometry" />
        </mxCell>
        <mxCell id="CcIX3b4XJO-R3UWU8Bb1-197" value="" style="endArrow=classic;html=1;dashed=1;fontSize=15;fontStyle=2;curved=1;fillColor=#f0a30a;strokeColor=#BD7000;shadow=0;strokeWidth=2;fontFamily=Helvetica;" parent="1" source="CcIX3b4XJO-R3UWU8Bb1-5" target="CcIX3b4XJO-R3UWU8Bb1-196" edge="1">
          <mxGeometry width="50" height="50" relative="1" as="geometry">
            <mxPoint x="1269.7718018018015" y="541.38" as="sourcePoint" />
            <mxPoint x="1373.1681981981985" y="581.3000000000003" as="targetPoint" />
            <Array as="points">
              <mxPoint x="690" y="490" />
              <mxPoint x="470" y="760" />
            </Array>
          </mxGeometry>
        </mxCell>
        <mxCell id="CcIX3b4XJO-R3UWU8Bb1-199" value="" style="endArrow=classic;html=1;dashed=1;fontSize=15;fontStyle=2;curved=1;fillColor=#ffe6cc;strokeColor=#d79b00;shadow=0;strokeWidth=2;fontFamily=Helvetica;" parent="1" source="CcIX3b4XJO-R3UWU8Bb1-172" target="CcIX3b4XJO-R3UWU8Bb1-191" edge="1">
          <mxGeometry width="50" height="50" relative="1" as="geometry">
            <mxPoint x="609" y="610.0696671105193" as="sourcePoint" />
            <mxPoint x="450.9000116144016" y="561.1199999999999" as="targetPoint" />
            <Array as="points">
              <mxPoint x="680" y="140" />
              <mxPoint x="780" y="550" />
            </Array>
          </mxGeometry>
        </mxCell>
        <mxCell id="CcIX3b4XJO-R3UWU8Bb1-202" value="Purpose" style="rounded=1;whiteSpace=wrap;html=1;fillColor=#6a00ff;strokeColor=#3700CC;fontSize=15;fontStyle=3;fontColor=#ffffff;shadow=0;fontFamily=Helvetica;strokeWidth=5;" parent="1" vertex="1">
          <mxGeometry x="314.2499999999998" y="-389.5" width="76" height="40" as="geometry" />
        </mxCell>
        <mxCell id="CcIX3b4XJO-R3UWU8Bb1-203" value="" style="endArrow=block;html=1;endFill=0;fontSize=15;fontStyle=2;shadow=0;fontFamily=Helvetica;" parent="1" source="CcIX3b4XJO-R3UWU8Bb1-92" target="CcIX3b4XJO-R3UWU8Bb1-202" edge="1">
          <mxGeometry width="50" height="50" relative="1" as="geometry">
            <mxPoint x="553.4582608695652" y="-921.8" as="sourcePoint" />
            <mxPoint x="508.621739130435" y="-892.8" as="targetPoint" />
          </mxGeometry>
        </mxCell>
        <mxCell id="CcIX3b4XJO-R3UWU8Bb1-206" value="Consequence" style="rounded=1;whiteSpace=wrap;html=1;fillColor=#1ba1e2;strokeColor=#006EAF;fontSize=15;fontStyle=3;fontColor=#ffffff;shadow=0;strokeWidth=5;fontFamily=Helvetica;" parent="1" vertex="1">
          <mxGeometry x="773.9500000000002" y="605.5" width="115.69" height="40" as="geometry" />
        </mxCell>
        <mxCell id="CcIX3b4XJO-R3UWU8Bb1-207" value="" style="endArrow=block;html=1;endFill=0;fontSize=15;fontStyle=2;shadow=0;curved=1;fontFamily=Helvetica;" parent="1" source="CcIX3b4XJO-R3UWU8Bb1-26" target="CcIX3b4XJO-R3UWU8Bb1-206" edge="1">
          <mxGeometry width="50" height="50" relative="1" as="geometry">
            <mxPoint x="1688.808260869565" y="1058.72" as="sourcePoint" />
            <mxPoint x="1643.9717391304348" y="1087.72" as="targetPoint" />
          </mxGeometry>
        </mxCell>
        <mxCell id="CcIX3b4XJO-R3UWU8Bb1-208" value="Basis" style="rounded=1;whiteSpace=wrap;html=1;fillColor=#fa6800;strokeColor=#C73500;fontSize=15;fontStyle=3;fontColor=#000000;shadow=0;fontFamily=Helvetica;strokeWidth=5;" parent="1" vertex="1">
          <mxGeometry x="-244.48999999999998" y="-424.75" width="54" height="40" as="geometry" />
        </mxCell>
        <mxCell id="CcIX3b4XJO-R3UWU8Bb1-209" value="" style="endArrow=block;html=1;endFill=0;fontSize=15;fontStyle=2;shadow=0;fontFamily=Helvetica;" parent="1" source="CcIX3b4XJO-R3UWU8Bb1-87" target="CcIX3b4XJO-R3UWU8Bb1-208" edge="1">
          <mxGeometry width="50" height="50" relative="1" as="geometry">
            <mxPoint x="1123.45" y="-975.7600000000001" as="sourcePoint" />
            <mxPoint x="1083.64" y="-975.7600000000001" as="targetPoint" />
          </mxGeometry>
        </mxCell>
        <mxCell id="pIO2bBWsaHQuIE4qCJqX-3" value="ProvidedDataControl" style="rounded=1;whiteSpace=wrap;html=1;fillColor=#e1d5e7;strokeColor=#9673a6;fontSize=15;fontStyle=2;shadow=0;fontFamily=Helvetica;" parent="1" vertex="1">
          <mxGeometry x="457.41" y="432.29" width="150.19" height="40" as="geometry" />
        </mxCell>
        <mxCell id="pIO2bBWsaHQuIE4qCJqX-4" value="OptInOptOutControl" style="rounded=1;whiteSpace=wrap;html=1;fillColor=#e1d5e7;strokeColor=#9673a6;fontSize=15;fontStyle=2;shadow=0;fontFamily=Helvetica;" parent="1" vertex="1">
          <mxGeometry x="445.78999999999996" y="540" width="107.29" height="40" as="geometry" />
        </mxCell>
        <mxCell id="pIO2bBWsaHQuIE4qCJqX-5" value="DataControlMechanism" style="rounded=1;whiteSpace=wrap;html=1;fillColor=#fff2cc;strokeColor=#d6b656;fontSize=15;fontStyle=2;shadow=0;fontFamily=Helvetica;" parent="1" vertex="1">
          <mxGeometry x="882.6800000000001" y="146" width="172.31" height="40" as="geometry" />
        </mxCell>
        <mxCell id="pIO2bBWsaHQuIE4qCJqX-7" value="" style="endArrow=block;html=1;endFill=0;fontSize=15;fontStyle=2;curved=1;shadow=0;fontFamily=Helvetica;" parent="1" source="pIO2bBWsaHQuIE4qCJqX-3" target="CcIX3b4XJO-R3UWU8Bb1-12" edge="1">
          <mxGeometry width="50" height="50" relative="1" as="geometry">
            <mxPoint x="785.5588235294117" y="613.01" as="sourcePoint" />
            <mxPoint x="753.4411764705883" y="585.01" as="targetPoint" />
            <Array as="points">
              <mxPoint x="720" y="360" />
            </Array>
          </mxGeometry>
        </mxCell>
        <mxCell id="pIO2bBWsaHQuIE4qCJqX-8" value="" style="endArrow=block;html=1;endFill=0;fontSize=15;fontStyle=2;curved=1;shadow=0;fontFamily=Helvetica;" parent="1" source="pIO2bBWsaHQuIE4qCJqX-4" target="CcIX3b4XJO-R3UWU8Bb1-12" edge="1">
          <mxGeometry width="50" height="50" relative="1" as="geometry">
            <mxPoint x="962.8569414483823" y="582.8899999999999" as="sourcePoint" />
            <mxPoint x="920.738058551618" y="545.01" as="targetPoint" />
            <Array as="points">
              <mxPoint x="760" y="400" />
            </Array>
          </mxGeometry>
        </mxCell>
        <mxCell id="y-dyS5vIyWXZ1245UoUS-1" value="&lt;div style=&quot;font-size: 15px;&quot;&gt;PersonalData&lt;/div&gt;" style="rounded=1;whiteSpace=wrap;html=1;fillColor=#f5f5f5;fontColor=#333333;strokeColor=#666666;fontSize=15;fontStyle=2;shadow=0;fontFamily=Helvetica;" parent="1" vertex="1">
          <mxGeometry x="-380" y="910" width="150" height="40" as="geometry" />
        </mxCell>
        <mxCell id="y-dyS5vIyWXZ1245UoUS-2" value="" style="endArrow=block;html=1;endFill=0;fontSize=15;fontStyle=2;shadow=0;curved=1;fontFamily=Helvetica;" parent="1" source="y-dyS5vIyWXZ1245UoUS-1" target="CcIX3b4XJO-R3UWU8Bb1-60" edge="1">
          <mxGeometry width="50" height="50" relative="1" as="geometry">
            <mxPoint x="90.392511569205" y="1729.81" as="sourcePoint" />
            <mxPoint x="45.607488430795" y="1761.12" as="targetPoint" />
            <Array as="points">
              <mxPoint x="-200" y="920" />
            </Array>
          </mxGeometry>
        </mxCell>
        <mxCell id="guy27e7aqNY7_RG8qsA0-3" value="OptControl" style="rounded=1;whiteSpace=wrap;html=1;fillColor=#e1d5e7;strokeColor=#9673a6;fontSize=15;fontStyle=2;shadow=0;fontFamily=Helvetica;" parent="1" vertex="1">
          <mxGeometry x="396.71000000000004" y="630" width="90" height="40" as="geometry" />
        </mxCell>
        <mxCell id="guy27e7aqNY7_RG8qsA0-4" value="" style="endArrow=block;html=1;endFill=0;fontSize=15;fontStyle=2;curved=1;shadow=0;fontFamily=Helvetica;" parent="1" source="guy27e7aqNY7_RG8qsA0-3" target="CcIX3b4XJO-R3UWU8Bb1-12" edge="1">
          <mxGeometry width="50" height="50" relative="1" as="geometry">
            <mxPoint x="913" y="626.01" as="sourcePoint" />
            <mxPoint x="885.59900990099" y="545.01" as="targetPoint" />
            <Array as="points">
              <mxPoint x="780" y="520" />
            </Array>
          </mxGeometry>
        </mxCell>
        <mxCell id="SCjSau2hbUJthauaJq3d-1" value="FirstParty" style="rounded=1;whiteSpace=wrap;html=1;fillColor=#dae8fc;strokeColor=#6c8ebf;fontSize=15;fontStyle=2;shadow=0;fontFamily=Helvetica;" parent="1" vertex="1">
          <mxGeometry x="-358" y="-137" width="78" height="40" as="geometry" />
        </mxCell>
        <mxCell id="SCjSau2hbUJthauaJq3d-4" value="&lt;div&gt;UserChoice&lt;/div&gt;&lt;div&gt;Consequence&lt;/div&gt;" style="rounded=1;whiteSpace=wrap;html=1;fillColor=#1ba1e2;strokeColor=#006EAF;fontSize=15;fontStyle=2;fontColor=#ffffff;shadow=0;fontFamily=Helvetica;" parent="1" vertex="1">
          <mxGeometry x="976.9300000000001" y="608" width="107.5" height="40" as="geometry" />
        </mxCell>
        <mxCell id="SCjSau2hbUJthauaJq3d-6" value="" style="endArrow=block;html=1;endFill=0;fontSize=15;fontStyle=2;shadow=0;fontFamily=Helvetica;" parent="1" source="SCjSau2hbUJthauaJq3d-4" target="CcIX3b4XJO-R3UWU8Bb1-206" edge="1">
          <mxGeometry width="50" height="50" relative="1" as="geometry">
            <mxPoint x="1358.7013427561837" y="1175.35" as="sourcePoint" />
            <mxPoint x="1359.4186572438166" y="1073.85" as="targetPoint" />
          </mxGeometry>
        </mxCell>
        <mxCell id="SCjSau2hbUJthauaJq3d-7" value="" style="endArrow=classic;html=1;dashed=1;fontSize=15;fontStyle=2;shadow=0;fillColor=#1ba1e2;strokeColor=#006EAF;strokeWidth=2;fontFamily=Helvetica;curved=1;" parent="1" source="CcIX3b4XJO-R3UWU8Bb1-12" target="SCjSau2hbUJthauaJq3d-4" edge="1">
          <mxGeometry width="50" height="50" relative="1" as="geometry">
            <mxPoint x="1176.5" y="356.7902149740553" as="sourcePoint" />
            <mxPoint x="1387" y="381.7568569310606" as="targetPoint" />
            <Array as="points">
              <mxPoint x="1010" y="270" />
            </Array>
          </mxGeometry>
        </mxCell>
        <mxCell id="SCjSau2hbUJthauaJq3d-9" value="ServiceFullRestriction" style="rounded=1;whiteSpace=wrap;html=1;fillColor=#1ba1e2;strokeColor=#006EAF;fontSize=15;fontStyle=2;fontColor=#ffffff;shadow=0;fontFamily=Helvetica;" parent="1" vertex="1">
          <mxGeometry x="1142.19" y="730" width="163.5" height="40" as="geometry" />
        </mxCell>
        <mxCell id="SCjSau2hbUJthauaJq3d-10" value="ServicePartialRestriction" style="rounded=1;whiteSpace=wrap;html=1;fillColor=#1ba1e2;strokeColor=#006EAF;fontSize=15;fontStyle=2;fontColor=#ffffff;shadow=0;fontFamily=Helvetica;" parent="1" vertex="1">
          <mxGeometry x="1145.26" y="620" width="182" height="40" as="geometry" />
        </mxCell>
        <mxCell id="SCjSau2hbUJthauaJq3d-12" value="" style="endArrow=block;html=1;endFill=0;fontSize=15;fontStyle=2;shadow=0;fontFamily=Helvetica;" parent="1" source="4GEwqGWDiLAYL1l5WSFT-29" target="SCjSau2hbUJthauaJq3d-4" edge="1">
          <mxGeometry width="50" height="50" relative="1" as="geometry">
            <mxPoint x="2153.31" y="1249.40089093702" as="sourcePoint" />
            <mxPoint x="2087.81" y="1230.3525652841786" as="targetPoint" />
          </mxGeometry>
        </mxCell>
        <mxCell id="tiL98PConF093X4OqBO3-3" value="" style="endArrow=classic;html=1;dashed=1;fontSize=15;fontStyle=2;curved=1;fillColor=#008a00;strokeColor=#005700;shadow=0;strokeWidth=2;fontFamily=Helvetica;" parent="1" source="CcIX3b4XJO-R3UWU8Bb1-5" target="tiL98PConF093X4OqBO3-5" edge="1">
          <mxGeometry width="50" height="50" relative="1" as="geometry">
            <mxPoint x="1299.5517498138497" y="444.05999999999995" as="sourcePoint" />
            <mxPoint x="1404.2582501861502" y="511.5" as="targetPoint" />
            <Array as="points" />
          </mxGeometry>
        </mxCell>
        <mxCell id="tiL98PConF093X4OqBO3-1" value="" style="endArrow=classic;html=1;dashed=1;fontSize=15;fontStyle=2;curved=1;fillColor=#1ba1e2;strokeColor=#006EAF;shadow=0;strokeWidth=2;fontFamily=Helvetica;" parent="1" source="CcIX3b4XJO-R3UWU8Bb1-5" target="tiL98PConF093X4OqBO3-7" edge="1">
          <mxGeometry width="50" height="50" relative="1" as="geometry">
            <mxPoint x="1268.5" y="444.05999999999995" as="sourcePoint" />
            <mxPoint x="1268.5" y="487.94000000000005" as="targetPoint" />
            <Array as="points">
              <mxPoint x="760" y="480" />
            </Array>
          </mxGeometry>
        </mxCell>
        <mxCell id="tiL98PConF093X4OqBO3-5" value="&lt;div&gt;PolicyChange&lt;/div&gt;&lt;div&gt;Cause&lt;/div&gt;" style="rounded=1;whiteSpace=wrap;html=1;fillColor=#008a00;strokeColor=#005700;fontSize=15;fontStyle=2;fontColor=#ffffff;shadow=0;fontFamily=Helvetica;" parent="1" vertex="1">
          <mxGeometry x="1061.57" y="531" width="107.75" height="40" as="geometry" />
        </mxCell>
        <mxCell id="tiL98PConF093X4OqBO3-6" value="" style="endArrow=block;html=1;endFill=0;fontSize=15;fontStyle=2;curved=1;shadow=0;fontFamily=Helvetica;" parent="1" source="tiL98PConF093X4OqBO3-5" target="CcIX3b4XJO-R3UWU8Bb1-28" edge="1">
          <mxGeometry width="50" height="50" relative="1" as="geometry">
            <mxPoint x="2195.83" y="666.25" as="sourcePoint" />
            <mxPoint x="1495.06" y="346.35131941709324" as="targetPoint" />
          </mxGeometry>
        </mxCell>
        <mxCell id="tiL98PConF093X4OqBO3-7" value="&lt;div&gt;PolicyChange&lt;/div&gt;&lt;div&gt;Consequence&lt;/div&gt;" style="rounded=1;whiteSpace=wrap;html=1;fillColor=#1ba1e2;strokeColor=#006EAF;fontSize=15;fontStyle=2;fontColor=#ffffff;shadow=0;fontFamily=Helvetica;" parent="1" vertex="1">
          <mxGeometry x="698.08" y="720" width="118.75" height="40" as="geometry" />
        </mxCell>
        <mxCell id="tiL98PConF093X4OqBO3-8" value="" style="endArrow=block;html=1;endFill=0;fontSize=15;fontStyle=2;shadow=0;curved=1;fontFamily=Helvetica;" parent="1" source="tiL98PConF093X4OqBO3-7" target="CcIX3b4XJO-R3UWU8Bb1-206" edge="1">
          <mxGeometry width="50" height="50" relative="1" as="geometry">
            <mxPoint x="1707.82182320442" y="1557.85" as="sourcePoint" />
            <mxPoint x="1649.9281767955804" y="1507.35" as="targetPoint" />
          </mxGeometry>
        </mxCell>
        <mxCell id="Q3jrx0tUXMYG4oBIeWaG-2" value="ForceMajeur" style="rounded=1;whiteSpace=wrap;html=1;fillColor=#008a00;strokeColor=#005700;fontSize=15;fontStyle=2;fontColor=#ffffff;shadow=0;fontFamily=Helvetica;" parent="1" vertex="1">
          <mxGeometry x="1018.59" y="220.5" width="95" height="40" as="geometry" />
        </mxCell>
        <mxCell id="Q3jrx0tUXMYG4oBIeWaG-3" value="NoServiceRestriction" style="rounded=1;whiteSpace=wrap;html=1;fillColor=#1ba1e2;strokeColor=#006EAF;fontSize=15;fontStyle=2;fontColor=#ffffff;shadow=0;fontFamily=Helvetica;" parent="1" vertex="1">
          <mxGeometry x="1193.45" y="680" width="155.5" height="40" as="geometry" />
        </mxCell>
        <mxCell id="Q3jrx0tUXMYG4oBIeWaG-6" value="" style="endArrow=classic;html=1;dashed=1;fontSize=15;fontStyle=2;curved=1;fillColor=#ffe6cc;strokeColor=#d79b00;shadow=0;strokeWidth=2;fontFamily=Helvetica;" parent="1" source="CcIX3b4XJO-R3UWU8Bb1-5" target="Q3jrx0tUXMYG4oBIeWaG-8" edge="1">
          <mxGeometry width="50" height="50" relative="1" as="geometry">
            <mxPoint x="1692.8303886925796" y="435.25" as="sourcePoint" />
            <mxPoint x="358" y="890" as="targetPoint" />
            <Array as="points">
              <mxPoint x="700" y="460" />
              <mxPoint x="600" y="710" />
            </Array>
          </mxGeometry>
        </mxCell>
        <mxCell id="Q3jrx0tUXMYG4oBIeWaG-8" value="PolicyAcceptanceTime" style="rounded=1;whiteSpace=wrap;html=1;fillColor=#ffe6cc;strokeColor=#d79b00;fontSize=15;fontStyle=2;shadow=0;fontFamily=Helvetica;" parent="1" vertex="1">
          <mxGeometry x="214.04000000000002" y="860" width="160" height="40" as="geometry" />
        </mxCell>
        <mxCell id="Q3jrx0tUXMYG4oBIeWaG-9" value="" style="endArrow=block;html=1;endFill=0;fontSize=15;fontStyle=2;shadow=0;fontFamily=Helvetica;" parent="1" source="Q3jrx0tUXMYG4oBIeWaG-8" target="CcIX3b4XJO-R3UWU8Bb1-33" edge="1">
          <mxGeometry width="50" height="50" relative="1" as="geometry">
            <mxPoint x="1396.37" y="1448" as="sourcePoint" />
            <mxPoint x="1294.37" y="1343" as="targetPoint" />
          </mxGeometry>
        </mxCell>
        <mxCell id="Q3jrx0tUXMYG4oBIeWaG-11" value="PrivacyRelated" style="rounded=1;whiteSpace=wrap;html=1;fillColor=#008a00;strokeColor=#005700;fontSize=15;fontStyle=2;fontColor=#ffffff;shadow=0;fontFamily=Helvetica;" parent="1" vertex="1">
          <mxGeometry x="1228.85" y="495.5" width="108.5" height="40" as="geometry" />
        </mxCell>
        <mxCell id="Q3jrx0tUXMYG4oBIeWaG-12" value="NonPrivacyRelated" style="rounded=1;whiteSpace=wrap;html=1;fillColor=#008a00;strokeColor=#005700;fontSize=15;fontStyle=2;fontColor=#ffffff;shadow=0;fontFamily=Helvetica;" parent="1" vertex="1">
          <mxGeometry x="1214.79" y="445.5" width="143.5" height="40" as="geometry" />
        </mxCell>
        <mxCell id="Q3jrx0tUXMYG4oBIeWaG-14" value="MergeAcquisition" style="rounded=1;whiteSpace=wrap;html=1;fillColor=#008a00;strokeColor=#005700;fontSize=15;fontStyle=2;fontColor=#ffffff;shadow=0;fontFamily=Helvetica;" parent="1" vertex="1">
          <mxGeometry x="1219.79" y="395.5" width="133.5" height="40" as="geometry" />
        </mxCell>
        <mxCell id="Q3jrx0tUXMYG4oBIeWaG-15" value="" style="endArrow=block;html=1;endFill=0;fontSize=15;fontStyle=2;shadow=0;fontFamily=Helvetica;" parent="1" source="4GEwqGWDiLAYL1l5WSFT-27" target="tiL98PConF093X4OqBO3-5" edge="1">
          <mxGeometry width="50" height="50" relative="1" as="geometry">
            <mxPoint x="2108.83" y="684.25" as="sourcePoint" />
            <mxPoint x="2030.5600000000004" y="684.25" as="targetPoint" />
          </mxGeometry>
        </mxCell>
        <mxCell id="4Ul_LHpnBtSVW_RfF9cD-1" value="Data" style="rounded=1;whiteSpace=wrap;html=1;fillColor=#f5f5f5;fontColor=#333333;strokeColor=#FF0080;fontSize=15;fontStyle=3;shadow=0;strokeWidth=5;fontFamily=Helvetica;" parent="1" vertex="1">
          <mxGeometry x="-264.12" y="750" width="62" height="40" as="geometry" />
        </mxCell>
        <mxCell id="4Ul_LHpnBtSVW_RfF9cD-3" value="" style="endArrow=classic;html=1;dashed=1;fontSize=15;fontStyle=2;fillColor=#dae8fc;strokeColor=#6c8ebf;shadow=0;strokeWidth=5;curved=1;fontFamily=Helvetica;" parent="1" source="CcIX3b4XJO-R3UWU8Bb1-51" target="4Ul_LHpnBtSVW_RfF9cD-1" edge="1">
          <mxGeometry width="50" height="50" relative="1" as="geometry">
            <mxPoint x="-373" y="-139" as="sourcePoint" />
            <mxPoint x="-436" y="-92" as="targetPoint" />
            <Array as="points" />
          </mxGeometry>
        </mxCell>
        <mxCell id="4Ul_LHpnBtSVW_RfF9cD-5" value="" style="endArrow=classic;html=1;dashed=1;fontSize=15;fontStyle=2;fillColor=#dae8fc;strokeColor=#6c8ebf;shadow=0;strokeWidth=2;fontFamily=Helvetica;curved=1;" parent="1" source="4GEwqGWDiLAYL1l5WSFT-10" target="CcIX3b4XJO-R3UWU8Bb1-51" edge="1">
          <mxGeometry width="50" height="50" relative="1" as="geometry">
            <mxPoint x="525.2124624624621" y="274.99999999999955" as="sourcePoint" />
            <mxPoint x="-168" y="-186" as="targetPoint" />
          </mxGeometry>
        </mxCell>
        <mxCell id="4Ul_LHpnBtSVW_RfF9cD-7" value="" style="endArrow=classic;html=1;dashed=1;fontSize=15;fontStyle=2;fillColor=#e1d5e7;strokeColor=#9673a6;shadow=0;strokeWidth=2;fontFamily=Helvetica;curved=1;" parent="1" source="SCjSau2hbUJthauaJq3d-1" target="4GEwqGWDiLAYL1l5WSFT-10" edge="1">
          <mxGeometry width="50" height="50" relative="1" as="geometry">
            <mxPoint x="-95" y="-223" as="sourcePoint" />
            <mxPoint x="534.8064516129034" y="234.99999999999955" as="targetPoint" />
            <Array as="points">
              <mxPoint x="140" y="10" />
            </Array>
          </mxGeometry>
        </mxCell>
        <mxCell id="4Ul_LHpnBtSVW_RfF9cD-9" value="" style="endArrow=classic;html=1;dashed=1;fontSize=15;fontStyle=2;fillColor=#e1d5e7;strokeColor=#9673a6;shadow=0;strokeWidth=2;fontFamily=Helvetica;" parent="1" source="CcIX3b4XJO-R3UWU8Bb1-51" target="pIO2bBWsaHQuIE4qCJqX-3" edge="1">
          <mxGeometry width="50" height="50" relative="1" as="geometry">
            <mxPoint x="-85" y="-213" as="sourcePoint" />
            <mxPoint x="-148" y="-166" as="targetPoint" />
          </mxGeometry>
        </mxCell>
        <mxCell id="4Ul_LHpnBtSVW_RfF9cD-11" value="" style="endArrow=classic;html=1;dashed=1;fontSize=15;fontStyle=2;fillColor=#dae8fc;strokeColor=#6c8ebf;shadow=0;strokeWidth=2;fontFamily=Helvetica;curved=1;" parent="1" source="CcIX3b4XJO-R3UWU8Bb1-169" target="CcIX3b4XJO-R3UWU8Bb1-53" edge="1">
          <mxGeometry width="50" height="50" relative="1" as="geometry">
            <mxPoint x="-75" y="-203" as="sourcePoint" />
            <mxPoint x="-138" y="-156" as="targetPoint" />
            <Array as="points">
              <mxPoint x="30" y="20" />
            </Array>
          </mxGeometry>
        </mxCell>
        <mxCell id="4Ul_LHpnBtSVW_RfF9cD-13" value="" style="endArrow=classic;html=1;dashed=1;fontSize=15;fontStyle=2;fillColor=#e1d5e7;strokeColor=#9673a6;shadow=0;strokeWidth=2;fontFamily=Helvetica;" parent="1" source="CcIX3b4XJO-R3UWU8Bb1-52" target="CcIX3b4XJO-R3UWU8Bb1-21" edge="1">
          <mxGeometry width="50" height="50" relative="1" as="geometry">
            <mxPoint x="-65" y="-193" as="sourcePoint" />
            <mxPoint x="-128" y="-146" as="targetPoint" />
          </mxGeometry>
        </mxCell>
        <mxCell id="4Ul_LHpnBtSVW_RfF9cD-15" value="" style="endArrow=classic;html=1;dashed=1;fontSize=15;fontStyle=2;fillColor=#e1d5e7;strokeColor=#9673a6;shadow=0;strokeWidth=2;fontFamily=Helvetica;" parent="1" source="SCjSau2hbUJthauaJq3d-1" target="CcIX3b4XJO-R3UWU8Bb1-172" edge="1">
          <mxGeometry width="50" height="50" relative="1" as="geometry">
            <mxPoint x="-55" y="-183" as="sourcePoint" />
            <mxPoint x="-118" y="-136" as="targetPoint" />
          </mxGeometry>
        </mxCell>
        <mxCell id="4Ul_LHpnBtSVW_RfF9cD-17" value="" style="endArrow=classic;html=1;dashed=1;fontSize=15;fontStyle=2;fillColor=#e1d5e7;strokeColor=#9673a6;shadow=0;strokeWidth=2;fontFamily=Helvetica;" parent="1" source="SCjSau2hbUJthauaJq3d-1" target="CcIX3b4XJO-R3UWU8Bb1-171" edge="1">
          <mxGeometry width="50" height="50" relative="1" as="geometry">
            <mxPoint x="-45" y="-173" as="sourcePoint" />
            <mxPoint x="-108" y="-126" as="targetPoint" />
          </mxGeometry>
        </mxCell>
        <mxCell id="4Ul_LHpnBtSVW_RfF9cD-19" value="" style="endArrow=classic;html=1;dashed=1;fontSize=15;fontStyle=2;fillColor=#e1d5e7;strokeColor=#9673a6;shadow=0;strokeWidth=2;fontFamily=Helvetica;curved=1;" parent="1" source="SCjSau2hbUJthauaJq3d-1" target="CcIX3b4XJO-R3UWU8Bb1-169" edge="1">
          <mxGeometry width="50" height="50" relative="1" as="geometry">
            <mxPoint x="-35" y="-163" as="sourcePoint" />
            <mxPoint x="-98" y="-116" as="targetPoint" />
            <Array as="points">
              <mxPoint x="40" y="-70" />
            </Array>
          </mxGeometry>
        </mxCell>
        <mxCell id="4Ul_LHpnBtSVW_RfF9cD-21" value="" style="endArrow=classic;html=1;dashed=1;fontSize=15;fontStyle=2;fillColor=#e1d5e7;strokeColor=#9673a6;shadow=0;strokeWidth=2;fontFamily=Helvetica;" parent="1" source="SCjSau2hbUJthauaJq3d-1" target="CcIX3b4XJO-R3UWU8Bb1-173" edge="1">
          <mxGeometry width="50" height="50" relative="1" as="geometry">
            <mxPoint x="-25" y="-153" as="sourcePoint" />
            <mxPoint x="-88" y="-106" as="targetPoint" />
          </mxGeometry>
        </mxCell>
        <mxCell id="4Ul_LHpnBtSVW_RfF9cD-23" value="" style="endArrow=classic;html=1;dashed=1;fontSize=15;fontStyle=2;fillColor=#dae8fc;strokeColor=#6c8ebf;shadow=0;strokeWidth=2;fontFamily=Helvetica;" parent="1" source="CcIX3b4XJO-R3UWU8Bb1-5" target="CcIX3b4XJO-R3UWU8Bb1-51" edge="1">
          <mxGeometry width="50" height="50" relative="1" as="geometry">
            <mxPoint x="-15" y="-143" as="sourcePoint" />
            <mxPoint x="-92" y="611" as="targetPoint" />
          </mxGeometry>
        </mxCell>
        <mxCell id="4Ul_LHpnBtSVW_RfF9cD-25" value="" style="endArrow=classic;html=1;dashed=1;fontSize=15;fontStyle=2;fillColor=#e1d5e7;strokeColor=#9673a6;shadow=0;strokeWidth=2;fontFamily=Helvetica;" parent="1" source="SCjSau2hbUJthauaJq3d-1" target="CcIX3b4XJO-R3UWU8Bb1-5" edge="1">
          <mxGeometry width="50" height="50" relative="1" as="geometry">
            <mxPoint x="-5" y="-133" as="sourcePoint" />
            <mxPoint x="-68" y="-86" as="targetPoint" />
          </mxGeometry>
        </mxCell>
        <mxCell id="4Ul_LHpnBtSVW_RfF9cD-28" value="" style="endArrow=classic;html=1;dashed=1;fontSize=15;fontStyle=2;fillColor=#e1d5e7;strokeColor=#9673a6;shadow=0;strokeWidth=2;fontFamily=Helvetica;" parent="1" source="CcIX3b4XJO-R3UWU8Bb1-51" target="pIO2bBWsaHQuIE4qCJqX-4" edge="1">
          <mxGeometry width="50" height="50" relative="1" as="geometry">
            <mxPoint x="-75" y="-203" as="sourcePoint" />
            <mxPoint x="-138" y="-156" as="targetPoint" />
          </mxGeometry>
        </mxCell>
        <mxCell id="4Ul_LHpnBtSVW_RfF9cD-29" value="" style="endArrow=classic;html=1;dashed=1;fontSize=15;fontStyle=2;fillColor=#e1d5e7;strokeColor=#9673a6;shadow=0;strokeWidth=2;fontFamily=Helvetica;" parent="1" source="CcIX3b4XJO-R3UWU8Bb1-51" target="guy27e7aqNY7_RG8qsA0-3" edge="1">
          <mxGeometry width="50" height="50" relative="1" as="geometry">
            <mxPoint x="-65" y="-193" as="sourcePoint" />
            <mxPoint x="-128" y="-146" as="targetPoint" />
          </mxGeometry>
        </mxCell>
        <mxCell id="4Ul_LHpnBtSVW_RfF9cD-30" value="" style="endArrow=classic;html=1;dashed=1;fontSize=15;fontStyle=2;fillColor=#e1d5e7;strokeColor=#9673a6;shadow=0;strokeWidth=2;fontFamily=Helvetica;" parent="1" source="CcIX3b4XJO-R3UWU8Bb1-51" target="CcIX3b4XJO-R3UWU8Bb1-156" edge="1">
          <mxGeometry width="50" height="50" relative="1" as="geometry">
            <mxPoint x="-55" y="-183" as="sourcePoint" />
            <mxPoint x="-118" y="-136" as="targetPoint" />
          </mxGeometry>
        </mxCell>
        <mxCell id="4Ul_LHpnBtSVW_RfF9cD-31" value="" style="endArrow=classic;html=1;dashed=1;fontSize=15;fontStyle=2;fillColor=#e1d5e7;strokeColor=#9673a6;shadow=0;strokeWidth=2;fontFamily=Helvetica;" parent="1" source="CcIX3b4XJO-R3UWU8Bb1-51" target="CcIX3b4XJO-R3UWU8Bb1-155" edge="1">
          <mxGeometry width="50" height="50" relative="1" as="geometry">
            <mxPoint x="-39" y="-173" as="sourcePoint" />
            <mxPoint x="-108" y="-126" as="targetPoint" />
          </mxGeometry>
        </mxCell>
        <mxCell id="CcIX3b4XJO-R3UWU8Bb1-172" value="DataRetention" style="rounded=1;whiteSpace=wrap;html=1;fillColor=#e1d5e7;strokeColor=#9673a6;fontSize=15;fontStyle=2;shadow=0;fontFamily=Helvetica;" parent="1" vertex="1">
          <mxGeometry x="430" y="33.5" width="107" height="40" as="geometry" />
        </mxCell>
        <mxCell id="4Ul_LHpnBtSVW_RfF9cD-48" value="" style="endArrow=classic;html=1;dashed=1;fontSize=15;fontStyle=2;curved=1;fillColor=#d80073;strokeColor=#FF0080;shadow=0;strokeWidth=5;fontFamily=Helvetica;" parent="1" source="CcIX3b4XJO-R3UWU8Bb1-1" target="CcIX3b4XJO-R3UWU8Bb1-3" edge="1">
          <mxGeometry width="50" height="50" relative="1" as="geometry">
            <mxPoint x="-441" y="-130" as="sourcePoint" />
            <mxPoint x="138" y="-186" as="targetPoint" />
            <Array as="points">
              <mxPoint x="-210" y="-340" />
            </Array>
          </mxGeometry>
        </mxCell>
        <mxCell id="4Ul_LHpnBtSVW_RfF9cD-49" value="" style="endArrow=classic;html=1;dashed=1;fontSize=15;fontStyle=2;curved=1;fillColor=#d80073;strokeColor=#FF0080;shadow=0;strokeWidth=5;fontFamily=Helvetica;" parent="1" source="CcIX3b4XJO-R3UWU8Bb1-1" target="CcIX3b4XJO-R3UWU8Bb1-4" edge="1">
          <mxGeometry width="50" height="50" relative="1" as="geometry">
            <mxPoint x="-1505" y="-902" as="sourcePoint" />
            <mxPoint x="924" y="-666" as="targetPoint" />
            <Array as="points">
              <mxPoint x="-540" y="-50" />
            </Array>
          </mxGeometry>
        </mxCell>
        <mxCell id="4Ul_LHpnBtSVW_RfF9cD-50" value="" style="endArrow=classic;html=1;dashed=1;fontSize=15;fontStyle=2;curved=1;fillColor=#d80073;strokeColor=#FF0080;shadow=0;strokeWidth=5;fontFamily=Helvetica;" parent="1" source="CcIX3b4XJO-R3UWU8Bb1-1" target="4Ul_LHpnBtSVW_RfF9cD-1" edge="1">
          <mxGeometry width="50" height="50" relative="1" as="geometry">
            <mxPoint x="-1576" y="-891" as="sourcePoint" />
            <mxPoint x="-899" y="-167" as="targetPoint" />
            <Array as="points">
              <mxPoint x="-630" y="-40" />
              <mxPoint x="-580" y="560" />
            </Array>
          </mxGeometry>
        </mxCell>
        <mxCell id="4Ul_LHpnBtSVW_RfF9cD-51" value="" style="endArrow=block;html=1;fontSize=15;fontStyle=2;curved=1;endFill=0;shadow=0;fontFamily=Helvetica;" parent="1" source="CcIX3b4XJO-R3UWU8Bb1-52" target="CcIX3b4XJO-R3UWU8Bb1-4" edge="1">
          <mxGeometry width="50" height="50" relative="1" as="geometry">
            <mxPoint x="-899" y="-167" as="sourcePoint" />
            <mxPoint x="-1576" y="-891" as="targetPoint" />
            <Array as="points">
              <mxPoint x="-450" y="290" />
            </Array>
          </mxGeometry>
        </mxCell>
        <mxCell id="4Ul_LHpnBtSVW_RfF9cD-52" value="" style="endArrow=block;html=1;fontSize=15;fontStyle=2;endFill=0;curved=1;shadow=0;fontFamily=Helvetica;" parent="1" source="CcIX3b4XJO-R3UWU8Bb1-53" target="CcIX3b4XJO-R3UWU8Bb1-4" edge="1">
          <mxGeometry width="50" height="50" relative="1" as="geometry">
            <mxPoint x="-351" y="-247" as="sourcePoint" />
            <mxPoint x="-840" y="-155" as="targetPoint" />
            <Array as="points">
              <mxPoint x="-430" y="130" />
            </Array>
          </mxGeometry>
        </mxCell>
        <mxCell id="4Ul_LHpnBtSVW_RfF9cD-53" value="" style="endArrow=block;html=1;fontSize=15;fontStyle=2;curved=1;endFill=0;shadow=0;fontFamily=Helvetica;" parent="1" source="SCjSau2hbUJthauaJq3d-1" target="CcIX3b4XJO-R3UWU8Bb1-4" edge="1">
          <mxGeometry width="50" height="50" relative="1" as="geometry">
            <mxPoint x="-591" y="-128" as="sourcePoint" />
            <mxPoint x="-840" y="-144" as="targetPoint" />
            <Array as="points">
              <mxPoint x="-460" y="-20" />
            </Array>
          </mxGeometry>
        </mxCell>
        <mxCell id="4Ul_LHpnBtSVW_RfF9cD-54" value="" style="endArrow=block;html=1;fontSize=15;fontStyle=2;curved=1;endFill=0;shadow=0;fontFamily=Helvetica;" parent="1" source="CcIX3b4XJO-R3UWU8Bb1-51" target="CcIX3b4XJO-R3UWU8Bb1-4" edge="1">
          <mxGeometry width="50" height="50" relative="1" as="geometry">
            <mxPoint x="-724" y="96" as="sourcePoint" />
            <mxPoint x="-867" y="-127" as="targetPoint" />
            <Array as="points">
              <mxPoint x="-490" y="450" />
            </Array>
          </mxGeometry>
        </mxCell>
        <mxCell id="4Ul_LHpnBtSVW_RfF9cD-76" value="" style="endArrow=classic;html=1;dashed=1;fontSize=15;fontStyle=2;fillColor=#f5f5f5;strokeColor=#666666;shadow=0;strokeWidth=2;fontFamily=Helvetica;" parent="1" source="CcIX3b4XJO-R3UWU8Bb1-172" target="4Ul_LHpnBtSVW_RfF9cD-1" edge="1">
          <mxGeometry width="50" height="50" relative="1" as="geometry">
            <mxPoint x="512" y="280" as="sourcePoint" />
            <mxPoint x="-471" y="618" as="targetPoint" />
          </mxGeometry>
        </mxCell>
        <mxCell id="4Ul_LHpnBtSVW_RfF9cD-77" value="" style="endArrow=classic;html=1;dashed=1;fontSize=15;fontStyle=2;fillColor=#f5f5f5;strokeColor=#666666;shadow=0;strokeWidth=2;fontFamily=Helvetica;" parent="1" source="CcIX3b4XJO-R3UWU8Bb1-171" target="4Ul_LHpnBtSVW_RfF9cD-1" edge="1">
          <mxGeometry width="50" height="50" relative="1" as="geometry">
            <mxPoint x="266" y="-95" as="sourcePoint" />
            <mxPoint x="-284" y="867" as="targetPoint" />
          </mxGeometry>
        </mxCell>
        <mxCell id="4Ul_LHpnBtSVW_RfF9cD-78" value="" style="endArrow=classic;html=1;dashed=1;fontSize=15;fontStyle=2;fillColor=#f5f5f5;strokeColor=#666666;shadow=0;strokeWidth=2;fontFamily=Helvetica;" parent="1" source="CcIX3b4XJO-R3UWU8Bb1-173" target="4Ul_LHpnBtSVW_RfF9cD-1" edge="1">
          <mxGeometry width="50" height="50" relative="1" as="geometry">
            <mxPoint x="358" y="6" as="sourcePoint" />
            <mxPoint x="-280" y="867" as="targetPoint" />
          </mxGeometry>
        </mxCell>
        <mxCell id="4Ul_LHpnBtSVW_RfF9cD-79" value="" style="endArrow=classic;html=1;dashed=1;fontSize=15;fontStyle=2;fillColor=#f5f5f5;strokeColor=#666666;shadow=0;strokeWidth=2;fontFamily=Helvetica;" parent="1" source="CcIX3b4XJO-R3UWU8Bb1-169" target="4Ul_LHpnBtSVW_RfF9cD-1" edge="1">
          <mxGeometry width="50" height="50" relative="1" as="geometry">
            <mxPoint x="448" y="85" as="sourcePoint" />
            <mxPoint x="-276" y="867" as="targetPoint" />
          </mxGeometry>
        </mxCell>
        <mxCell id="CcIX3b4XJO-R3UWU8Bb1-3" value="&lt;div&gt;&lt;u&gt;Activity&lt;/u&gt;&lt;/div&gt;&lt;div align=&quot;left&quot;&gt;&lt;span style=&quot;font-weight: normal;&quot;&gt;bool: does&lt;/span&gt;&lt;/div&gt;" style="rounded=1;whiteSpace=wrap;html=1;fillColor=#e1d5e7;strokeColor=#FF0080;fontSize=15;fontStyle=3;shadow=0;strokeWidth=5;fontFamily=Helvetica;" parent="1" vertex="1">
          <mxGeometry x="-47.52" y="-411.5" width="100" height="58.5" as="geometry" />
        </mxCell>
        <mxCell id="CcIX3b4XJO-R3UWU8Bb1-116" value="OnWebsitePage" style="rounded=1;whiteSpace=wrap;html=1;fillColor=#fff2cc;strokeColor=#d6b656;fontSize=15;fontStyle=2;shadow=0;fontFamily=Helvetica;" parent="1" vertex="1">
          <mxGeometry x="1485.69" y="-102" width="119" height="40" as="geometry" />
        </mxCell>
        <mxCell id="CcIX3b4XJO-R3UWU8Bb1-98" value="TPSharingMechanism" style="rounded=1;whiteSpace=wrap;html=1;fillColor=#fff2cc;strokeColor=#d6b656;fontSize=15;fontStyle=2;shadow=0;fontFamily=Helvetica;" parent="1" vertex="1">
          <mxGeometry x="758.08" y="-81.5" width="160" height="40" as="geometry" />
        </mxCell>
        <mxCell id="-7rzMSb308RtKam8KDcy-5" value="EmailRequest" style="rounded=1;whiteSpace=wrap;html=1;fontSize=15;fontStyle=2;fillColor=#fff2cc;strokeColor=#d6b656;shadow=0;fontFamily=Helvetica;" parent="1" vertex="1">
          <mxGeometry x="1224.03" y="157.5" width="106" height="40" as="geometry" />
        </mxCell>
        <mxCell id="-7rzMSb308RtKam8KDcy-6" value="PhoneCallRequest" style="rounded=1;whiteSpace=wrap;html=1;fontSize=15;fontStyle=2;fillColor=#fff2cc;strokeColor=#d6b656;shadow=0;fontFamily=Helvetica;" parent="1" vertex="1">
          <mxGeometry x="1319.28" y="211.5" width="139" height="40" as="geometry" />
        </mxCell>
        <mxCell id="-7rzMSb308RtKam8KDcy-7" value="ServiceAppForm" style="rounded=1;whiteSpace=wrap;html=1;fontSize=15;fontStyle=2;fillColor=#fff2cc;strokeColor=#d6b656;shadow=0;fontFamily=Helvetica;" parent="1" vertex="1">
          <mxGeometry x="1273.16" y="101.5" width="121.75" height="40" as="geometry" />
        </mxCell>
        <mxCell id="-7rzMSb308RtKam8KDcy-12" value="" style="endArrow=classic;html=1;dashed=1;fontSize=15;fontStyle=2;fillColor=#fff2cc;strokeColor=#d6b656;shadow=0;strokeWidth=2;curved=1;fontFamily=Helvetica;" parent="1" source="CcIX3b4XJO-R3UWU8Bb1-169" target="CcIX3b4XJO-R3UWU8Bb1-98" edge="1">
          <mxGeometry width="50" height="50" relative="1" as="geometry">
            <mxPoint x="579" y="-172.53" as="sourcePoint" />
            <mxPoint x="724" y="-172.53" as="targetPoint" />
          </mxGeometry>
        </mxCell>
        <mxCell id="-7rzMSb308RtKam8KDcy-13" value="" style="endArrow=classic;html=1;dashed=1;fontSize=15;fontStyle=2;fillColor=#fff2cc;strokeColor=#d6b656;shadow=0;strokeWidth=2;curved=1;fontFamily=Helvetica;" parent="1" source="CcIX3b4XJO-R3UWU8Bb1-171" target="CcIX3b4XJO-R3UWU8Bb1-99" edge="1">
          <mxGeometry width="50" height="50" relative="1" as="geometry">
            <mxPoint x="589" y="-162.53" as="sourcePoint" />
            <mxPoint x="734" y="-162.53" as="targetPoint" />
            <Array as="points" />
          </mxGeometry>
        </mxCell>
        <mxCell id="-7rzMSb308RtKam8KDcy-14" value="" style="endArrow=classic;html=1;dashed=1;fontSize=15;fontStyle=2;fillColor=#fff2cc;strokeColor=#d6b656;shadow=0;strokeWidth=2;curved=1;fontFamily=Helvetica;" parent="1" source="CcIX3b4XJO-R3UWU8Bb1-172" target="CcIX3b4XJO-R3UWU8Bb1-177" edge="1">
          <mxGeometry width="50" height="50" relative="1" as="geometry">
            <mxPoint x="599" y="-152.53" as="sourcePoint" />
            <mxPoint x="744" y="-152.53" as="targetPoint" />
          </mxGeometry>
        </mxCell>
        <mxCell id="-7rzMSb308RtKam8KDcy-15" value="" style="endArrow=classic;html=1;dashed=1;fontSize=15;fontStyle=2;fillColor=#fff2cc;strokeColor=#d6b656;shadow=0;strokeWidth=2;curved=1;fontFamily=Helvetica;" parent="1" source="CcIX3b4XJO-R3UWU8Bb1-12" target="pIO2bBWsaHQuIE4qCJqX-5" edge="1">
          <mxGeometry width="50" height="50" relative="1" as="geometry">
            <mxPoint x="613" y="142" as="sourcePoint" />
            <mxPoint x="1119" y="-20" as="targetPoint" />
            <Array as="points" />
          </mxGeometry>
        </mxCell>
        <mxCell id="-7rzMSb308RtKam8KDcy-17" value="" style="endArrow=classic;html=1;dashed=1;fontSize=15;fontStyle=2;fillColor=#fff2cc;strokeColor=#d6b656;shadow=0;strokeWidth=2;curved=1;fontFamily=Helvetica;" parent="1" source="eUonAB1_qK4CQp04J9bD-1" target="CcIX3b4XJO-R3UWU8Bb1-97" edge="1">
          <mxGeometry width="50" height="50" relative="1" as="geometry">
            <mxPoint x="429" y="-50" as="sourcePoint" />
            <mxPoint x="1018" y="-209" as="targetPoint" />
            <Array as="points" />
          </mxGeometry>
        </mxCell>
        <mxCell id="-7rzMSb308RtKam8KDcy-28" value="" style="endArrow=classic;html=1;dashed=1;fontSize=15;fontStyle=2;fillColor=#e3c800;strokeColor=#B09500;shadow=0;strokeWidth=2;curved=1;fontFamily=Helvetica;" parent="1" source="CcIX3b4XJO-R3UWU8Bb1-99" target="CcIX3b4XJO-R3UWU8Bb1-135" edge="1">
          <mxGeometry width="50" height="50" relative="1" as="geometry">
            <mxPoint x="1130" y="-465" as="sourcePoint" />
            <mxPoint x="1247" y="-457" as="targetPoint" />
            <Array as="points">
              <mxPoint x="880" y="-240" />
            </Array>
          </mxGeometry>
        </mxCell>
        <mxCell id="-7rzMSb308RtKam8KDcy-44" value="" style="endArrow=classic;html=1;dashed=1;fontSize=15;fontStyle=2;curved=1;fillColor=#d80073;strokeColor=#FF0080;shadow=0;strokeWidth=5;fontFamily=Helvetica;" parent="1" edge="1">
          <mxGeometry width="50" height="50" relative="1" as="geometry">
            <mxPoint x="-947.25" y="-419.5" as="sourcePoint" />
            <mxPoint x="-867.25" y="-418.5" as="targetPoint" />
          </mxGeometry>
        </mxCell>
        <mxCell id="-7rzMSb308RtKam8KDcy-45" value="" style="endArrow=classic;html=1;dashed=1;fontSize=15;fontStyle=2;fillColor=#e1d5e7;strokeColor=#9673a6;shadow=0;strokeWidth=2;fontFamily=Helvetica;" parent="1" edge="1">
          <mxGeometry width="50" height="50" relative="1" as="geometry">
            <mxPoint x="-947.25" y="-178.5" as="sourcePoint" />
            <mxPoint x="-867.25" y="-178.5" as="targetPoint" />
          </mxGeometry>
        </mxCell>
        <mxCell id="-7rzMSb308RtKam8KDcy-46" value="" style="endArrow=classic;html=1;dashed=1;fontSize=15;fontStyle=2;fillColor=#dae8fc;strokeColor=#6c8ebf;shadow=0;strokeWidth=2;fontFamily=Helvetica;" parent="1" edge="1">
          <mxGeometry width="50" height="50" relative="1" as="geometry">
            <mxPoint x="-947.25" y="-338.5" as="sourcePoint" />
            <mxPoint x="-867.25" y="-338.5" as="targetPoint" />
          </mxGeometry>
        </mxCell>
        <mxCell id="-7rzMSb308RtKam8KDcy-47" value="" style="endArrow=block;html=1;endFill=0;fontSize=15;fontStyle=2;shadow=0;fontFamily=Helvetica;" parent="1" edge="1">
          <mxGeometry width="50" height="50" relative="1" as="geometry">
            <mxPoint x="-947.25" y="-461.5" as="sourcePoint" />
            <mxPoint x="-867.25" y="-461.5" as="targetPoint" />
          </mxGeometry>
        </mxCell>
        <mxCell id="-7rzMSb308RtKam8KDcy-48" value="" style="endArrow=classic;html=1;dashed=1;fontSize=15;fontStyle=2;curved=1;fillColor=#f0a30a;strokeColor=#BD7000;shadow=0;strokeWidth=2;fontFamily=Helvetica;" parent="1" edge="1">
          <mxGeometry width="50" height="50" relative="1" as="geometry">
            <mxPoint x="-946.75" y="-138.5" as="sourcePoint" />
            <mxPoint x="-866.75" y="-138.5" as="targetPoint" />
          </mxGeometry>
        </mxCell>
        <mxCell id="-7rzMSb308RtKam8KDcy-49" value="" style="endArrow=classic;html=1;dashed=1;fontSize=15;fontStyle=2;curved=1;fillColor=#ffe6cc;strokeColor=#d79b00;shadow=0;strokeWidth=2;fontFamily=Helvetica;" parent="1" edge="1">
          <mxGeometry width="50" height="50" relative="1" as="geometry">
            <mxPoint x="-947.25" y="-101.64999999999998" as="sourcePoint" />
            <mxPoint x="-867.25" y="-101.64999999999998" as="targetPoint" />
          </mxGeometry>
        </mxCell>
        <mxCell id="-7rzMSb308RtKam8KDcy-51" value="" style="endArrow=classic;html=1;dashed=1;fontSize=15;fontStyle=2;fillColor=#e3c800;strokeColor=#B09500;shadow=0;strokeWidth=2;curved=1;fontFamily=Helvetica;" parent="1" edge="1">
          <mxGeometry width="50" height="50" relative="1" as="geometry">
            <mxPoint x="-947.25" y="-298.5" as="sourcePoint" />
            <mxPoint x="-867.25" y="-298.5" as="targetPoint" />
          </mxGeometry>
        </mxCell>
        <mxCell id="-7rzMSb308RtKam8KDcy-52" value="" style="endArrow=classic;html=1;dashed=1;fontSize=15;fontStyle=2;startArrow=none;curved=1;fillColor=#008a00;strokeColor=#005700;shadow=0;strokeWidth=2;fontFamily=Helvetica;" parent="1" edge="1">
          <mxGeometry width="50" height="50" relative="1" as="geometry">
            <mxPoint x="-947.25" y="-218.5" as="sourcePoint" />
            <mxPoint x="-867.25" y="-218.5" as="targetPoint" />
          </mxGeometry>
        </mxCell>
        <mxCell id="-7rzMSb308RtKam8KDcy-53" value="" style="endArrow=classic;html=1;dashed=1;fontSize=15;fontStyle=2;curved=1;fillColor=#1ba1e2;strokeColor=#006EAF;shadow=0;startArrow=none;strokeWidth=2;fontFamily=Helvetica;" parent="1" edge="1">
          <mxGeometry width="50" height="50" relative="1" as="geometry">
            <mxPoint x="-947.25" y="-258.5" as="sourcePoint" />
            <mxPoint x="-867.25" y="-258.5" as="targetPoint" />
          </mxGeometry>
        </mxCell>
        <mxCell id="-7rzMSb308RtKam8KDcy-54" value="considers/hasOlderVersion" style="text;html=1;strokeColor=none;fillColor=none;align=left;verticalAlign=middle;whiteSpace=wrap;rounded=0;fontSize=15;shadow=0;fontFamily=Helvetica;fontStyle=2;" parent="1" vertex="1">
          <mxGeometry x="-856.25" y="-440" width="307" height="40" as="geometry" />
        </mxCell>
        <mxCell id="-7rzMSb308RtKam8KDcy-55" value="hasMechanism" style="text;html=1;strokeColor=none;fillColor=none;align=left;verticalAlign=middle;whiteSpace=wrap;rounded=0;fontSize=15;shadow=0;fontFamily=Helvetica;fontStyle=2;" parent="1" vertex="1">
          <mxGeometry x="-856.25" y="-320" width="307" height="40" as="geometry" />
        </mxCell>
        <mxCell id="-7rzMSb308RtKam8KDcy-57" value="hasConsequence" style="text;html=1;strokeColor=none;fillColor=none;align=left;verticalAlign=middle;whiteSpace=wrap;rounded=0;fontSize=15;shadow=0;fontFamily=Helvetica;fontStyle=2;" parent="1" vertex="1">
          <mxGeometry x="-856.25" y="-280" width="307" height="40" as="geometry" />
        </mxCell>
        <mxCell id="-7rzMSb308RtKam8KDcy-58" value="hasCause" style="text;html=1;strokeColor=none;fillColor=none;align=left;verticalAlign=middle;whiteSpace=wrap;rounded=0;fontSize=15;shadow=0;fontFamily=Helvetica;fontStyle=2;" parent="1" vertex="1">
          <mxGeometry x="-856.25" y="-240" width="307" height="40" as="geometry" />
        </mxCell>
        <mxCell id="-7rzMSb308RtKam8KDcy-59" value="initiatesActivity/isRelatedTo" style="text;html=1;strokeColor=none;fillColor=none;align=left;verticalAlign=middle;whiteSpace=wrap;rounded=0;fontSize=15;shadow=0;fontFamily=Helvetica;fontStyle=2;" parent="1" vertex="1">
          <mxGeometry x="-856.25" y="-200" width="307" height="40" as="geometry" />
        </mxCell>
        <mxCell id="-7rzMSb308RtKam8KDcy-60" value="sharesDataTo/collectsDataFrom/notifiesAgent" style="text;html=1;strokeColor=none;fillColor=none;align=left;verticalAlign=middle;whiteSpace=wrap;rounded=0;fontSize=15;shadow=0;fontFamily=Helvetica;fontStyle=2;" parent="1" vertex="1">
          <mxGeometry x="-856.25" y="-360" width="307" height="40" as="geometry" />
        </mxCell>
        <mxCell id="-7rzMSb308RtKam8KDcy-61" value="hasMode" style="text;html=1;strokeColor=none;fillColor=none;align=left;verticalAlign=middle;whiteSpace=wrap;rounded=0;fontSize=15;shadow=0;fontFamily=Helvetica;fontStyle=2;" parent="1" vertex="1">
          <mxGeometry x="-855.75" y="-160" width="307" height="40" as="geometry" />
        </mxCell>
        <mxCell id="-7rzMSb308RtKam8KDcy-62" value="inheritance" style="text;html=1;strokeColor=none;fillColor=none;align=left;verticalAlign=middle;whiteSpace=wrap;rounded=0;fontSize=15;shadow=0;fontFamily=Helvetica;fontStyle=2;" parent="1" vertex="1">
          <mxGeometry x="-856.25" y="-480" width="307" height="40" as="geometry" />
        </mxCell>
        <mxCell id="-7rzMSb308RtKam8KDcy-63" value="hasTimePeriod" style="text;html=1;strokeColor=none;fillColor=none;align=left;verticalAlign=middle;whiteSpace=wrap;rounded=0;fontSize=15;shadow=0;fontFamily=Helvetica;fontStyle=2;" parent="1" vertex="1">
          <mxGeometry x="-856.25" y="-121.5" width="307" height="40" as="geometry" />
        </mxCell>
        <mxCell id="-7rzMSb308RtKam8KDcy-64" value="" style="endArrow=classic;html=1;dashed=1;fontSize=15;fontStyle=2;shadow=0;fillColor=#76608a;strokeColor=#432D57;strokeWidth=2;fontFamily=Helvetica;" parent="1" edge="1">
          <mxGeometry width="50" height="50" relative="1" as="geometry">
            <mxPoint x="-947.25" y="-21.5" as="sourcePoint" />
            <mxPoint x="-867.25" y="-21.5" as="targetPoint" />
          </mxGeometry>
        </mxCell>
        <mxCell id="-7rzMSb308RtKam8KDcy-65" value="" style="endArrow=classic;html=1;dashed=1;fontSize=15;fontStyle=2;fillColor=#f5f5f5;strokeColor=#666666;shadow=0;strokeWidth=2;fontFamily=Helvetica;" parent="1" edge="1">
          <mxGeometry width="50" height="50" relative="1" as="geometry">
            <mxPoint x="-947.25" y="-61.5" as="sourcePoint" />
            <mxPoint x="-867.25" y="-61.5" as="targetPoint" />
          </mxGeometry>
        </mxCell>
        <mxCell id="-7rzMSb308RtKam8KDcy-66" value="appliesToData" style="text;html=1;strokeColor=none;fillColor=none;align=left;verticalAlign=middle;whiteSpace=wrap;rounded=0;fontSize=15;shadow=0;fontFamily=Helvetica;fontStyle=2;" parent="1" vertex="1">
          <mxGeometry x="-856.25" y="-81.5" width="307" height="40" as="geometry" />
        </mxCell>
        <mxCell id="-7rzMSb308RtKam8KDcy-67" value="hasSpecialCategory" style="text;html=1;strokeColor=none;fillColor=none;align=left;verticalAlign=middle;whiteSpace=wrap;rounded=0;fontSize=15;shadow=0;fontFamily=Helvetica;fontStyle=2;" parent="1" vertex="1">
          <mxGeometry x="-856.25" y="-41.5" width="307" height="40" as="geometry" />
        </mxCell>
        <mxCell id="-7rzMSb308RtKam8KDcy-70" value="SecureStorage" style="rounded=1;whiteSpace=wrap;html=1;fillColor=#fff2cc;strokeColor=#d6b656;fontSize=15;fontStyle=2;shadow=0;fontFamily=Helvetica;" parent="1" vertex="1">
          <mxGeometry x="1176.26" y="-605.5" width="115.5" height="40" as="geometry" />
        </mxCell>
        <mxCell id="-7rzMSb308RtKam8KDcy-71" value="Firewall" style="rounded=1;whiteSpace=wrap;html=1;fillColor=#fff2cc;strokeColor=#d6b656;fontSize=15;fontStyle=2;shadow=0;fontFamily=Helvetica;" parent="1" vertex="1">
          <mxGeometry x="935.5200000000001" y="-608.75" width="73" height="40" as="geometry" />
        </mxCell>
        <mxCell id="-7rzMSb308RtKam8KDcy-72" value="AccessControls" style="rounded=1;whiteSpace=wrap;html=1;fillColor=#fff2cc;strokeColor=#d6b656;fontSize=15;fontStyle=2;shadow=0;fontFamily=Helvetica;" parent="1" vertex="1">
          <mxGeometry x="1018.59" y="-608.75" width="114.81" height="40" as="geometry" />
        </mxCell>
        <mxCell id="-7rzMSb308RtKam8KDcy-74" value="" style="endArrow=block;html=1;endFill=0;fontSize=15;fontStyle=2;curved=1;shadow=0;fontFamily=Helvetica;" parent="1" source="4GEwqGWDiLAYL1l5WSFT-24" target="CcIX3b4XJO-R3UWU8Bb1-105" edge="1">
          <mxGeometry width="50" height="50" relative="1" as="geometry">
            <mxPoint x="539.32" y="-675" as="sourcePoint" />
            <mxPoint x="778.32" y="-570" as="targetPoint" />
            <Array as="points">
              <mxPoint x="1020" y="-400" />
            </Array>
          </mxGeometry>
        </mxCell>
        <mxCell id="-7rzMSb308RtKam8KDcy-76" value="LockedOffices" style="rounded=1;whiteSpace=wrap;html=1;fillColor=#fff2cc;strokeColor=#d6b656;fontSize=15;fontStyle=2;shadow=0;fontFamily=Helvetica;" parent="1" vertex="1">
          <mxGeometry x="731.5" y="-638.25" width="106" height="40" as="geometry" />
        </mxCell>
        <mxCell id="-7rzMSb308RtKam8KDcy-77" value="SecurityTrainings" style="rounded=1;whiteSpace=wrap;html=1;fillColor=#fff2cc;strokeColor=#d6b656;fontSize=15;fontStyle=2;shadow=0;fontFamily=Helvetica;" parent="1" vertex="1">
          <mxGeometry x="753.18" y="-585.62" width="129" height="40" as="geometry" />
        </mxCell>
        <mxCell id="-7rzMSb308RtKam8KDcy-78" value="UsersMaintain" style="rounded=1;whiteSpace=wrap;html=1;fillColor=#fff2cc;strokeColor=#d6b656;fontSize=15;fontStyle=2;shadow=0;fontFamily=Helvetica;" parent="1" vertex="1">
          <mxGeometry x="726.75" y="-538.25" width="107" height="40" as="geometry" />
        </mxCell>
        <mxCell id="-7rzMSb308RtKam8KDcy-81" value="" style="endArrow=block;html=1;endFill=0;fontSize=15;fontStyle=2;curved=1;shadow=0;fontFamily=Helvetica;" parent="1" source="4GEwqGWDiLAYL1l5WSFT-26" target="CcIX3b4XJO-R3UWU8Bb1-106" edge="1">
          <mxGeometry width="50" height="50" relative="1" as="geometry">
            <mxPoint x="1117.41" y="-661" as="sourcePoint" />
            <mxPoint x="1068.41" y="-593" as="targetPoint" />
            <Array as="points">
              <mxPoint x="900" y="-470" />
            </Array>
          </mxGeometry>
        </mxCell>
        <mxCell id="xe194QmDdUttyb_01M8H-1" value="" style="endArrow=classic;html=1;dashed=1;fontSize=15;fontStyle=2;fillColor=#fff2cc;strokeColor=#d6b656;shadow=0;strokeWidth=2;curved=1;fontFamily=Helvetica;" parent="1" source="4GEwqGWDiLAYL1l5WSFT-10" target="CcIX3b4XJO-R3UWU8Bb1-24" edge="1">
          <mxGeometry width="50" height="50" relative="1" as="geometry">
            <mxPoint x="590.46" y="-30" as="sourcePoint" />
            <mxPoint x="1131" y="187" as="targetPoint" />
            <Array as="points" />
          </mxGeometry>
        </mxCell>
        <mxCell id="CcIX3b4XJO-R3UWU8Bb1-31" value="BreachInvestigation" style="rounded=1;whiteSpace=wrap;html=1;fontSize=15;fontStyle=2;fillColor=#1ba1e2;strokeColor=#006EAF;fontColor=#ffffff;shadow=0;fontFamily=Helvetica;" parent="1" vertex="1">
          <mxGeometry x="763.65" y="785.5" width="150" height="40" as="geometry" />
        </mxCell>
        <mxCell id="61tnpuy0RY4sNOKsgZpa-2" value="" style="endArrow=classic;html=1;dashed=1;fontSize=15;fontStyle=2;fillColor=#e1d5e7;strokeColor=#9673a6;shadow=0;strokeWidth=2;fontFamily=Helvetica;curved=1;" parent="1" source="CcIX3b4XJO-R3UWU8Bb1-3" target="CcIX3b4XJO-R3UWU8Bb1-3" edge="1">
          <mxGeometry width="50" height="50" relative="1" as="geometry">
            <mxPoint x="-260" y="-834" as="sourcePoint" />
            <mxPoint x="60" y="-420" as="targetPoint" />
            <Array as="points">
              <mxPoint x="-30" y="-330" />
              <mxPoint x="2" y="-310" />
              <mxPoint x="30" y="-330" />
            </Array>
          </mxGeometry>
        </mxCell>
        <mxCell id="61tnpuy0RY4sNOKsgZpa-3" value="" style="endArrow=classic;html=1;dashed=1;fontSize=15;fontStyle=2;curved=1;fillColor=#d80073;strokeColor=#FF0080;shadow=0;strokeWidth=5;fontFamily=Helvetica;" parent="1" source="CcIX3b4XJO-R3UWU8Bb1-1" target="CcIX3b4XJO-R3UWU8Bb1-1" edge="1">
          <mxGeometry width="50" height="50" relative="1" as="geometry">
            <mxPoint x="-283.98" y="-287.25" as="sourcePoint" />
            <mxPoint x="-401.98" y="176.75" as="targetPoint" />
            <Array as="points">
              <mxPoint x="-440.98" y="-330.25" />
              <mxPoint x="-385.98" y="-370.25" />
              <mxPoint x="-330.98" y="-330.25" />
            </Array>
          </mxGeometry>
        </mxCell>
        <mxCell id="61tnpuy0RY4sNOKsgZpa-4" value="" style="endArrow=block;html=1;endFill=0;fontSize=15;fontStyle=2;curved=1;shadow=0;fontFamily=Helvetica;" parent="1" source="4GEwqGWDiLAYL1l5WSFT-10" target="CcIX3b4XJO-R3UWU8Bb1-3" edge="1">
          <mxGeometry width="50" height="50" relative="1" as="geometry">
            <mxPoint x="538.6624137931035" y="-50" as="sourcePoint" />
            <mxPoint x="300" y="-237" as="targetPoint" />
            <Array as="points">
              <mxPoint x="620" y="-290" />
            </Array>
          </mxGeometry>
        </mxCell>
        <mxCell id="_siSLlGsqEM8aGmj2KO7-1" value="" style="endArrow=classic;html=1;dashed=1;fontSize=15;fontStyle=2;fillColor=#f5f5f5;strokeColor=#666666;shadow=0;strokeWidth=2;fontFamily=Helvetica;" parent="1" source="pIO2bBWsaHQuIE4qCJqX-3" target="4Ul_LHpnBtSVW_RfF9cD-1" edge="1">
          <mxGeometry width="50" height="50" relative="1" as="geometry">
            <mxPoint x="358" y="-20" as="sourcePoint" />
            <mxPoint x="-195" y="770" as="targetPoint" />
          </mxGeometry>
        </mxCell>
        <mxCell id="_siSLlGsqEM8aGmj2KO7-2" value="" style="endArrow=classic;html=1;dashed=1;fontSize=15;fontStyle=2;fillColor=#f5f5f5;strokeColor=#666666;shadow=0;strokeWidth=2;fontFamily=Helvetica;" parent="1" source="pIO2bBWsaHQuIE4qCJqX-4" target="4Ul_LHpnBtSVW_RfF9cD-1" edge="1">
          <mxGeometry width="50" height="50" relative="1" as="geometry">
            <mxPoint x="446" y="50" as="sourcePoint" />
            <mxPoint x="-191" y="770" as="targetPoint" />
          </mxGeometry>
        </mxCell>
        <mxCell id="_siSLlGsqEM8aGmj2KO7-3" value="SecureTunnel" style="rounded=1;whiteSpace=wrap;html=1;fillColor=#fff2cc;strokeColor=#d6b656;fontSize=15;fontStyle=2;shadow=0;fontFamily=Helvetica;" parent="1" vertex="1">
          <mxGeometry x="1182.54" y="-655.5" width="109.25" height="40" as="geometry" />
        </mxCell>
        <mxCell id="_siSLlGsqEM8aGmj2KO7-4" value="" style="endArrow=block;html=1;endFill=0;fontSize=15;fontStyle=2;curved=1;shadow=0;fontFamily=Helvetica;" parent="1" source="4GEwqGWDiLAYL1l5WSFT-25" target="CcIX3b4XJO-R3UWU8Bb1-107" edge="1">
          <mxGeometry width="50" height="50" relative="1" as="geometry">
            <mxPoint x="1012.5299999999999" y="-626" as="sourcePoint" />
            <mxPoint x="1047.53" y="-575" as="targetPoint" />
            <Array as="points">
              <mxPoint x="1200" y="-490" />
            </Array>
          </mxGeometry>
        </mxCell>
        <mxCell id="_siSLlGsqEM8aGmj2KO7-5" value="PostalMailRequest" style="rounded=1;whiteSpace=wrap;html=1;fontSize=15;fontStyle=2;fillColor=#fff2cc;strokeColor=#d6b656;shadow=0;fontFamily=Helvetica;" parent="1" vertex="1">
          <mxGeometry x="1244.03" y="271.5" width="130" height="40" as="geometry" />
        </mxCell>
        <mxCell id="_siSLlGsqEM8aGmj2KO7-6" value="" style="endArrow=block;html=1;endFill=0;fontSize=15;fontStyle=2;curved=1;shadow=0;fontFamily=Helvetica;" parent="1" source="4GEwqGWDiLAYL1l5WSFT-20" target="pIO2bBWsaHQuIE4qCJqX-5" edge="1">
          <mxGeometry width="50" height="50" relative="1" as="geometry">
            <mxPoint x="1256" y="-52" as="sourcePoint" />
            <mxPoint x="1083" y="-20" as="targetPoint" />
            <Array as="points">
              <mxPoint x="1180" y="170" />
            </Array>
          </mxGeometry>
        </mxCell>
        <mxCell id="_siSLlGsqEM8aGmj2KO7-7" value="" style="endArrow=classic;html=1;dashed=1;fontSize=15;fontStyle=2;fillColor=#dae8fc;strokeColor=#6c8ebf;shadow=0;strokeWidth=2;fontFamily=Helvetica;curved=1;" parent="1" source="4GEwqGWDiLAYL1l5WSFT-10" target="SCjSau2hbUJthauaJq3d-1" edge="1">
          <mxGeometry width="50" height="50" relative="1" as="geometry">
            <mxPoint x="487" y="170" as="sourcePoint" />
            <mxPoint x="-280" y="160" as="targetPoint" />
            <Array as="points">
              <mxPoint x="130" y="30" />
            </Array>
          </mxGeometry>
        </mxCell>
        <mxCell id="_siSLlGsqEM8aGmj2KO7-8" value="" style="endArrow=classic;html=1;dashed=1;fontSize=15;fontStyle=2;fillColor=#e1d5e7;strokeColor=#9673a6;shadow=0;strokeWidth=2;fontFamily=Helvetica;curved=1;" parent="1" source="CcIX3b4XJO-R3UWU8Bb1-51" target="4GEwqGWDiLAYL1l5WSFT-10" edge="1">
          <mxGeometry width="50" height="50" relative="1" as="geometry">
            <mxPoint x="470" y="130" as="sourcePoint" />
            <mxPoint x="480" y="120" as="targetPoint" />
            <Array as="points">
              <mxPoint x="140" y="370" />
            </Array>
          </mxGeometry>
        </mxCell>
        <mxCell id="_siSLlGsqEM8aGmj2KO7-11" value="" style="endArrow=classic;html=1;dashed=1;fontSize=15;fontStyle=2;fillColor=#dae8fc;strokeColor=#6c8ebf;shadow=0;strokeWidth=2;fontFamily=Helvetica;" parent="1" source="CcIX3b4XJO-R3UWU8Bb1-171" target="CcIX3b4XJO-R3UWU8Bb1-51" edge="1">
          <mxGeometry width="50" height="50" relative="1" as="geometry">
            <mxPoint x="199" y="-98" as="sourcePoint" />
            <mxPoint x="-234" y="80" as="targetPoint" />
          </mxGeometry>
        </mxCell>
        <mxCell id="_siSLlGsqEM8aGmj2KO7-12" value="" style="endArrow=classic;html=1;dashed=1;fontSize=15;fontStyle=2;fillColor=#f5f5f5;strokeColor=#666666;shadow=0;strokeWidth=2;fontFamily=Helvetica;" parent="1" source="CcIX3b4XJO-R3UWU8Bb1-21" target="4Ul_LHpnBtSVW_RfF9cD-1" edge="1">
          <mxGeometry width="50" height="50" relative="1" as="geometry">
            <mxPoint x="499" y="510" as="sourcePoint" />
            <mxPoint x="-178" y="778" as="targetPoint" />
          </mxGeometry>
        </mxCell>
        <mxCell id="KT9C6vuOZP5Z0PniKQ4T-1" value="TransmissionByRequest" style="rounded=1;whiteSpace=wrap;html=1;fillColor=#e3c800;strokeColor=#B09500;fontSize=15;fontStyle=2;fontColor=#000000;shadow=0;fontFamily=Helvetica;" parent="1" vertex="1">
          <mxGeometry x="436.49999999999983" y="-435.25" width="90" height="40" as="geometry" />
        </mxCell>
        <mxCell id="KT9C6vuOZP5Z0PniKQ4T-2" value="Permanent" style="rounded=1;whiteSpace=wrap;html=1;fillColor=#e3c800;strokeColor=#B09500;fontSize=15;fontStyle=2;fontColor=#000000;shadow=0;fontFamily=Helvetica;" parent="1" vertex="1">
          <mxGeometry x="445.5199999999998" y="-380.5" width="87.75" height="40" as="geometry" />
        </mxCell>
        <mxCell id="KT9C6vuOZP5Z0PniKQ4T-3" value="MechanismMode" style="rounded=1;whiteSpace=wrap;html=1;fillColor=#e3c800;strokeColor=#B09500;fontSize=15;fontStyle=2;fontColor=#000000;shadow=0;fontFamily=Helvetica;" parent="1" vertex="1">
          <mxGeometry x="596.7899999999997" y="-409.5" width="130" height="40" as="geometry" />
        </mxCell>
        <mxCell id="KT9C6vuOZP5Z0PniKQ4T-4" value="" style="endArrow=block;html=1;endFill=0;fontSize=15;fontStyle=2;curved=1;shadow=0;fontFamily=Helvetica;" parent="1" source="4GEwqGWDiLAYL1l5WSFT-34" target="CcIX3b4XJO-R3UWU8Bb1-135" edge="1">
          <mxGeometry width="50" height="50" relative="1" as="geometry">
            <mxPoint x="547.9399999999997" y="-754.5" as="sourcePoint" />
            <mxPoint x="427.93999999999977" y="-756.5" as="targetPoint" />
          </mxGeometry>
        </mxCell>
        <mxCell id="KT9C6vuOZP5Z0PniKQ4T-5" value="" style="endArrow=block;html=1;endFill=0;fontSize=15;fontStyle=2;curved=1;shadow=0;fontFamily=Helvetica;" parent="1" source="KT9C6vuOZP5Z0PniKQ4T-3" target="CcIX3b4XJO-R3UWU8Bb1-88" edge="1">
          <mxGeometry width="50" height="50" relative="1" as="geometry">
            <mxPoint x="725.4399999999997" y="-309.25" as="sourcePoint" />
            <mxPoint x="758.4399999999997" y="-350.25" as="targetPoint" />
          </mxGeometry>
        </mxCell>
        <mxCell id="KT9C6vuOZP5Z0PniKQ4T-6" value="" style="endArrow=classic;html=1;dashed=1;fontSize=15;fontStyle=2;fillColor=#e3c800;strokeColor=#B09500;shadow=0;strokeWidth=2;curved=1;fontFamily=Helvetica;" parent="1" source="CcIX3b4XJO-R3UWU8Bb1-98" target="CcIX3b4XJO-R3UWU8Bb1-135" edge="1">
          <mxGeometry width="50" height="50" relative="1" as="geometry">
            <mxPoint x="783" y="-240" as="sourcePoint" />
            <mxPoint x="923" y="-320" as="targetPoint" />
            <Array as="points">
              <mxPoint x="1000" y="-240" />
            </Array>
          </mxGeometry>
        </mxCell>
        <mxCell id="KT9C6vuOZP5Z0PniKQ4T-7" value="&lt;div&gt;&lt;b&gt;Thing&lt;/b&gt;&lt;/div&gt;" style="rounded=1;whiteSpace=wrap;html=1;fontSize=15;fontStyle=2;shadow=0;fontFamily=Helvetica;strokeWidth=5;" parent="1" vertex="1">
          <mxGeometry x="-950" y="191" width="106" height="40" as="geometry" />
        </mxCell>
        <mxCell id="KT9C6vuOZP5Z0PniKQ4T-8" value="&lt;div&gt;&lt;b&gt;&lt;u&gt;Evidence&lt;/u&gt;&lt;/b&gt;&lt;/div&gt;text: evidenceContent " style="rounded=1;whiteSpace=wrap;html=1;fontSize=15;fontStyle=2;shadow=0;fontFamily=Helvetica;" parent="1" vertex="1">
          <mxGeometry x="-810" y="186" width="170" height="50" as="geometry" />
        </mxCell>
        <mxCell id="KT9C6vuOZP5Z0PniKQ4T-9" value="&lt;h1&gt;&lt;i&gt;Implicit&lt;/i&gt; &lt;i&gt;relations&lt;/i&gt;&lt;br&gt;&lt;/h1&gt;&lt;div align=&quot;justify&quot;&gt;All classes with bold borders are inherited from base class Thing, including Evidence which can be applied via hasEvidence relation to all described concepts to prove concept persistence.&lt;br&gt;&lt;/div&gt;" style="text;html=1;strokeColor=none;fillColor=none;spacing=5;spacingTop=-20;whiteSpace=wrap;overflow=hidden;rounded=0;fontSize=16;" parent="1" vertex="1">
          <mxGeometry x="-958.5" y="8" width="328.5" height="168" as="geometry" />
        </mxCell>
        <mxCell id="KT9C6vuOZP5Z0PniKQ4T-10" value="" style="endArrow=block;html=1;endFill=0;fontSize=15;fontStyle=2;shadow=0;curved=1;fontFamily=Helvetica;" parent="1" source="KT9C6vuOZP5Z0PniKQ4T-8" target="KT9C6vuOZP5Z0PniKQ4T-7" edge="1">
          <mxGeometry width="50" height="50" relative="1" as="geometry">
            <mxPoint x="-503.55999999999995" y="-14" as="sourcePoint" />
            <mxPoint x="-576.56" y="-244" as="targetPoint" />
          </mxGeometry>
        </mxCell>
        <mxCell id="KT9C6vuOZP5Z0PniKQ4T-11" value="EuropeanResident" style="rounded=1;whiteSpace=wrap;html=1;fillColor=#76608a;strokeColor=#432D57;fontSize=15;fontStyle=2;fontColor=#ffffff;shadow=0;fontFamily=Helvetica;" parent="1" vertex="1">
          <mxGeometry x="-845" y="310" width="150" height="40" as="geometry" />
        </mxCell>
        <mxCell id="KT9C6vuOZP5Z0PniKQ4T-12" value="CaliforniaResident" style="rounded=1;whiteSpace=wrap;html=1;fillColor=#76608a;strokeColor=#432D57;fontSize=15;fontStyle=2;fontColor=#ffffff;shadow=0;fontFamily=Helvetica;" parent="1" vertex="1">
          <mxGeometry x="-865" y="414.5" width="140" height="40" as="geometry" />
        </mxCell>
        <mxCell id="KT9C6vuOZP5Z0PniKQ4T-13" value="Child" style="rounded=1;whiteSpace=wrap;html=1;fillColor=#76608a;strokeColor=#432D57;fontSize=15;fontStyle=2;fontColor=#ffffff;shadow=0;fontFamily=Helvetica;" parent="1" vertex="1">
          <mxGeometry x="-785" y="472.28999999999996" width="60" height="40" as="geometry" />
        </mxCell>
        <mxCell id="KT9C6vuOZP5Z0PniKQ4T-14" value="" style="endArrow=block;html=1;endFill=0;fontSize=15;fontStyle=2;shadow=0;curved=1;fontFamily=Helvetica;" parent="1" source="4GEwqGWDiLAYL1l5WSFT-32" target="CcIX3b4XJO-R3UWU8Bb1-91" edge="1">
          <mxGeometry width="50" height="50" relative="1" as="geometry">
            <mxPoint x="-1584" y="62" as="sourcePoint" />
            <mxPoint x="-945.5609756097565" y="253" as="targetPoint" />
          </mxGeometry>
        </mxCell>
        <mxCell id="KT9C6vuOZP5Z0PniKQ4T-17" value="RussianFederationResident" style="rounded=1;whiteSpace=wrap;html=1;fillColor=#76608a;strokeColor=#432D57;fontSize=15;fontStyle=2;fontColor=#ffffff;shadow=0;fontFamily=Helvetica;" parent="1" vertex="1">
          <mxGeometry x="-874.25" y="365" width="197.5" height="40" as="geometry" />
        </mxCell>
        <mxCell id="KT9C6vuOZP5Z0PniKQ4T-21" value="" style="endArrow=classic;html=1;dashed=1;fontSize=15;fontStyle=2;fillColor=#dae8fc;strokeColor=#6c8ebf;shadow=0;strokeWidth=5;curved=1;fontFamily=Helvetica;" parent="1" edge="1">
          <mxGeometry width="50" height="50" relative="1" as="geometry">
            <mxPoint x="-946.25" y="-383" as="sourcePoint" />
            <mxPoint x="-867.25" y="-382.5" as="targetPoint" />
            <Array as="points" />
          </mxGeometry>
        </mxCell>
        <mxCell id="KT9C6vuOZP5Z0PniKQ4T-22" value="providesData" style="text;html=1;strokeColor=none;fillColor=none;align=left;verticalAlign=middle;whiteSpace=wrap;rounded=0;fontSize=15;shadow=0;fontFamily=Helvetica;fontStyle=2;" parent="1" vertex="1">
          <mxGeometry x="-855.75" y="-400" width="307" height="40" as="geometry" />
        </mxCell>
        <mxCell id="KT9C6vuOZP5Z0PniKQ4T-23" value="&lt;h1&gt;&lt;i&gt;Explicit&lt;/i&gt; &lt;i&gt;relations&lt;/i&gt;&lt;br&gt;&lt;/h1&gt;" style="text;html=1;strokeColor=none;fillColor=none;spacing=5;spacingTop=-20;whiteSpace=wrap;overflow=hidden;rounded=0;fontSize=16;" parent="1" vertex="1">
          <mxGeometry x="-958.5" y="-535.5" width="310" height="55.5" as="geometry" />
        </mxCell>
        <mxCell id="KT9C6vuOZP5Z0PniKQ4T-24" value="HealthMonitoring" style="rounded=1;whiteSpace=wrap;html=1;fillColor=#6a00ff;strokeColor=#3700CC;fontSize=15;fontStyle=2;fontColor=#ffffff;shadow=0;fontFamily=Helvetica;" parent="1" vertex="1">
          <mxGeometry x="-99.99999999999997" y="-551.77" width="130" height="40" as="geometry" />
        </mxCell>
        <mxCell id="KT9C6vuOZP5Z0PniKQ4T-25" value="ServiceProvisionPurpose" style="rounded=1;whiteSpace=wrap;html=1;fillColor=#6a00ff;strokeColor=#3700CC;fontSize=15;fontStyle=2;fontColor=#ffffff;shadow=0;fontFamily=Helvetica;" parent="1" vertex="1">
          <mxGeometry x="73.75" y="-524.75" width="130" height="40" as="geometry" />
        </mxCell>
        <mxCell id="KT9C6vuOZP5Z0PniKQ4T-26" value="" style="endArrow=block;html=1;endFill=0;fontSize=15;fontStyle=2;shadow=0;fontFamily=Helvetica;" parent="1" source="KT9C6vuOZP5Z0PniKQ4T-25" target="CcIX3b4XJO-R3UWU8Bb1-92" edge="1">
          <mxGeometry width="50" height="50" relative="1" as="geometry">
            <mxPoint x="-244.48999999999998" y="-491.25" as="sourcePoint" />
            <mxPoint x="-287.49" y="-491.25" as="targetPoint" />
          </mxGeometry>
        </mxCell>
        <mxCell id="KT9C6vuOZP5Z0PniKQ4T-27" value="" style="endArrow=block;html=1;endFill=0;fontSize=15;fontStyle=2;shadow=0;fontFamily=Helvetica;" parent="1" source="KT9C6vuOZP5Z0PniKQ4T-24" target="KT9C6vuOZP5Z0PniKQ4T-25" edge="1">
          <mxGeometry width="50" height="50" relative="1" as="geometry">
            <mxPoint x="253.24000000000004" y="-652.5" as="sourcePoint" />
            <mxPoint x="321.24" y="-565.5" as="targetPoint" />
          </mxGeometry>
        </mxCell>
        <mxCell id="4GEwqGWDiLAYL1l5WSFT-1" value="Contract" style="rounded=1;whiteSpace=wrap;html=1;fillColor=#fff2cc;strokeColor=#d6b656;fontSize=15;fontStyle=2;shadow=0;fontFamily=Helvetica;" parent="1" vertex="1">
          <mxGeometry x="1108.0999999999997" y="-280" width="65.75" height="40" as="geometry" />
        </mxCell>
        <mxCell id="4GEwqGWDiLAYL1l5WSFT-2" value="ForFree" style="rounded=1;whiteSpace=wrap;html=1;fillColor=#fff2cc;strokeColor=#d6b656;fontSize=15;fontStyle=2;shadow=0;fontFamily=Helvetica;" parent="1" vertex="1">
          <mxGeometry x="1138.2299999999998" y="-230" width="65.75" height="40" as="geometry" />
        </mxCell>
        <mxCell id="4GEwqGWDiLAYL1l5WSFT-3" value="ViaServiceApp" style="rounded=1;whiteSpace=wrap;html=1;fillColor=#fff2cc;strokeColor=#d6b656;fontSize=15;fontStyle=2;shadow=0;fontFamily=Helvetica;" parent="1" vertex="1">
          <mxGeometry x="1275.8899999999999" y="-349.5" width="144.88" height="40" as="geometry" />
        </mxCell>
        <mxCell id="4GEwqGWDiLAYL1l5WSFT-4" value="" style="endArrow=block;html=1;endFill=0;fontSize=15;fontStyle=2;curved=1;shadow=0;fontFamily=Helvetica;" parent="1" source="4GEwqGWDiLAYL1l5WSFT-22" target="CcIX3b4XJO-R3UWU8Bb1-98" edge="1">
          <mxGeometry width="50" height="50" relative="1" as="geometry">
            <mxPoint x="933" y="-156" as="sourcePoint" />
            <mxPoint x="1008" y="-165" as="targetPoint" />
            <Array as="points">
              <mxPoint x="990" y="-200" />
            </Array>
          </mxGeometry>
        </mxCell>
        <mxCell id="4GEwqGWDiLAYL1l5WSFT-6" value="ViaWebsite" style="rounded=1;whiteSpace=wrap;html=1;fillColor=#fff2cc;strokeColor=#d6b656;fontSize=15;fontStyle=2;shadow=0;fontFamily=Helvetica;" parent="1" vertex="1">
          <mxGeometry x="1302.5" y="-524.75" width="119.25" height="40" as="geometry" />
        </mxCell>
        <mxCell id="4GEwqGWDiLAYL1l5WSFT-7" value="" style="endArrow=block;html=1;endFill=0;fontSize=15;fontStyle=2;curved=1;shadow=0;fontFamily=Helvetica;" parent="1" source="4GEwqGWDiLAYL1l5WSFT-23" target="CcIX3b4XJO-R3UWU8Bb1-99" edge="1">
          <mxGeometry width="50" height="50" relative="1" as="geometry">
            <mxPoint x="870" y="-300" as="sourcePoint" />
            <mxPoint x="877" y="-167" as="targetPoint" />
            <Array as="points">
              <mxPoint x="1020" y="-300" />
            </Array>
          </mxGeometry>
        </mxCell>
        <mxCell id="4GEwqGWDiLAYL1l5WSFT-10" value="Notification" style="rounded=1;whiteSpace=wrap;html=1;fillColor=#e1d5e7;strokeColor=#9673a6;fontSize=15;fontStyle=2;shadow=0;fontFamily=Helvetica;" parent="1" vertex="1">
          <mxGeometry x="502.98" y="124" width="86.57" height="40" as="geometry" />
        </mxCell>
        <mxCell id="4GEwqGWDiLAYL1l5WSFT-14" value="OwnServers" style="rounded=1;whiteSpace=wrap;html=1;fillColor=#fff2cc;strokeColor=#d6b656;fontSize=15;fontStyle=2;shadow=0;fontFamily=Helvetica;" parent="1" vertex="1">
          <mxGeometry x="1152.72" y="-106.5" width="97.25" height="40" as="geometry" />
        </mxCell>
        <mxCell id="4GEwqGWDiLAYL1l5WSFT-15" value="EmployedServers" style="rounded=1;whiteSpace=wrap;html=1;fillColor=#fff2cc;strokeColor=#d6b656;fontSize=15;fontStyle=2;shadow=0;fontFamily=Helvetica;" parent="1" vertex="1">
          <mxGeometry x="1134.09" y="-45" width="129" height="40" as="geometry" />
        </mxCell>
        <mxCell id="4GEwqGWDiLAYL1l5WSFT-16" value="" style="endArrow=block;html=1;endFill=0;fontSize=15;fontStyle=2;curved=1;shadow=0;fontFamily=Helvetica;" parent="1" source="4GEwqGWDiLAYL1l5WSFT-21" target="CcIX3b4XJO-R3UWU8Bb1-177" edge="1">
          <mxGeometry width="50" height="50" relative="1" as="geometry">
            <mxPoint x="1071" y="32" as="sourcePoint" />
            <mxPoint x="1150" as="targetPoint" />
            <Array as="points" />
          </mxGeometry>
        </mxCell>
        <mxCell id="4GEwqGWDiLAYL1l5WSFT-17" value="ViaServiceAppForm" style="rounded=1;whiteSpace=wrap;html=1;fillColor=#fff2cc;strokeColor=#d6b656;fontSize=15;fontStyle=2;shadow=0;fontFamily=Helvetica;" parent="1" vertex="1">
          <mxGeometry x="1261.25" y="-464.75" width="174.15" height="40" as="geometry" />
        </mxCell>
        <mxCell id="4GEwqGWDiLAYL1l5WSFT-18" value="ViaWebsiteForm" style="rounded=1;whiteSpace=wrap;html=1;fillColor=#fff2cc;strokeColor=#d6b656;fontSize=15;fontStyle=2;shadow=0;fontFamily=Helvetica;" parent="1" vertex="1">
          <mxGeometry x="1349.62" y="-409.5" width="158.38" height="40" as="geometry" />
        </mxCell>
        <mxCell id="4GEwqGWDiLAYL1l5WSFT-19" value="" style="ellipse;whiteSpace=wrap;html=1;aspect=fixed;fontSize=16;fillColor=none;" parent="1" vertex="1">
          <mxGeometry x="1305.69" y="-256.5" width="320" height="320" as="geometry" />
        </mxCell>
        <mxCell id="4GEwqGWDiLAYL1l5WSFT-20" value="" style="ellipse;whiteSpace=wrap;html=1;aspect=fixed;fontSize=16;fillColor=none;" parent="1" vertex="1">
          <mxGeometry x="1182.54" y="63.5" width="290" height="290" as="geometry" />
        </mxCell>
        <mxCell id="4GEwqGWDiLAYL1l5WSFT-21" value="" style="ellipse;whiteSpace=wrap;html=1;aspect=fixed;fontSize=16;fillColor=none;" parent="1" vertex="1">
          <mxGeometry x="1113.59" y="-136.5" width="170" height="170" as="geometry" />
        </mxCell>
        <mxCell id="4GEwqGWDiLAYL1l5WSFT-22" value="" style="ellipse;whiteSpace=wrap;html=1;aspect=fixed;fontSize=16;fillColor=none;" parent="1" vertex="1">
          <mxGeometry x="1083.8499999999997" y="-306.5" width="145" height="145" as="geometry" />
        </mxCell>
        <mxCell id="4GEwqGWDiLAYL1l5WSFT-23" value="" style="ellipse;whiteSpace=wrap;html=1;aspect=fixed;fontSize=16;fillColor=none;" parent="1" vertex="1">
          <mxGeometry x="1230" y="-561.25" width="300" height="300" as="geometry" />
        </mxCell>
        <mxCell id="4GEwqGWDiLAYL1l5WSFT-24" value="" style="ellipse;whiteSpace=wrap;html=1;aspect=fixed;fontSize=16;fillColor=none;" parent="1" vertex="1">
          <mxGeometry x="913.65" y="-688.7499999999999" width="234.75" height="234.75" as="geometry" />
        </mxCell>
        <mxCell id="4GEwqGWDiLAYL1l5WSFT-25" value="" style="ellipse;whiteSpace=wrap;html=1;aspect=fixed;fontSize=16;fillColor=none;" parent="1" vertex="1">
          <mxGeometry x="1157.3799999999999" y="-688.75" width="153.25" height="153.25" as="geometry" />
        </mxCell>
        <mxCell id="4GEwqGWDiLAYL1l5WSFT-26" value="" style="ellipse;whiteSpace=wrap;html=1;aspect=fixed;fontSize=16;fillColor=none;" parent="1" vertex="1">
          <mxGeometry x="685.25" y="-673" width="214.75" height="214.75" as="geometry" />
        </mxCell>
        <mxCell id="4GEwqGWDiLAYL1l5WSFT-27" value="" style="ellipse;whiteSpace=wrap;html=1;aspect=fixed;fontSize=16;fillColor=none;" parent="1" vertex="1">
          <mxGeometry x="1182.54" y="360.5" width="205" height="205" as="geometry" />
        </mxCell>
        <mxCell id="4GEwqGWDiLAYL1l5WSFT-28" value="" style="ellipse;whiteSpace=wrap;html=1;aspect=fixed;fontSize=16;fillColor=none;" parent="1" vertex="1">
          <mxGeometry x="973.58" y="196" width="189" height="189" as="geometry" />
        </mxCell>
        <mxCell id="4GEwqGWDiLAYL1l5WSFT-29" value="" style="ellipse;whiteSpace=wrap;html=1;aspect=fixed;fontSize=16;fillColor=none;" parent="1" vertex="1">
          <mxGeometry x="1109.51" y="571" width="249" height="249" as="geometry" />
        </mxCell>
        <mxCell id="4GEwqGWDiLAYL1l5WSFT-30" value="" style="ellipse;whiteSpace=wrap;html=1;aspect=fixed;fontSize=16;fillColor=none;" parent="1" vertex="1">
          <mxGeometry x="940" y="720" width="180" height="180" as="geometry" />
        </mxCell>
        <mxCell id="4GEwqGWDiLAYL1l5WSFT-31" value="" style="ellipse;whiteSpace=wrap;html=1;aspect=fixed;fontSize=16;fillColor=none;" parent="1" vertex="1">
          <mxGeometry x="-685" y="695.5" width="285.5" height="285.5" as="geometry" />
        </mxCell>
        <mxCell id="4GEwqGWDiLAYL1l5WSFT-32" value="" style="ellipse;whiteSpace=wrap;html=1;aspect=fixed;fontSize=16;fillColor=none;" parent="1" vertex="1">
          <mxGeometry x="-900" y="270" width="260" height="260" as="geometry" />
        </mxCell>
        <mxCell id="4GEwqGWDiLAYL1l5WSFT-33" value="" style="ellipse;whiteSpace=wrap;html=1;aspect=fixed;fontSize=16;fillColor=none;" parent="1" vertex="1">
          <mxGeometry x="-934.25" y="555.5" width="274.5" height="274.5" as="geometry" />
        </mxCell>
        <mxCell id="4GEwqGWDiLAYL1l5WSFT-34" value="" style="ellipse;whiteSpace=wrap;html=1;aspect=fixed;fontSize=16;fillColor=none;" parent="1" vertex="1">
          <mxGeometry x="408.37" y="-464.63" width="150.25" height="150.25" as="geometry" />
        </mxCell>
        <mxCell id="4GEwqGWDiLAYL1l5WSFT-36" value="DataProvision" style="rounded=1;whiteSpace=wrap;html=1;fontSize=15;fontStyle=2;fillColor=#fff2cc;strokeColor=#d6b656;shadow=0;fontFamily=Helvetica;" parent="1" vertex="1">
          <mxGeometry x="1197.28" y="214.5" width="108.26" height="40" as="geometry" />
        </mxCell>
        <mxCell id="eUonAB1_qK4CQp04J9bD-1" value="DataProtection" style="rounded=1;whiteSpace=wrap;html=1;fillColor=#e1d5e7;strokeColor=#9673a6;fontSize=15;fontStyle=2;shadow=0;fontFamily=Helvetica;" vertex="1" parent="1">
          <mxGeometry x="141.38" y="-200" width="107.63" height="40" as="geometry" />
        </mxCell>
        <mxCell id="eUonAB1_qK4CQp04J9bD-2" value="" style="endArrow=block;html=1;endFill=0;fontSize=15;fontStyle=2;curved=1;shadow=0;fontFamily=Helvetica;" edge="1" parent="1" source="eUonAB1_qK4CQp04J9bD-1" target="CcIX3b4XJO-R3UWU8Bb1-147">
          <mxGeometry width="50" height="50" relative="1" as="geometry">
            <mxPoint x="85" y="-218" as="sourcePoint" />
            <mxPoint x="227" y="-246" as="targetPoint" />
            <Array as="points">
              <mxPoint x="230" y="-220" />
            </Array>
          </mxGeometry>
        </mxCell>
        <mxCell id="eUonAB1_qK4CQp04J9bD-3" value="" style="endArrow=classic;html=1;dashed=1;fontSize=15;fontStyle=2;fillColor=#e1d5e7;strokeColor=#9673a6;shadow=0;strokeWidth=2;fontFamily=Helvetica;" edge="1" parent="1" source="SCjSau2hbUJthauaJq3d-1" target="eUonAB1_qK4CQp04J9bD-1">
          <mxGeometry width="50" height="50" relative="1" as="geometry">
            <mxPoint x="-270" y="-116" as="sourcePoint" />
            <mxPoint x="48" y="-191" as="targetPoint" />
          </mxGeometry>
        </mxCell>
        <mxCell id="eUonAB1_qK4CQp04J9bD-4" value="" style="endArrow=classic;html=1;dashed=1;fontSize=15;fontStyle=2;fillColor=#f5f5f5;strokeColor=#666666;shadow=0;strokeWidth=2;fontFamily=Helvetica;" edge="1" parent="1" source="eUonAB1_qK4CQp04J9bD-1" target="4Ul_LHpnBtSVW_RfF9cD-1">
          <mxGeometry width="50" height="50" relative="1" as="geometry">
            <mxPoint x="298" y="-80" as="sourcePoint" />
            <mxPoint x="-211" y="760" as="targetPoint" />
          </mxGeometry>
        </mxCell>
        <mxCell id="eUonAB1_qK4CQp04J9bD-7" value="" style="endArrow=classic;html=1;dashed=1;fontSize=15;fontStyle=2;fillColor=#dae8fc;strokeColor=#6c8ebf;shadow=0;strokeWidth=2;fontFamily=Helvetica;curved=1;" edge="1" parent="1" source="CcIX3b4XJO-R3UWU8Bb1-169" target="SCjSau2hbUJthauaJq3d-1">
          <mxGeometry width="50" height="50" relative="1" as="geometry">
            <mxPoint x="366" y="-12" as="sourcePoint" />
            <mxPoint x="-270" y="103" as="targetPoint" />
            <Array as="points">
              <mxPoint x="50" y="-90" />
            </Array>
          </mxGeometry>
        </mxCell>
        <mxCell id="eUonAB1_qK4CQp04J9bD-10" value="" style="endArrow=classic;html=1;dashed=1;fontSize=15;fontStyle=2;fillColor=#e1d5e7;strokeColor=#9673a6;shadow=0;strokeWidth=2;fontFamily=Helvetica;curved=1;" edge="1" parent="1" source="CcIX3b4XJO-R3UWU8Bb1-53" target="CcIX3b4XJO-R3UWU8Bb1-169">
          <mxGeometry width="50" height="50" relative="1" as="geometry">
            <mxPoint x="-270" y="-107" as="sourcePoint" />
            <mxPoint x="270" y="-101" as="targetPoint" />
            <Array as="points">
              <mxPoint x="40" y="50" />
            </Array>
          </mxGeometry>
        </mxCell>
        <mxCell id="eUonAB1_qK4CQp04J9bD-11" value="Marketing" style="rounded=1;whiteSpace=wrap;html=1;fillColor=#6a00ff;strokeColor=#3700CC;fontSize=15;fontStyle=2;fontColor=#ffffff;shadow=0;fontFamily=Helvetica;" vertex="1" parent="1">
          <mxGeometry x="433.67999999999995" y="-578.64" width="86.93" height="40" as="geometry" />
        </mxCell>
        <mxCell id="eUonAB1_qK4CQp04J9bD-12" value="Analytics" style="rounded=1;whiteSpace=wrap;html=1;fillColor=#6a00ff;strokeColor=#3700CC;fontSize=15;fontStyle=2;fontColor=#ffffff;shadow=0;fontFamily=Helvetica;" vertex="1" parent="1">
          <mxGeometry x="420.39" y="-638.64" width="86.93" height="40" as="geometry" />
        </mxCell>
        <mxCell id="eUonAB1_qK4CQp04J9bD-13" value="Security" style="rounded=1;whiteSpace=wrap;html=1;fillColor=#6a00ff;strokeColor=#3700CC;fontSize=15;fontStyle=2;fontColor=#ffffff;shadow=0;fontFamily=Helvetica;" vertex="1" parent="1">
          <mxGeometry x="532.13" y="-655.89" width="86.93" height="40" as="geometry" />
        </mxCell>
        <mxCell id="eUonAB1_qK4CQp04J9bD-14" value="Research" style="rounded=1;whiteSpace=wrap;html=1;fillColor=#6a00ff;strokeColor=#3700CC;fontSize=15;fontStyle=2;fontColor=#ffffff;shadow=0;fontFamily=Helvetica;" vertex="1" parent="1">
          <mxGeometry x="542.8199999999999" y="-591.77" width="83.5" height="40" as="geometry" />
        </mxCell>
        <mxCell id="eUonAB1_qK4CQp04J9bD-15" value="" style="ellipse;whiteSpace=wrap;html=1;aspect=fixed;fontSize=16;fillColor=none;" vertex="1" parent="1">
          <mxGeometry x="400.05" y="-720" width="239.99" height="239.99" as="geometry" />
        </mxCell>
        <mxCell id="eUonAB1_qK4CQp04J9bD-16" value="" style="endArrow=block;html=1;endFill=0;fontSize=15;fontStyle=2;shadow=0;fontFamily=Helvetica;" edge="1" parent="1" source="eUonAB1_qK4CQp04J9bD-15" target="eUonAB1_qK4CQp04J9bD-19">
          <mxGeometry width="50" height="50" relative="1" as="geometry">
            <mxPoint x="428.34000000000003" y="-479" as="sourcePoint" />
            <mxPoint x="462.99152093373993" y="-467.5" as="targetPoint" />
          </mxGeometry>
        </mxCell>
        <mxCell id="eUonAB1_qK4CQp04J9bD-19" value="ServiceEnhancement" style="rounded=1;whiteSpace=wrap;html=1;fillColor=#6a00ff;strokeColor=#3700CC;fontSize=15;fontStyle=2;fontColor=#ffffff;shadow=0;fontFamily=Helvetica;" vertex="1" parent="1">
          <mxGeometry x="250" y="-524.75" width="155.96" height="40" as="geometry" />
        </mxCell>
        <mxCell id="eUonAB1_qK4CQp04J9bD-20" value="" style="endArrow=block;html=1;endFill=0;fontSize=15;fontStyle=2;shadow=0;fontFamily=Helvetica;" edge="1" parent="1" source="eUonAB1_qK4CQp04J9bD-19" target="CcIX3b4XJO-R3UWU8Bb1-92">
          <mxGeometry width="50" height="50" relative="1" as="geometry">
            <mxPoint x="180" y="-475" as="sourcePoint" />
            <mxPoint x="228" y="-444" as="targetPoint" />
          </mxGeometry>
        </mxCell>
      </root>
    </mxGraphModel>
  </diagram>
  <diagram id="2GY_LqN925GJ1ya2X8vb" name="core">
    <mxGraphModel dx="1628" dy="2409" grid="1" gridSize="5" guides="1" tooltips="1" connect="1" arrows="1" fold="1" page="1" pageScale="1" pageWidth="827" pageHeight="1169" math="0" shadow="0">
      <root>
        <mxCell id="WZdzwFJjdNPOz50fPCCO-0" />
        <mxCell id="WZdzwFJjdNPOz50fPCCO-1" parent="WZdzwFJjdNPOz50fPCCO-0" />
        <mxCell id="ylh7KYoRjx575zi43ae7-0" value="Privacy_Policy" style="rounded=0;whiteSpace=wrap;html=1;fontSize=12;fontStyle=1;fillColor=#d80073;fontColor=#ffffff;strokeColor=#A50040;" parent="WZdzwFJjdNPOz50fPCCO-1" vertex="1">
          <mxGeometry x="715" y="151" width="177.5" height="40" as="geometry" />
        </mxCell>
        <mxCell id="ylh7KYoRjx575zi43ae7-1" value="Mechanism" style="rounded=0;whiteSpace=wrap;html=1;fillColor=#fff2cc;strokeColor=#d6b656;fontSize=12;fontStyle=1" parent="WZdzwFJjdNPOz50fPCCO-1" vertex="1">
          <mxGeometry x="1080" y="272.67" width="80" height="40" as="geometry" />
        </mxCell>
        <mxCell id="ylh7KYoRjx575zi43ae7-2" value="Activity" style="rounded=0;whiteSpace=wrap;html=1;fillColor=#e1d5e7;strokeColor=#9673a6;fontSize=12;fontStyle=1" parent="WZdzwFJjdNPOz50fPCCO-1" vertex="1">
          <mxGeometry x="906.5" y="272.67" width="80" height="40" as="geometry" />
        </mxCell>
        <mxCell id="ylh7KYoRjx575zi43ae7-3" value="Agent" style="rounded=0;whiteSpace=wrap;html=1;fillColor=#dae8fc;strokeColor=#6c8ebf;fontSize=12;fontStyle=1" parent="WZdzwFJjdNPOz50fPCCO-1" vertex="1">
          <mxGeometry x="520" y="185" width="80" height="40" as="geometry" />
        </mxCell>
        <mxCell id="ylh7KYoRjx575zi43ae7-4" value="" style="endArrow=classic;html=1;dashed=1;fontSize=12;fontStyle=1" parent="WZdzwFJjdNPOz50fPCCO-1" source="ylh7KYoRjx575zi43ae7-0" target="ylh7KYoRjx575zi43ae7-3" edge="1">
          <mxGeometry width="50" height="50" relative="1" as="geometry">
            <mxPoint x="328.33333333333326" y="65" as="sourcePoint" />
            <mxPoint x="321.66666666666674" y="145" as="targetPoint" />
          </mxGeometry>
        </mxCell>
        <mxCell id="ylh7KYoRjx575zi43ae7-5" value="considersAgents" style="edgeLabel;html=1;align=center;verticalAlign=middle;resizable=0;points=[];fontSize=12;fontStyle=1;rotation=-8;" parent="ylh7KYoRjx575zi43ae7-4" vertex="1" connectable="0">
          <mxGeometry x="-0.478" relative="1" as="geometry">
            <mxPoint x="-25" y="-6" as="offset" />
          </mxGeometry>
        </mxCell>
        <mxCell id="ylh7KYoRjx575zi43ae7-6" value="" style="endArrow=classic;html=1;dashed=1;fontSize=12;fontStyle=1" parent="WZdzwFJjdNPOz50fPCCO-1" source="ylh7KYoRjx575zi43ae7-3" target="ylh7KYoRjx575zi43ae7-2" edge="1">
          <mxGeometry width="50" height="50" relative="1" as="geometry">
            <mxPoint x="374.9230769230767" y="300" as="sourcePoint" />
            <mxPoint x="540" y="150" as="targetPoint" />
            <Array as="points" />
          </mxGeometry>
        </mxCell>
        <mxCell id="ylh7KYoRjx575zi43ae7-7" value="initiatesActivity" style="edgeLabel;html=1;align=center;verticalAlign=middle;resizable=0;points=[];fontSize=12;fontStyle=1;rotation=16;" parent="ylh7KYoRjx575zi43ae7-6" vertex="1" connectable="0">
          <mxGeometry x="0.0216" y="-1" relative="1" as="geometry">
            <mxPoint x="-23" y="-17" as="offset" />
          </mxGeometry>
        </mxCell>
        <mxCell id="ylh7KYoRjx575zi43ae7-8" value="Data" style="rounded=0;whiteSpace=wrap;html=1;fillColor=#f5f5f5;fontColor=#333333;strokeColor=#666666;fontSize=12;fontStyle=1" parent="WZdzwFJjdNPOz50fPCCO-1" vertex="1">
          <mxGeometry x="1015" y="151" width="150" height="40" as="geometry" />
        </mxCell>
        <mxCell id="ylh7KYoRjx575zi43ae7-9" value="Legal_Basis" style="rounded=0;whiteSpace=wrap;html=1;fillColor=#fa6800;strokeColor=#C73500;fontSize=12;fontStyle=1;fontColor=#000000;" parent="WZdzwFJjdNPOz50fPCCO-1" vertex="1">
          <mxGeometry x="520" y="272.67" width="113.5" height="40" as="geometry" />
        </mxCell>
        <mxCell id="ylh7KYoRjx575zi43ae7-10" value="Data_Activity" style="rounded=0;whiteSpace=wrap;html=1;fillColor=#e1d5e7;strokeColor=#9673a6;fontSize=12;fontStyle=1" parent="WZdzwFJjdNPOz50fPCCO-1" vertex="1">
          <mxGeometry x="730" y="272.67" width="90" height="40" as="geometry" />
        </mxCell>
        <mxCell id="ylh7KYoRjx575zi43ae7-11" value="" style="endArrow=classic;html=1;dashed=1;fontSize=12;fontStyle=1" parent="WZdzwFJjdNPOz50fPCCO-1" source="ylh7KYoRjx575zi43ae7-10" target="ylh7KYoRjx575zi43ae7-9" edge="1">
          <mxGeometry width="50" height="50" relative="1" as="geometry">
            <mxPoint x="898.2973333333334" y="315.08000000000004" as="sourcePoint" />
            <mxPoint x="897.6226666666666" y="205.07999999999993" as="targetPoint" />
            <Array as="points" />
          </mxGeometry>
        </mxCell>
        <mxCell id="ylh7KYoRjx575zi43ae7-12" value="hasLegalBasis" style="edgeLabel;html=1;align=center;verticalAlign=middle;resizable=0;points=[];fontSize=12;fontStyle=1;rotation=0;" parent="ylh7KYoRjx575zi43ae7-11" vertex="1" connectable="0">
          <mxGeometry x="-0.3527" relative="1" as="geometry">
            <mxPoint x="-14" y="-13" as="offset" />
          </mxGeometry>
        </mxCell>
        <mxCell id="ylh7KYoRjx575zi43ae7-13" value="" style="endArrow=classic;html=1;dashed=1;fontSize=12;fontStyle=1" parent="WZdzwFJjdNPOz50fPCCO-1" source="ylh7KYoRjx575zi43ae7-2" target="ylh7KYoRjx575zi43ae7-1" edge="1">
          <mxGeometry width="50" height="50" relative="1" as="geometry">
            <mxPoint x="970.9835124795045" y="309" as="sourcePoint" />
            <mxPoint x="1180.5164875204955" y="19.659999999999854" as="targetPoint" />
            <Array as="points" />
          </mxGeometry>
        </mxCell>
        <mxCell id="ylh7KYoRjx575zi43ae7-14" value="hasMechanism" style="edgeLabel;html=1;align=center;verticalAlign=middle;resizable=0;points=[];fontSize=12;fontStyle=1" parent="ylh7KYoRjx575zi43ae7-13" vertex="1" connectable="0">
          <mxGeometry x="-0.5325" y="1" relative="1" as="geometry">
            <mxPoint x="25" y="-12" as="offset" />
          </mxGeometry>
        </mxCell>
        <mxCell id="ylh7KYoRjx575zi43ae7-15" value="" style="endArrow=classic;html=1;dashed=1;fontSize=12;fontStyle=1" parent="WZdzwFJjdNPOz50fPCCO-1" source="ylh7KYoRjx575zi43ae7-2" target="ylh7KYoRjx575zi43ae7-8" edge="1">
          <mxGeometry width="50" height="50" relative="1" as="geometry">
            <mxPoint x="945.4958158995814" y="309" as="sourcePoint" />
            <mxPoint x="1160" y="90" as="targetPoint" />
          </mxGeometry>
        </mxCell>
        <mxCell id="ylh7KYoRjx575zi43ae7-16" value="appliesToData" style="edgeLabel;html=1;align=center;verticalAlign=middle;resizable=0;points=[];fontSize=12;fontStyle=1;rotation=-43;" parent="ylh7KYoRjx575zi43ae7-15" vertex="1" connectable="0">
          <mxGeometry x="-0.3527" relative="1" as="geometry">
            <mxPoint x="6" y="-23" as="offset" />
          </mxGeometry>
        </mxCell>
        <mxCell id="ylh7KYoRjx575zi43ae7-17" value="" style="endArrow=classic;html=1;dashed=1;fontSize=12;fontStyle=1" parent="WZdzwFJjdNPOz50fPCCO-1" source="ylh7KYoRjx575zi43ae7-3" target="ylh7KYoRjx575zi43ae7-8" edge="1">
          <mxGeometry width="50" height="50" relative="1" as="geometry">
            <mxPoint x="723" y="235" as="sourcePoint" />
            <mxPoint x="808" y="235" as="targetPoint" />
            <Array as="points">
              <mxPoint x="692" y="140" />
              <mxPoint x="910" y="140" />
            </Array>
          </mxGeometry>
        </mxCell>
        <mxCell id="ylh7KYoRjx575zi43ae7-18" value="OwnsData" style="edgeLabel;html=1;align=center;verticalAlign=middle;resizable=0;points=[];fontSize=12;fontStyle=1;rotation=0;" parent="ylh7KYoRjx575zi43ae7-17" vertex="1" connectable="0">
          <mxGeometry x="-0.478" relative="1" as="geometry">
            <mxPoint x="90" y="-11" as="offset" />
          </mxGeometry>
        </mxCell>
        <mxCell id="zXngsM7vTF6sLYAGvrFX-0" value="" style="endArrow=block;html=1;endFill=0;fontSize=12;fontStyle=1" parent="WZdzwFJjdNPOz50fPCCO-1" source="ylh7KYoRjx575zi43ae7-2" target="ylh7KYoRjx575zi43ae7-10" edge="1">
          <mxGeometry width="50" height="50" relative="1" as="geometry">
            <mxPoint x="932.1496195704517" y="312.6700000000001" as="sourcePoint" />
            <mxPoint x="886.3503804295483" y="376.5" as="targetPoint" />
          </mxGeometry>
        </mxCell>
        <mxCell id="LRDkmxGALtAIpBS24DPW-0" value="" style="endArrow=classic;html=1;dashed=1;fontSize=12;fontStyle=1" parent="WZdzwFJjdNPOz50fPCCO-1" source="ylh7KYoRjx575zi43ae7-0" target="ylh7KYoRjx575zi43ae7-2" edge="1">
          <mxGeometry width="50" height="50" relative="1" as="geometry">
            <mxPoint x="823.2154666939387" y="166" as="sourcePoint" />
            <mxPoint x="927.0345333060613" y="272.6700000000001" as="targetPoint" />
            <Array as="points" />
          </mxGeometry>
        </mxCell>
        <mxCell id="LRDkmxGALtAIpBS24DPW-1" value="considersActivity" style="edgeLabel;html=1;align=center;verticalAlign=middle;resizable=0;points=[];fontSize=12;fontStyle=1;rotation=41;" parent="LRDkmxGALtAIpBS24DPW-0" vertex="1" connectable="0">
          <mxGeometry x="0.2881" relative="1" as="geometry">
            <mxPoint x="6" y="-14" as="offset" />
          </mxGeometry>
        </mxCell>
        <mxCell id="LRDkmxGALtAIpBS24DPW-2" value="" style="endArrow=classic;html=1;dashed=1;fontSize=12;fontStyle=1" parent="WZdzwFJjdNPOz50fPCCO-1" source="ylh7KYoRjx575zi43ae7-0" target="ylh7KYoRjx575zi43ae7-8" edge="1">
          <mxGeometry width="50" height="50" relative="1" as="geometry">
            <mxPoint x="892.5" y="152.87852084972474" as="sourcePoint" />
            <mxPoint x="1046.5" y="121.43392604248629" as="targetPoint" />
            <Array as="points" />
          </mxGeometry>
        </mxCell>
        <mxCell id="LRDkmxGALtAIpBS24DPW-3" value="considersData" style="edgeLabel;html=1;align=center;verticalAlign=middle;resizable=0;points=[];fontSize=12;fontStyle=1;rotation=0;" parent="LRDkmxGALtAIpBS24DPW-2" vertex="1" connectable="0">
          <mxGeometry x="0.4732" y="1" relative="1" as="geometry">
            <mxPoint x="-43" y="-10" as="offset" />
          </mxGeometry>
        </mxCell>
      </root>
    </mxGraphModel>
  </diagram>
  <diagram id="0CmPv3adzWf2cU-INm36" name="consequence">
    <mxGraphModel dx="801" dy="2409" grid="1" gridSize="5" guides="1" tooltips="1" connect="1" arrows="1" fold="1" page="1" pageScale="1" pageWidth="827" pageHeight="1169" math="0" shadow="0">
      <root>
        <mxCell id="flpCsiOlo4Fyr_GIsul0-0" />
        <mxCell id="flpCsiOlo4Fyr_GIsul0-1" parent="flpCsiOlo4Fyr_GIsul0-0" />
        <mxCell id="WLaBalmtFEmKK8rrNGGv-23" value="Breach_Investigation_Time" style="rounded=0;whiteSpace=wrap;html=1;fillColor=#ffe6cc;strokeColor=#d79b00;fontSize=12;fontStyle=1" parent="flpCsiOlo4Fyr_GIsul0-1" vertex="1">
          <mxGeometry x="1110" y="620" width="160" height="40" as="geometry" />
        </mxCell>
        <mxCell id="WLaBalmtFEmKK8rrNGGv-24" value="" style="endArrow=classic;html=1;dashed=1;fontSize=12;fontStyle=1" parent="flpCsiOlo4Fyr_GIsul0-1" target="WLaBalmtFEmKK8rrNGGv-23" edge="1">
          <mxGeometry width="50" height="50" relative="1" as="geometry">
            <mxPoint x="1707.9390388608713" y="406.8399999999999" as="sourcePoint" />
            <mxPoint x="32.69" y="374.26" as="targetPoint" />
            <Array as="points">
              <mxPoint x="1732.69" y="454.26" />
              <mxPoint x="1733" y="710" />
              <mxPoint x="1330" y="710" />
              <mxPoint x="1290" y="640" />
            </Array>
          </mxGeometry>
        </mxCell>
        <mxCell id="WLaBalmtFEmKK8rrNGGv-25" value="hasBreachInvestigationTime" style="edgeLabel;html=1;align=center;verticalAlign=middle;resizable=0;points=[];fontSize=12;fontStyle=1" parent="WLaBalmtFEmKK8rrNGGv-24" vertex="1" connectable="0">
          <mxGeometry x="0.2445" relative="1" as="geometry">
            <mxPoint x="111" y="-11" as="offset" />
          </mxGeometry>
        </mxCell>
        <mxCell id="8mbBkiOHkQzHWkMKOYzb-0" value="Policy_Change_Activity" style="rounded=0;whiteSpace=wrap;html=1;fillColor=#e1d5e7;strokeColor=#9673a6;fontSize=12;fontStyle=1" parent="flpCsiOlo4Fyr_GIsul0-1" vertex="1">
          <mxGeometry x="1222" y="289.85" width="159" height="40" as="geometry" />
        </mxCell>
        <mxCell id="8mbBkiOHkQzHWkMKOYzb-1" value="Consent_Activity" style="rounded=0;whiteSpace=wrap;html=1;fillColor=#e1d5e7;strokeColor=#9673a6;fontSize=12;fontStyle=1" parent="flpCsiOlo4Fyr_GIsul0-1" vertex="1">
          <mxGeometry x="1120" y="399.63" width="109" height="40" as="geometry" />
        </mxCell>
        <mxCell id="8mbBkiOHkQzHWkMKOYzb-2" value="Control_Activity" style="rounded=0;whiteSpace=wrap;html=1;fillColor=#e1d5e7;strokeColor=#9673a6;fontSize=12;fontStyle=1" parent="flpCsiOlo4Fyr_GIsul0-1" vertex="1">
          <mxGeometry x="1101" y="293.79" width="99" height="40" as="geometry" />
        </mxCell>
        <mxCell id="8mbBkiOHkQzHWkMKOYzb-3" value="" style="endArrow=block;html=1;endFill=0;fontSize=12;fontStyle=1" parent="flpCsiOlo4Fyr_GIsul0-1" source="8mbBkiOHkQzHWkMKOYzb-2" target="8mbBkiOHkQzHWkMKOYzb-1" edge="1">
          <mxGeometry width="50" height="50" relative="1" as="geometry">
            <mxPoint x="749.92" y="490.21" as="sourcePoint" />
            <mxPoint x="799.92" y="440.21" as="targetPoint" />
          </mxGeometry>
        </mxCell>
        <mxCell id="8mbBkiOHkQzHWkMKOYzb-4" value="" style="endArrow=block;html=1;endFill=0;fontSize=12;fontStyle=1" parent="flpCsiOlo4Fyr_GIsul0-1" source="8mbBkiOHkQzHWkMKOYzb-2" edge="1" target="8mbBkiOHkQzHWkMKOYzb-0">
          <mxGeometry width="50" height="50" relative="1" as="geometry">
            <mxPoint x="1029.2533333333336" y="393.36" as="sourcePoint" />
            <mxPoint x="1241" y="313.7899999999999" as="targetPoint" />
          </mxGeometry>
        </mxCell>
        <mxCell id="8mbBkiOHkQzHWkMKOYzb-5" value="Breach_Activity" style="rounded=0;whiteSpace=wrap;html=1;fillColor=#e1d5e7;strokeColor=#9673a6;fontSize=12;fontStyle=1" parent="flpCsiOlo4Fyr_GIsul0-1" vertex="1">
          <mxGeometry x="1241" y="226.94000000000005" width="114.5" height="40" as="geometry" />
        </mxCell>
        <mxCell id="8mbBkiOHkQzHWkMKOYzb-6" value="Breach_Consequence" style="rounded=0;whiteSpace=wrap;html=1;fillColor=#1ba1e2;strokeColor=#006EAF;fontSize=12;fontStyle=1;fontColor=#ffffff;" parent="flpCsiOlo4Fyr_GIsul0-1" vertex="1">
          <mxGeometry x="1426" y="400" width="139" height="40" as="geometry" />
        </mxCell>
        <mxCell id="8mbBkiOHkQzHWkMKOYzb-7" value="Remove_Compromised_Information" style="rounded=0;whiteSpace=wrap;html=1;fillColor=#1ba1e2;strokeColor=#006EAF;fontSize=12;fontStyle=1;fontColor=#ffffff;" parent="flpCsiOlo4Fyr_GIsul0-1" vertex="1">
          <mxGeometry x="1534" y="283.15000000000003" width="226.5" height="40" as="geometry" />
        </mxCell>
        <mxCell id="8mbBkiOHkQzHWkMKOYzb-8" value="Compensation" style="rounded=0;whiteSpace=wrap;html=1;fillColor=#1ba1e2;strokeColor=#006EAF;fontSize=12;fontStyle=1;fontColor=#ffffff;" parent="flpCsiOlo4Fyr_GIsul0-1" vertex="1">
          <mxGeometry x="1597" y="333.79" width="96.5" height="40" as="geometry" />
        </mxCell>
        <mxCell id="8mbBkiOHkQzHWkMKOYzb-9" value="Breach_Investigation" style="rounded=0;whiteSpace=wrap;html=1;fontSize=12;fontStyle=1;fillColor=#1ba1e2;strokeColor=#006EAF;fontColor=#ffffff;" parent="flpCsiOlo4Fyr_GIsul0-1" vertex="1">
          <mxGeometry x="1597" y="385.25" width="140" height="40" as="geometry" />
        </mxCell>
        <mxCell id="8mbBkiOHkQzHWkMKOYzb-10" value="" style="endArrow=block;html=1;endFill=0;fontSize=12;fontStyle=1" parent="flpCsiOlo4Fyr_GIsul0-1" source="8mbBkiOHkQzHWkMKOYzb-6" target="8mbBkiOHkQzHWkMKOYzb-7" edge="1">
          <mxGeometry width="50" height="50" relative="1" as="geometry">
            <mxPoint x="1839.4733333333331" y="389.25" as="sourcePoint" />
            <mxPoint x="1812.8066666666664" y="369.25" as="targetPoint" />
            <Array as="points">
              <mxPoint x="1499" y="303" />
            </Array>
          </mxGeometry>
        </mxCell>
        <mxCell id="8mbBkiOHkQzHWkMKOYzb-11" value="" style="endArrow=block;html=1;endFill=0;fontSize=12;fontStyle=1" parent="flpCsiOlo4Fyr_GIsul0-1" source="8mbBkiOHkQzHWkMKOYzb-6" target="8mbBkiOHkQzHWkMKOYzb-8" edge="1">
          <mxGeometry width="50" height="50" relative="1" as="geometry">
            <mxPoint x="1849.4733333333331" y="399.25" as="sourcePoint" />
            <mxPoint x="1822.8066666666664" y="379.25" as="targetPoint" />
            <Array as="points">
              <mxPoint x="1559" y="354" />
            </Array>
          </mxGeometry>
        </mxCell>
        <mxCell id="8mbBkiOHkQzHWkMKOYzb-12" value="" style="endArrow=block;html=1;endFill=0;fontSize=12;fontStyle=1" parent="flpCsiOlo4Fyr_GIsul0-1" source="8mbBkiOHkQzHWkMKOYzb-6" target="8mbBkiOHkQzHWkMKOYzb-9" edge="1">
          <mxGeometry width="50" height="50" relative="1" as="geometry">
            <mxPoint x="1859.4733333333331" y="409.25" as="sourcePoint" />
            <mxPoint x="1832.8066666666664" y="389.25" as="targetPoint" />
            <Array as="points">
              <mxPoint x="1580" y="400" />
            </Array>
          </mxGeometry>
        </mxCell>
        <mxCell id="8mbBkiOHkQzHWkMKOYzb-13" value="" style="endArrow=classic;html=1;dashed=1;fontSize=12;fontStyle=1" parent="flpCsiOlo4Fyr_GIsul0-1" source="8mbBkiOHkQzHWkMKOYzb-5" target="8mbBkiOHkQzHWkMKOYzb-6" edge="1">
          <mxGeometry width="50" height="50" relative="1" as="geometry">
            <mxPoint x="1830" y="349.84000000000003" as="sourcePoint" />
            <mxPoint x="1750" y="334.84000000000003" as="targetPoint" />
            <Array as="points">
              <mxPoint x="1420" y="250" />
            </Array>
          </mxGeometry>
        </mxCell>
        <mxCell id="8mbBkiOHkQzHWkMKOYzb-14" value="hasBreachConsequence" style="edgeLabel;html=1;align=center;verticalAlign=middle;resizable=0;points=[];fontSize=12;fontStyle=1;rotation=66;" parent="8mbBkiOHkQzHWkMKOYzb-13" vertex="1" connectable="0">
          <mxGeometry x="-0.5426" y="-3" relative="1" as="geometry">
            <mxPoint x="53" y="57" as="offset" />
          </mxGeometry>
        </mxCell>
        <mxCell id="8mbBkiOHkQzHWkMKOYzb-15" value="Give_Consent" style="rounded=0;whiteSpace=wrap;html=1;fillColor=#e1d5e7;strokeColor=#9673a6;fontSize=12;fontStyle=1" parent="flpCsiOlo4Fyr_GIsul0-1" vertex="1">
          <mxGeometry x="1210" y="487.02" width="99" height="40" as="geometry" />
        </mxCell>
        <mxCell id="8mbBkiOHkQzHWkMKOYzb-16" value="Withdraw_Consent" style="rounded=0;whiteSpace=wrap;html=1;fillColor=#e1d5e7;strokeColor=#9673a6;fontSize=12;fontStyle=1" parent="flpCsiOlo4Fyr_GIsul0-1" vertex="1">
          <mxGeometry x="1210" y="548.01" width="123.5" height="40" as="geometry" />
        </mxCell>
        <mxCell id="8mbBkiOHkQzHWkMKOYzb-17" value="" style="endArrow=block;html=1;endFill=0;fontSize=12;fontStyle=1" parent="flpCsiOlo4Fyr_GIsul0-1" source="8mbBkiOHkQzHWkMKOYzb-1" target="8mbBkiOHkQzHWkMKOYzb-15" edge="1">
          <mxGeometry width="50" height="50" relative="1" as="geometry">
            <mxPoint x="948.25" y="453.71720930232584" as="sourcePoint" />
            <mxPoint x="1215.75" y="604.88" as="targetPoint" />
            <Array as="points">
              <mxPoint x="1185" y="507" />
              <mxPoint x="1210" y="507.01" />
            </Array>
          </mxGeometry>
        </mxCell>
        <mxCell id="8mbBkiOHkQzHWkMKOYzb-18" value="" style="endArrow=block;html=1;endFill=0;fontSize=12;fontStyle=1" parent="flpCsiOlo4Fyr_GIsul0-1" source="8mbBkiOHkQzHWkMKOYzb-1" target="8mbBkiOHkQzHWkMKOYzb-16" edge="1">
          <mxGeometry width="50" height="50" relative="1" as="geometry">
            <mxPoint x="1160.9642857142862" y="544.88" as="sourcePoint" />
            <mxPoint x="1199.5357142857142" y="574.88" as="targetPoint" />
            <Array as="points">
              <mxPoint x="1175" y="568" />
              <mxPoint x="1210" y="568.01" />
            </Array>
          </mxGeometry>
        </mxCell>
        <mxCell id="8mbBkiOHkQzHWkMKOYzb-19" value="Consequence" style="rounded=0;whiteSpace=wrap;html=1;fillColor=#1ba1e2;strokeColor=#006EAF;fontSize=12;fontStyle=1;fontColor=#ffffff;" parent="flpCsiOlo4Fyr_GIsul0-1" vertex="1">
          <mxGeometry x="1619.5" y="484" width="95" height="40" as="geometry" />
        </mxCell>
        <mxCell id="8mbBkiOHkQzHWkMKOYzb-20" value="" style="endArrow=block;html=1;endFill=0;fontSize=12;fontStyle=1" parent="flpCsiOlo4Fyr_GIsul0-1" source="8mbBkiOHkQzHWkMKOYzb-19" target="8mbBkiOHkQzHWkMKOYzb-6" edge="1">
          <mxGeometry width="50" height="50" relative="1" as="geometry">
            <mxPoint x="1484.9717391304348" y="278.87" as="sourcePoint" />
            <mxPoint x="1529.808260869565" y="249.87" as="targetPoint" />
            <Array as="points">
              <mxPoint x="1590" y="433" />
            </Array>
          </mxGeometry>
        </mxCell>
        <mxCell id="8mbBkiOHkQzHWkMKOYzb-21" value="User_Choice_Consequence" style="rounded=0;whiteSpace=wrap;html=1;fillColor=#1ba1e2;strokeColor=#006EAF;fontSize=12;fontStyle=1;fontColor=#ffffff;" parent="flpCsiOlo4Fyr_GIsul0-1" vertex="1">
          <mxGeometry x="1388.5" y="548.01" width="192" height="40" as="geometry" />
        </mxCell>
        <mxCell id="8mbBkiOHkQzHWkMKOYzb-22" value="" style="endArrow=block;html=1;endFill=0;fontSize=12;fontStyle=1" parent="flpCsiOlo4Fyr_GIsul0-1" source="8mbBkiOHkQzHWkMKOYzb-19" target="8mbBkiOHkQzHWkMKOYzb-21" edge="1">
          <mxGeometry width="50" height="50" relative="1" as="geometry">
            <mxPoint x="1042.1686572438166" y="428" as="sourcePoint" />
            <mxPoint x="1041.4513427561837" y="529.5" as="targetPoint" />
            <Array as="points">
              <mxPoint x="1617" y="568" />
            </Array>
          </mxGeometry>
        </mxCell>
        <mxCell id="8mbBkiOHkQzHWkMKOYzb-23" value="" style="endArrow=classic;html=1;dashed=1;fontSize=12;fontStyle=1" parent="flpCsiOlo4Fyr_GIsul0-1" source="8mbBkiOHkQzHWkMKOYzb-1" target="8mbBkiOHkQzHWkMKOYzb-21" edge="1">
          <mxGeometry width="50" height="50" relative="1" as="geometry">
            <mxPoint x="1176.5" y="356.7902149740553" as="sourcePoint" />
            <mxPoint x="1387" y="381.7568569310606" as="targetPoint" />
            <Array as="points" />
          </mxGeometry>
        </mxCell>
        <mxCell id="8mbBkiOHkQzHWkMKOYzb-24" value="hasUserChoiceConsequence" style="edgeLabel;html=1;align=center;verticalAlign=middle;resizable=0;points=[];fontSize=12;fontStyle=1;rotation=26;" parent="8mbBkiOHkQzHWkMKOYzb-23" vertex="1" connectable="0">
          <mxGeometry x="-0.5426" y="-3" relative="1" as="geometry">
            <mxPoint x="53" y="8" as="offset" />
          </mxGeometry>
        </mxCell>
        <mxCell id="8mbBkiOHkQzHWkMKOYzb-25" value="Service_Full_Restriction" style="rounded=0;whiteSpace=wrap;html=1;fillColor=#1ba1e2;strokeColor=#006EAF;fontSize=12;fontStyle=1;fontColor=#ffffff;" parent="flpCsiOlo4Fyr_GIsul0-1" vertex="1">
          <mxGeometry x="1499" y="609" width="163.5" height="40" as="geometry" />
        </mxCell>
        <mxCell id="8mbBkiOHkQzHWkMKOYzb-26" value="Service_Partial_Restriction" style="rounded=0;whiteSpace=wrap;html=1;fillColor=#1ba1e2;strokeColor=#006EAF;fontSize=12;fontStyle=1;fontColor=#ffffff;" parent="flpCsiOlo4Fyr_GIsul0-1" vertex="1">
          <mxGeometry x="1404" y="659" width="161" height="40" as="geometry" />
        </mxCell>
        <mxCell id="8mbBkiOHkQzHWkMKOYzb-27" value="" style="endArrow=block;html=1;endFill=0;fontSize=12;fontStyle=1;" parent="flpCsiOlo4Fyr_GIsul0-1" source="8mbBkiOHkQzHWkMKOYzb-21" target="8mbBkiOHkQzHWkMKOYzb-25" edge="1">
          <mxGeometry width="50" height="50" relative="1" as="geometry">
            <mxPoint x="1544.81" y="778.5025652841784" as="sourcePoint" />
            <mxPoint x="1610.31" y="797.5508909370199" as="targetPoint" />
          </mxGeometry>
        </mxCell>
        <mxCell id="8mbBkiOHkQzHWkMKOYzb-28" value="" style="endArrow=block;html=1;endFill=0;fontSize=12;fontStyle=1" parent="flpCsiOlo4Fyr_GIsul0-1" source="8mbBkiOHkQzHWkMKOYzb-21" target="8mbBkiOHkQzHWkMKOYzb-26" edge="1">
          <mxGeometry width="50" height="50" relative="1" as="geometry">
            <mxPoint x="1554.81" y="788.5025652841787" as="sourcePoint" />
            <mxPoint x="1620.31" y="807.5508909370201" as="targetPoint" />
          </mxGeometry>
        </mxCell>
        <mxCell id="8mbBkiOHkQzHWkMKOYzb-29" value="" style="endArrow=classic;html=1;dashed=1;fontSize=12;fontStyle=1" parent="flpCsiOlo4Fyr_GIsul0-1" source="8mbBkiOHkQzHWkMKOYzb-0" target="8mbBkiOHkQzHWkMKOYzb-31" edge="1">
          <mxGeometry width="50" height="50" relative="1" as="geometry">
            <mxPoint x="1268.5" y="444.05999999999995" as="sourcePoint" />
            <mxPoint x="1268.5" y="487.94000000000005" as="targetPoint" />
            <Array as="points">
              <mxPoint x="1302" y="360" />
            </Array>
          </mxGeometry>
        </mxCell>
        <mxCell id="8mbBkiOHkQzHWkMKOYzb-30" value="hasPolicyChangeConsequence" style="edgeLabel;html=1;align=center;verticalAlign=middle;resizable=0;points=[];fontSize=12;fontStyle=1;rotation=36;" parent="8mbBkiOHkQzHWkMKOYzb-29" vertex="1" connectable="0">
          <mxGeometry x="0.4732" y="1" relative="1" as="geometry">
            <mxPoint x="-61" y="-31" as="offset" />
          </mxGeometry>
        </mxCell>
        <mxCell id="8mbBkiOHkQzHWkMKOYzb-31" value="Policy_Change_Consequence" style="rounded=0;whiteSpace=wrap;html=1;fillColor=#1ba1e2;strokeColor=#006EAF;fontSize=12;fontStyle=1;fontColor=#ffffff;" parent="flpCsiOlo4Fyr_GIsul0-1" vertex="1">
          <mxGeometry x="1412.5" y="484" width="184.5" height="40" as="geometry" />
        </mxCell>
        <mxCell id="8mbBkiOHkQzHWkMKOYzb-32" value="" style="endArrow=block;html=1;endFill=0;fontSize=12;fontStyle=1;" parent="flpCsiOlo4Fyr_GIsul0-1" source="8mbBkiOHkQzHWkMKOYzb-19" target="8mbBkiOHkQzHWkMKOYzb-31" edge="1">
          <mxGeometry width="50" height="50" relative="1" as="geometry">
            <mxPoint x="1490.9281767955804" y="698.5" as="sourcePoint" />
            <mxPoint x="1548.82182320442" y="749" as="targetPoint" />
            <Array as="points" />
          </mxGeometry>
        </mxCell>
        <mxCell id="8mbBkiOHkQzHWkMKOYzb-33" value="No_Service_Restriction" style="rounded=0;whiteSpace=wrap;html=1;fillColor=#1ba1e2;strokeColor=#006EAF;fontSize=12;fontStyle=1;fontColor=#ffffff;" parent="flpCsiOlo4Fyr_GIsul0-1" vertex="1">
          <mxGeometry x="1310" y="609" width="163.5" height="40" as="geometry" />
        </mxCell>
        <mxCell id="8mbBkiOHkQzHWkMKOYzb-34" value="" style="endArrow=block;html=1;endFill=0;fontSize=12;fontStyle=1;" parent="flpCsiOlo4Fyr_GIsul0-1" source="8mbBkiOHkQzHWkMKOYzb-21" target="8mbBkiOHkQzHWkMKOYzb-33" edge="1">
          <mxGeometry width="50" height="50" relative="1" as="geometry">
            <mxPoint x="1535.4606986899562" y="598.01" as="sourcePoint" />
            <mxPoint x="1570.7893013100438" y="615.26" as="targetPoint" />
          </mxGeometry>
        </mxCell>
        <mxCell id="8mbBkiOHkQzHWkMKOYzb-35" value="" style="endArrow=classic;html=1;dashed=1;fontSize=12;fontStyle=1" parent="flpCsiOlo4Fyr_GIsul0-1" source="8mbBkiOHkQzHWkMKOYzb-0" target="8mbBkiOHkQzHWkMKOYzb-37" edge="1">
          <mxGeometry width="50" height="50" relative="1" as="geometry">
            <mxPoint x="1692.8303886925796" y="435.25" as="sourcePoint" />
            <mxPoint x="358" y="890" as="targetPoint" />
            <Array as="points">
              <mxPoint x="1400" y="240" />
              <mxPoint x="1770" y="240" />
              <mxPoint x="1770" y="740" />
              <mxPoint x="1300" y="740" />
              <mxPoint x="1290" y="701" />
            </Array>
          </mxGeometry>
        </mxCell>
        <mxCell id="8mbBkiOHkQzHWkMKOYzb-36" value="hasPolicyAcceptanceTime" style="edgeLabel;html=1;align=center;verticalAlign=middle;resizable=0;points=[];fontSize=12;fontStyle=1" parent="8mbBkiOHkQzHWkMKOYzb-35" vertex="1" connectable="0">
          <mxGeometry x="0.2445" relative="1" as="geometry">
            <mxPoint x="-90" y="20" as="offset" />
          </mxGeometry>
        </mxCell>
        <mxCell id="8mbBkiOHkQzHWkMKOYzb-37" value="Policy_Acceptance_Time" style="rounded=0;whiteSpace=wrap;html=1;fillColor=#ffe6cc;strokeColor=#d79b00;fontSize=12;fontStyle=1" parent="flpCsiOlo4Fyr_GIsul0-1" vertex="1">
          <mxGeometry x="1110" y="681" width="160" height="40" as="geometry" />
        </mxCell>
        <mxCell id="8mbBkiOHkQzHWkMKOYzb-38" value="" style="endArrow=block;html=1;endFill=0;fontSize=12;fontStyle=1" parent="flpCsiOlo4Fyr_GIsul0-1" source="tuY5twGbmzA6GqwMkOKN-0" target="8mbBkiOHkQzHWkMKOYzb-5" edge="1">
          <mxGeometry width="50" height="50" relative="1" as="geometry">
            <mxPoint x="1185" y="209.35999999999999" as="sourcePoint" />
            <mxPoint x="1236" y="334.9786857142857" as="targetPoint" />
          </mxGeometry>
        </mxCell>
        <mxCell id="tuY5twGbmzA6GqwMkOKN-0" value="Control_Activity" style="rounded=0;whiteSpace=wrap;html=1;fillColor=#e1d5e7;strokeColor=#9673a6;fontSize=12;fontStyle=1" parent="flpCsiOlo4Fyr_GIsul0-1" vertex="1">
          <mxGeometry x="1101" y="226.94000000000005" width="99" height="40" as="geometry" />
        </mxCell>
        <mxCell id="tuY5twGbmzA6GqwMkOKN-1" value="" style="endArrow=block;html=1;endFill=0;fontSize=12;fontStyle=1" parent="flpCsiOlo4Fyr_GIsul0-1" source="tuY5twGbmzA6GqwMkOKN-0" target="8mbBkiOHkQzHWkMKOYzb-2" edge="1">
          <mxGeometry width="50" height="50" relative="1" as="geometry">
            <mxPoint x="1190" y="209.1879748822606" as="sourcePoint" />
            <mxPoint x="1249.8205439724095" y="233.14999999999998" as="targetPoint" />
          </mxGeometry>
        </mxCell>
      </root>
    </mxGraphModel>
  </diagram>
  <diagram id="Tyeki-rpLSv_aYIxV4Ov" name="notification">
    <mxGraphModel dx="1628" dy="3578" grid="1" gridSize="10" guides="1" tooltips="1" connect="1" arrows="1" fold="1" page="1" pageScale="1" pageWidth="827" pageHeight="1169" math="0" shadow="0">
      <root>
        <mxCell id="U54NWbVInOqXESxN6f-x-0" />
        <mxCell id="U54NWbVInOqXESxN6f-x-1" parent="U54NWbVInOqXESxN6f-x-0" />
        <mxCell id="L8qL5_KPtdapJp-zEDoo-0" value="Mechanism" style="rounded=0;whiteSpace=wrap;html=1;fillColor=#fff2cc;strokeColor=#d6b656;fontSize=12;fontStyle=1" parent="U54NWbVInOqXESxN6f-x-1" vertex="1">
          <mxGeometry x="490" y="-249" width="80" height="40" as="geometry" />
        </mxCell>
        <mxCell id="L8qL5_KPtdapJp-zEDoo-1" value="Notification_Mechanism" style="rounded=0;whiteSpace=wrap;html=1;fillColor=#fff2cc;strokeColor=#d6b656;fontSize=12;fontStyle=1" parent="U54NWbVInOqXESxN6f-x-1" vertex="1">
          <mxGeometry x="490" y="-150" width="150" height="40" as="geometry" />
        </mxCell>
        <mxCell id="L8qL5_KPtdapJp-zEDoo-2" value="" style="endArrow=block;html=1;endFill=0;fontSize=12;fontStyle=1" parent="U54NWbVInOqXESxN6f-x-1" source="L8qL5_KPtdapJp-zEDoo-0" target="L8qL5_KPtdapJp-zEDoo-1" edge="1">
          <mxGeometry width="50" height="50" relative="1" as="geometry">
            <mxPoint x="892.7105263157896" y="-133.4" as="sourcePoint" />
            <mxPoint x="915.2894736842104" y="-78.4" as="targetPoint" />
          </mxGeometry>
        </mxCell>
        <mxCell id="L8qL5_KPtdapJp-zEDoo-9" value="Via_E-Mail" style="rounded=0;whiteSpace=wrap;html=1;fillColor=#fff2cc;strokeColor=#d6b656;fontSize=12;fontStyle=1" parent="U54NWbVInOqXESxN6f-x-1" vertex="1">
          <mxGeometry x="691.69" y="-21.919999999999995" width="150" height="40" as="geometry" />
        </mxCell>
        <mxCell id="L8qL5_KPtdapJp-zEDoo-10" value="On_Service" style="rounded=0;whiteSpace=wrap;html=1;fillColor=#fff2cc;strokeColor=#d6b656;fontSize=12;fontStyle=1" parent="U54NWbVInOqXESxN6f-x-1" vertex="1">
          <mxGeometry x="691.69" y="-158.49999999999991" width="150" height="40" as="geometry" />
        </mxCell>
        <mxCell id="L8qL5_KPtdapJp-zEDoo-11" value="In_Privacy_Policy" style="rounded=0;whiteSpace=wrap;html=1;fillColor=#fff2cc;strokeColor=#d6b656;fontSize=12;fontStyle=1" parent="U54NWbVInOqXESxN6f-x-1" vertex="1">
          <mxGeometry x="691.69" y="-67" width="150" height="40" as="geometry" />
        </mxCell>
        <mxCell id="L8qL5_KPtdapJp-zEDoo-12" value="On_Website_Pages" style="rounded=0;whiteSpace=wrap;html=1;fillColor=#fff2cc;strokeColor=#d6b656;fontSize=12;fontStyle=1" parent="U54NWbVInOqXESxN6f-x-1" vertex="1">
          <mxGeometry x="691.69" y="-294" width="150" height="40" as="geometry" />
        </mxCell>
        <mxCell id="L8qL5_KPtdapJp-zEDoo-13" value="Via_Phone_Call" style="rounded=0;whiteSpace=wrap;html=1;fillColor=#fff2cc;strokeColor=#d6b656;fontSize=12;fontStyle=1" parent="U54NWbVInOqXESxN6f-x-1" vertex="1">
          <mxGeometry x="691.69" y="-112.99999999999997" width="150" height="40" as="geometry" />
        </mxCell>
        <mxCell id="L8qL5_KPtdapJp-zEDoo-14" value="Via_SMS" style="rounded=0;whiteSpace=wrap;html=1;fillColor=#fff2cc;strokeColor=#d6b656;fontSize=12;fontStyle=1" parent="U54NWbVInOqXESxN6f-x-1" vertex="1">
          <mxGeometry x="691.69" y="-203.99999999999994" width="150" height="40" as="geometry" />
        </mxCell>
        <mxCell id="L8qL5_KPtdapJp-zEDoo-15" value="Via_Postal_Mail" style="rounded=0;whiteSpace=wrap;html=1;fillColor=#fff2cc;strokeColor=#d6b656;fontSize=12;fontStyle=1" parent="U54NWbVInOqXESxN6f-x-1" vertex="1">
          <mxGeometry x="691.69" y="-248.99999999999997" width="150" height="40" as="geometry" />
        </mxCell>
        <mxCell id="L8qL5_KPtdapJp-zEDoo-16" value="" style="endArrow=block;html=1;endFill=0;fontSize=12;fontStyle=1" parent="U54NWbVInOqXESxN6f-x-1" source="L8qL5_KPtdapJp-zEDoo-1" target="L8qL5_KPtdapJp-zEDoo-9" edge="1">
          <mxGeometry width="50" height="50" relative="1" as="geometry">
            <mxPoint x="458.056483608269" y="180.17999999999995" as="sourcePoint" />
            <mxPoint x="575.943516391731" y="28.620000000000005" as="targetPoint" />
            <Array as="points">
              <mxPoint x="650" y="-2" />
            </Array>
          </mxGeometry>
        </mxCell>
        <mxCell id="L8qL5_KPtdapJp-zEDoo-17" value="" style="endArrow=block;html=1;endFill=0;fontSize=12;fontStyle=1" parent="U54NWbVInOqXESxN6f-x-1" source="L8qL5_KPtdapJp-zEDoo-1" target="L8qL5_KPtdapJp-zEDoo-11" edge="1">
          <mxGeometry width="50" height="50" relative="1" as="geometry">
            <mxPoint x="629" y="-11.379999999999988" as="sourcePoint" />
            <mxPoint x="704" y="-51.37999999999999" as="targetPoint" />
            <Array as="points">
              <mxPoint x="658.69" y="-46.46" />
            </Array>
          </mxGeometry>
        </mxCell>
        <mxCell id="L8qL5_KPtdapJp-zEDoo-18" value="" style="endArrow=block;html=1;endFill=0;fontSize=12;fontStyle=1" parent="U54NWbVInOqXESxN6f-x-1" source="L8qL5_KPtdapJp-zEDoo-1" target="L8qL5_KPtdapJp-zEDoo-13" edge="1">
          <mxGeometry width="50" height="50" relative="1" as="geometry">
            <mxPoint x="614.5769230769233" y="-11.379999999999988" as="sourcePoint" />
            <mxPoint x="718.4230769230771" y="-101.37999999999997" as="targetPoint" />
            <Array as="points">
              <mxPoint x="656.69" y="-92.46000000000001" />
            </Array>
          </mxGeometry>
        </mxCell>
        <mxCell id="L8qL5_KPtdapJp-zEDoo-19" value="" style="endArrow=block;html=1;endFill=0;fontSize=12;fontStyle=1" parent="U54NWbVInOqXESxN6f-x-1" source="L8qL5_KPtdapJp-zEDoo-1" target="L8qL5_KPtdapJp-zEDoo-10" edge="1">
          <mxGeometry width="50" height="50" relative="1" as="geometry">
            <mxPoint x="607.7222222222222" y="-11.379999999999988" as="sourcePoint" />
            <mxPoint x="721.2777777777778" y="-151.37999999999994" as="targetPoint" />
            <Array as="points">
              <mxPoint x="658.69" y="-137.46" />
            </Array>
          </mxGeometry>
        </mxCell>
        <mxCell id="L8qL5_KPtdapJp-zEDoo-20" value="" style="endArrow=block;html=1;endFill=0;fontSize=12;fontStyle=1" parent="U54NWbVInOqXESxN6f-x-1" source="L8qL5_KPtdapJp-zEDoo-1" target="L8qL5_KPtdapJp-zEDoo-14" edge="1">
          <mxGeometry width="50" height="50" relative="1" as="geometry">
            <mxPoint x="604.195652173913" y="-11.379999999999988" as="sourcePoint" />
            <mxPoint x="724.804347826087" y="-201.37999999999997" as="targetPoint" />
            <Array as="points">
              <mxPoint x="659.69" y="-183.46" />
            </Array>
          </mxGeometry>
        </mxCell>
        <mxCell id="L8qL5_KPtdapJp-zEDoo-21" value="" style="endArrow=block;html=1;endFill=0;fontSize=12;fontStyle=1" parent="U54NWbVInOqXESxN6f-x-1" source="L8qL5_KPtdapJp-zEDoo-1" target="L8qL5_KPtdapJp-zEDoo-15" edge="1">
          <mxGeometry width="50" height="50" relative="1" as="geometry">
            <mxPoint x="601.9285714285716" y="-11.379999999999988" as="sourcePoint" />
            <mxPoint x="727.0714285714284" y="-251.37999999999994" as="targetPoint" />
            <Array as="points">
              <mxPoint x="656.69" y="-228.46" />
            </Array>
          </mxGeometry>
        </mxCell>
        <mxCell id="L8qL5_KPtdapJp-zEDoo-22" value="" style="endArrow=block;html=1;endFill=0;fontSize=12;fontStyle=1" parent="U54NWbVInOqXESxN6f-x-1" source="L8qL5_KPtdapJp-zEDoo-1" target="L8qL5_KPtdapJp-zEDoo-12" edge="1">
          <mxGeometry width="50" height="50" relative="1" as="geometry">
            <mxPoint x="600.348484848485" y="-11.379999999999988" as="sourcePoint" />
            <mxPoint x="728.651515151515" y="-301.37999999999994" as="targetPoint" />
            <Array as="points">
              <mxPoint x="645.69" y="-273.46" />
            </Array>
          </mxGeometry>
        </mxCell>
      </root>
    </mxGraphModel>
  </diagram>
  <diagram id="VM56G5JHMguxiPzX0Dap" name="time">
    <mxGraphModel dx="2455" dy="2409" grid="1" gridSize="10" guides="1" tooltips="1" connect="1" arrows="1" fold="1" page="1" pageScale="1" pageWidth="827" pageHeight="1169" math="0" shadow="0">
      <root>
        <mxCell id="6LcfGbidN-0KbZ8roeJc-0" />
        <mxCell id="6LcfGbidN-0KbZ8roeJc-1" parent="6LcfGbidN-0KbZ8roeJc-0" />
        <mxCell id="6LcfGbidN-0KbZ8roeJc-2" value="Breach_Investigation_Time" style="rounded=0;whiteSpace=wrap;html=1;fillColor=#ffe6cc;strokeColor=#d79b00;fontSize=12;fontStyle=1" parent="6LcfGbidN-0KbZ8roeJc-1" vertex="1">
          <mxGeometry x="156" y="639" width="160" height="40" as="geometry" />
        </mxCell>
        <mxCell id="6LcfGbidN-0KbZ8roeJc-3" value="Breach_Report_Time" style="rounded=0;whiteSpace=wrap;html=1;fillColor=#ffe6cc;strokeColor=#d79b00;fontSize=12;fontStyle=1" parent="6LcfGbidN-0KbZ8roeJc-1" vertex="1">
          <mxGeometry x="156" y="580" width="160" height="40" as="geometry" />
        </mxCell>
        <mxCell id="6LcfGbidN-0KbZ8roeJc-4" value="Time_Period" style="rounded=0;whiteSpace=wrap;html=1;fillColor=#ffe6cc;strokeColor=#d79b00;fontSize=12;fontStyle=1" parent="6LcfGbidN-0KbZ8roeJc-1" vertex="1">
          <mxGeometry x="-34" y="514" width="160" height="40" as="geometry" />
        </mxCell>
        <mxCell id="6LcfGbidN-0KbZ8roeJc-5" value="" style="endArrow=block;html=1;endFill=0;fontSize=12;fontStyle=1" parent="6LcfGbidN-0KbZ8roeJc-1" source="6LcfGbidN-0KbZ8roeJc-4" target="6LcfGbidN-0KbZ8roeJc-3" edge="1">
          <mxGeometry width="50" height="50" relative="1" as="geometry">
            <mxPoint x="372.13" y="260" as="sourcePoint" />
            <mxPoint x="372.13" y="315" as="targetPoint" />
            <Array as="points">
              <mxPoint x="106" y="600" />
            </Array>
          </mxGeometry>
        </mxCell>
        <mxCell id="6LcfGbidN-0KbZ8roeJc-6" value="" style="endArrow=block;html=1;endFill=0;fontSize=12;fontStyle=1" parent="6LcfGbidN-0KbZ8roeJc-1" source="6LcfGbidN-0KbZ8roeJc-4" target="6LcfGbidN-0KbZ8roeJc-2" edge="1">
          <mxGeometry width="50" height="50" relative="1" as="geometry">
            <mxPoint x="172.13" y="550" as="sourcePoint" />
            <mxPoint x="202.13" y="530" as="targetPoint" />
            <Array as="points">
              <mxPoint x="96" y="659" />
            </Array>
          </mxGeometry>
        </mxCell>
        <mxCell id="6LcfGbidN-0KbZ8roeJc-7" value="Data_DataRetention_Time" style="rounded=0;whiteSpace=wrap;html=1;fillColor=#ffe6cc;strokeColor=#d79b00;fontSize=12;fontStyle=1" parent="6LcfGbidN-0KbZ8roeJc-1" vertex="1">
          <mxGeometry x="156" y="517" width="160" height="40" as="geometry" />
        </mxCell>
        <mxCell id="6LcfGbidN-0KbZ8roeJc-8" value="" style="endArrow=block;html=1;endFill=0;fontSize=12;fontStyle=1" parent="6LcfGbidN-0KbZ8roeJc-1" source="6LcfGbidN-0KbZ8roeJc-4" target="6LcfGbidN-0KbZ8roeJc-7" edge="1">
          <mxGeometry width="50" height="50" relative="1" as="geometry">
            <mxPoint x="195" y="651" as="sourcePoint" />
            <mxPoint x="229.27285714285745" y="610" as="targetPoint" />
          </mxGeometry>
        </mxCell>
        <mxCell id="wsWSLiH3qg7vo_BG9tjJ-0" value="Policy_Acceptance_Time" style="rounded=0;whiteSpace=wrap;html=1;fillColor=#ffe6cc;strokeColor=#d79b00;fontSize=12;fontStyle=1" parent="6LcfGbidN-0KbZ8roeJc-1" vertex="1">
          <mxGeometry x="156" y="460" width="160" height="40" as="geometry" />
        </mxCell>
        <mxCell id="wsWSLiH3qg7vo_BG9tjJ-1" value="" style="endArrow=block;html=1;endFill=0;fontSize=12;fontStyle=1" parent="6LcfGbidN-0KbZ8roeJc-1" source="6LcfGbidN-0KbZ8roeJc-4" target="wsWSLiH3qg7vo_BG9tjJ-0" edge="1">
          <mxGeometry width="50" height="50" relative="1" as="geometry">
            <mxPoint x="136" y="545.2631578947369" as="sourcePoint" />
            <mxPoint x="166" y="545.7368421052631" as="targetPoint" />
            <Array as="points">
              <mxPoint x="80" y="480" />
            </Array>
          </mxGeometry>
        </mxCell>
      </root>
    </mxGraphModel>
  </diagram>
  <diagram id="cjSEMNtjl2PsAbrPi1sl" name="cause">
    <mxGraphModel dx="801" dy="2409" grid="1" gridSize="5" guides="1" tooltips="1" connect="1" arrows="1" fold="1" page="1" pageScale="1" pageWidth="827" pageHeight="1169" math="0" shadow="0">
      <root>
        <mxCell id="s4b10el1Yh76RtpNdDez-0" />
        <mxCell id="s4b10el1Yh76RtpNdDez-1" parent="s4b10el1Yh76RtpNdDez-0" />
        <mxCell id="aebW0744Q8Jsb7qRkUds-0" value="Policy_Change_Activity" style="rounded=0;whiteSpace=wrap;html=1;fillColor=#e1d5e7;strokeColor=#9673a6;fontSize=12;fontStyle=1" parent="s4b10el1Yh76RtpNdDez-1" vertex="1">
          <mxGeometry x="1111.58" y="500" width="159" height="40" as="geometry" />
        </mxCell>
        <mxCell id="aebW0744Q8Jsb7qRkUds-1" value="Breach_Activity" style="rounded=0;whiteSpace=wrap;html=1;fillColor=#e1d5e7;strokeColor=#9673a6;fontSize=12;fontStyle=1" parent="s4b10el1Yh76RtpNdDez-1" vertex="1">
          <mxGeometry x="1111.5800000000002" y="440" width="114.5" height="40" as="geometry" />
        </mxCell>
        <mxCell id="aebW0744Q8Jsb7qRkUds-2" value="Cause" style="rounded=0;whiteSpace=wrap;html=1;fillColor=#008a00;strokeColor=#005700;fontSize=12;fontStyle=1;fontColor=#ffffff;" parent="s4b10el1Yh76RtpNdDez-1" vertex="1">
          <mxGeometry x="1474.9999999999998" y="488.00000000000006" width="80" height="40" as="geometry" />
        </mxCell>
        <mxCell id="aebW0744Q8Jsb7qRkUds-3" value="" style="endArrow=classic;html=1;dashed=1;fontSize=12;fontStyle=1" parent="s4b10el1Yh76RtpNdDez-1" source="aebW0744Q8Jsb7qRkUds-1" target="aebW0744Q8Jsb7qRkUds-5" edge="1">
          <mxGeometry width="50" height="50" relative="1" as="geometry">
            <mxPoint x="1678.4733333333331" y="793.34" as="sourcePoint" />
            <mxPoint x="1651.8066666666664" y="773.34" as="targetPoint" />
            <Array as="points" />
          </mxGeometry>
        </mxCell>
        <mxCell id="aebW0744Q8Jsb7qRkUds-4" value="hasBreachCause" style="edgeLabel;html=1;align=center;verticalAlign=middle;resizable=0;points=[];fontSize=12;fontStyle=1;rotation=14;" parent="aebW0744Q8Jsb7qRkUds-3" vertex="1" connectable="0">
          <mxGeometry x="-0.452" y="1" relative="1" as="geometry">
            <mxPoint x="25" y="-6" as="offset" />
          </mxGeometry>
        </mxCell>
        <mxCell id="aebW0744Q8Jsb7qRkUds-5" value="Breach_Cause" style="rounded=0;whiteSpace=wrap;html=1;fillColor=#008a00;strokeColor=#005700;fontSize=12;fontStyle=1;fontColor=#ffffff;" parent="s4b10el1Yh76RtpNdDez-1" vertex="1">
          <mxGeometry x="1330" y="488" width="96" height="40" as="geometry" />
        </mxCell>
        <mxCell id="aebW0744Q8Jsb7qRkUds-6" value="Intentional" style="rounded=0;whiteSpace=wrap;html=1;fillColor=#008a00;strokeColor=#005700;fontSize=12;fontStyle=1;fontColor=#ffffff;" parent="s4b10el1Yh76RtpNdDez-1" vertex="1">
          <mxGeometry x="1358.31" y="405" width="90" height="40" as="geometry" />
        </mxCell>
        <mxCell id="aebW0744Q8Jsb7qRkUds-7" value="Unintentional" style="rounded=0;whiteSpace=wrap;html=1;fillColor=#008a00;strokeColor=#005700;fontSize=12;fontStyle=1;fontColor=#ffffff;" parent="s4b10el1Yh76RtpNdDez-1" vertex="1">
          <mxGeometry x="1460" y="405" width="90" height="40" as="geometry" />
        </mxCell>
        <mxCell id="aebW0744Q8Jsb7qRkUds-8" value="" style="endArrow=block;html=1;endFill=0;fontSize=12;fontStyle=1" parent="s4b10el1Yh76RtpNdDez-1" source="aebW0744Q8Jsb7qRkUds-2" target="aebW0744Q8Jsb7qRkUds-5" edge="1">
          <mxGeometry width="50" height="50" relative="1" as="geometry">
            <mxPoint x="1796.3899999999999" y="798.8299999999999" as="sourcePoint" />
            <mxPoint x="1696.3899999999999" y="798.8299999999999" as="targetPoint" />
          </mxGeometry>
        </mxCell>
        <mxCell id="aebW0744Q8Jsb7qRkUds-9" value="" style="endArrow=block;html=1;endFill=0;fontSize=12;fontStyle=1" parent="s4b10el1Yh76RtpNdDez-1" source="aebW0744Q8Jsb7qRkUds-5" target="aebW0744Q8Jsb7qRkUds-6" edge="1">
          <mxGeometry width="50" height="50" relative="1" as="geometry">
            <mxPoint x="1658.3899999999999" y="531.7414285714285" as="sourcePoint" />
            <mxPoint x="1608.3899999999999" y="549.5985714285716" as="targetPoint" />
          </mxGeometry>
        </mxCell>
        <mxCell id="aebW0744Q8Jsb7qRkUds-10" value="" style="endArrow=block;html=1;endFill=0;fontSize=12;fontStyle=1" parent="s4b10el1Yh76RtpNdDez-1" source="aebW0744Q8Jsb7qRkUds-5" target="aebW0744Q8Jsb7qRkUds-7" edge="1">
          <mxGeometry width="50" height="50" relative="1" as="geometry">
            <mxPoint x="1658.3899999999999" y="515.6700000000001" as="sourcePoint" />
            <mxPoint x="1608.3899999999999" y="515.6700000000001" as="targetPoint" />
          </mxGeometry>
        </mxCell>
        <mxCell id="aebW0744Q8Jsb7qRkUds-11" value="" style="endArrow=classic;html=1;dashed=1;fontSize=12;fontStyle=1" parent="s4b10el1Yh76RtpNdDez-1" source="aebW0744Q8Jsb7qRkUds-0" target="aebW0744Q8Jsb7qRkUds-13" edge="1">
          <mxGeometry width="50" height="50" relative="1" as="geometry">
            <mxPoint x="1271.3617498138497" y="745.06" as="sourcePoint" />
            <mxPoint x="1376.0682501861502" y="812.5" as="targetPoint" />
            <Array as="points">
              <mxPoint x="1190" y="570" />
            </Array>
          </mxGeometry>
        </mxCell>
        <mxCell id="aebW0744Q8Jsb7qRkUds-12" value="hasPolicyChangeCause" style="edgeLabel;html=1;align=center;verticalAlign=middle;resizable=0;points=[];fontSize=12;fontStyle=1" parent="aebW0744Q8Jsb7qRkUds-11" vertex="1" connectable="0">
          <mxGeometry x="0.4732" y="1" relative="1" as="geometry">
            <mxPoint x="-38" y="11" as="offset" />
          </mxGeometry>
        </mxCell>
        <mxCell id="aebW0744Q8Jsb7qRkUds-13" value="Policy_Change_Cause" style="rounded=0;whiteSpace=wrap;html=1;fillColor=#008a00;strokeColor=#005700;fontSize=12;fontStyle=1;fontColor=#ffffff;" parent="s4b10el1Yh76RtpNdDez-1" vertex="1">
          <mxGeometry x="1333.81" y="550" width="139" height="40" as="geometry" />
        </mxCell>
        <mxCell id="aebW0744Q8Jsb7qRkUds-14" value="" style="endArrow=block;html=1;endFill=0;fontSize=12;fontStyle=1" parent="s4b10el1Yh76RtpNdDez-1" source="aebW0744Q8Jsb7qRkUds-2" target="aebW0744Q8Jsb7qRkUds-13" edge="1">
          <mxGeometry width="50" height="50" relative="1" as="geometry">
            <mxPoint x="1485.58" y="518" as="sourcePoint" />
            <mxPoint x="1423.58" y="518" as="targetPoint" />
          </mxGeometry>
        </mxCell>
        <mxCell id="OGbaPmh3CK73qQOZMXJM-0" value="Privacy_Related" style="rounded=0;whiteSpace=wrap;html=1;fillColor=#008a00;strokeColor=#005700;fontSize=12;fontStyle=1;fontColor=#ffffff;" parent="s4b10el1Yh76RtpNdDez-1" vertex="1">
          <mxGeometry x="1215" y="600" width="102.58" height="40" as="geometry" />
        </mxCell>
        <mxCell id="OGbaPmh3CK73qQOZMXJM-1" value="Non-privacy_Related" style="rounded=0;whiteSpace=wrap;html=1;fillColor=#008a00;strokeColor=#005700;fontSize=12;fontStyle=1;fontColor=#ffffff;" parent="s4b10el1Yh76RtpNdDez-1" vertex="1">
          <mxGeometry x="1270" y="650" width="130" height="40" as="geometry" />
        </mxCell>
        <mxCell id="OGbaPmh3CK73qQOZMXJM-3" value="Merge_Acquisition" style="rounded=0;whiteSpace=wrap;html=1;fillColor=#008a00;strokeColor=#005700;fontSize=12;fontStyle=1;fontColor=#ffffff;" parent="s4b10el1Yh76RtpNdDez-1" vertex="1">
          <mxGeometry x="1413.58" y="650" width="120" height="40" as="geometry" />
        </mxCell>
        <mxCell id="OGbaPmh3CK73qQOZMXJM-4" value="Other" style="rounded=0;whiteSpace=wrap;html=1;fillColor=#008a00;strokeColor=#005700;fontSize=12;fontStyle=1;fontColor=#ffffff;" parent="s4b10el1Yh76RtpNdDez-1" vertex="1">
          <mxGeometry x="1479.9999999999998" y="600" width="80" height="40" as="geometry" />
        </mxCell>
        <mxCell id="OGbaPmh3CK73qQOZMXJM-6" value="" style="endArrow=block;html=1;endFill=0;fontSize=12;fontStyle=1" parent="s4b10el1Yh76RtpNdDez-1" source="aebW0744Q8Jsb7qRkUds-13" target="OGbaPmh3CK73qQOZMXJM-1" edge="1">
          <mxGeometry width="50" height="50" relative="1" as="geometry">
            <mxPoint x="1478.809677419355" y="538" as="sourcePoint" />
            <mxPoint x="1444.5003225806452" y="560" as="targetPoint" />
          </mxGeometry>
        </mxCell>
        <mxCell id="OGbaPmh3CK73qQOZMXJM-7" value="" style="endArrow=block;html=1;endFill=0;fontSize=12;fontStyle=1" parent="s4b10el1Yh76RtpNdDez-1" source="aebW0744Q8Jsb7qRkUds-13" target="OGbaPmh3CK73qQOZMXJM-3" edge="1">
          <mxGeometry width="50" height="50" relative="1" as="geometry">
            <mxPoint x="1400.2583333333332" y="600" as="sourcePoint" />
            <mxPoint x="1348.0516666666667" y="680" as="targetPoint" />
          </mxGeometry>
        </mxCell>
        <mxCell id="OGbaPmh3CK73qQOZMXJM-8" value="" style="endArrow=block;html=1;endFill=0;fontSize=12;fontStyle=1" parent="s4b10el1Yh76RtpNdDez-1" source="aebW0744Q8Jsb7qRkUds-13" target="OGbaPmh3CK73qQOZMXJM-4" edge="1">
          <mxGeometry width="50" height="50" relative="1" as="geometry">
            <mxPoint x="1426.0916666666667" y="600" as="sourcePoint" />
            <mxPoint x="1477.2183333333332" y="680" as="targetPoint" />
          </mxGeometry>
        </mxCell>
        <mxCell id="OGbaPmh3CK73qQOZMXJM-9" value="" style="endArrow=block;html=1;endFill=0;fontSize=12;fontStyle=1;" parent="s4b10el1Yh76RtpNdDez-1" source="aebW0744Q8Jsb7qRkUds-13" target="OGbaPmh3CK73qQOZMXJM-0" edge="1">
          <mxGeometry width="50" height="50" relative="1" as="geometry">
            <mxPoint x="1449.8099999999997" y="600" as="sourcePoint" />
            <mxPoint x="1486.3099999999995" y="620" as="targetPoint" />
          </mxGeometry>
        </mxCell>
        <mxCell id="hYRkA-PdW9Pl92dFQj3x-0" value="Force_Majeur" style="rounded=0;whiteSpace=wrap;html=1;fillColor=#008a00;strokeColor=#005700;fontSize=12;fontStyle=1;fontColor=#ffffff;" parent="s4b10el1Yh76RtpNdDez-1" vertex="1">
          <mxGeometry x="1255" y="405" width="90" height="40" as="geometry" />
        </mxCell>
        <mxCell id="hYRkA-PdW9Pl92dFQj3x-1" value="" style="endArrow=block;html=1;endFill=0;fontSize=12;fontStyle=1" parent="s4b10el1Yh76RtpNdDez-1" source="aebW0744Q8Jsb7qRkUds-5" target="hYRkA-PdW9Pl92dFQj3x-0" edge="1">
          <mxGeometry width="50" height="50" relative="1" as="geometry">
            <mxPoint x="1391.5852941176472" y="493" as="sourcePoint" />
            <mxPoint x="1403.604705882353" y="465" as="targetPoint" />
          </mxGeometry>
        </mxCell>
      </root>
    </mxGraphModel>
  </diagram>
  <diagram id="sbILzgSPUKHu1-c-RWTp" name="agent">
    <mxGraphModel dx="1628" dy="2409" grid="1" gridSize="10" guides="1" tooltips="1" connect="1" arrows="1" fold="1" page="1" pageScale="1" pageWidth="827" pageHeight="1169" math="0" shadow="0">
      <root>
        <mxCell id="Nmiffz_67GYMc-fDOYGb-0" />
        <mxCell id="Nmiffz_67GYMc-fDOYGb-1" parent="Nmiffz_67GYMc-fDOYGb-0" />
        <mxCell id="Nmiffz_67GYMc-fDOYGb-2" value="Agent" style="rounded=0;whiteSpace=wrap;html=1;fillColor=#dae8fc;strokeColor=#6c8ebf;fontSize=12;fontStyle=1" parent="Nmiffz_67GYMc-fDOYGb-1" vertex="1">
          <mxGeometry x="510" y="189.82999999999998" width="80" height="40" as="geometry" />
        </mxCell>
        <mxCell id="Nmiffz_67GYMc-fDOYGb-3" value="User" style="rounded=0;whiteSpace=wrap;html=1;fillColor=#dae8fc;strokeColor=#6c8ebf;fontSize=12;fontStyle=1" parent="Nmiffz_67GYMc-fDOYGb-1" vertex="1">
          <mxGeometry x="322" y="158.99999999999994" width="150" height="40" as="geometry" />
        </mxCell>
        <mxCell id="Nmiffz_67GYMc-fDOYGb-4" value="Data_Protection_Officer" style="rounded=0;whiteSpace=wrap;html=1;fillColor=#dae8fc;strokeColor=#6c8ebf;fontSize=12;fontStyle=1" parent="Nmiffz_67GYMc-fDOYGb-1" vertex="1">
          <mxGeometry x="322" y="269.15000000000003" width="150" height="40" as="geometry" />
        </mxCell>
        <mxCell id="Nmiffz_67GYMc-fDOYGb-5" value="Third_Parties" style="rounded=0;whiteSpace=wrap;html=1;fillColor=#dae8fc;strokeColor=#6c8ebf;fontSize=12;fontStyle=1" parent="Nmiffz_67GYMc-fDOYGb-1" vertex="1">
          <mxGeometry x="322" y="323.15" width="150" height="40" as="geometry" />
        </mxCell>
        <mxCell id="Nmiffz_67GYMc-fDOYGb-6" value="" style="endArrow=block;html=1;endFill=0;fontSize=12;fontStyle=1" parent="Nmiffz_67GYMc-fDOYGb-1" source="Nmiffz_67GYMc-fDOYGb-2" target="Nmiffz_67GYMc-fDOYGb-4" edge="1">
          <mxGeometry width="50" height="50" relative="1" as="geometry">
            <mxPoint x="510.00000000000006" y="289.83000000000004" as="sourcePoint" />
            <mxPoint x="510.00000000000006" y="359.83000000000004" as="targetPoint" />
            <Array as="points">
              <mxPoint x="496" y="289" />
            </Array>
          </mxGeometry>
        </mxCell>
        <mxCell id="Nmiffz_67GYMc-fDOYGb-7" value="" style="endArrow=block;html=1;endFill=0;fontSize=12;fontStyle=1" parent="Nmiffz_67GYMc-fDOYGb-1" source="Nmiffz_67GYMc-fDOYGb-2" target="Nmiffz_67GYMc-fDOYGb-5" edge="1">
          <mxGeometry width="50" height="50" relative="1" as="geometry">
            <mxPoint x="869.92" y="329.83000000000004" as="sourcePoint" />
            <mxPoint x="869.92" y="399.83000000000004" as="targetPoint" />
            <Array as="points">
              <mxPoint x="496" y="343" />
            </Array>
          </mxGeometry>
        </mxCell>
        <mxCell id="Nmiffz_67GYMc-fDOYGb-8" value="" style="endArrow=block;html=1;endFill=0;fontSize=12;fontStyle=1" parent="Nmiffz_67GYMc-fDOYGb-1" source="Nmiffz_67GYMc-fDOYGb-2" target="Nmiffz_67GYMc-fDOYGb-3" edge="1">
          <mxGeometry width="50" height="50" relative="1" as="geometry">
            <mxPoint x="879.92" y="339.83000000000004" as="sourcePoint" />
            <mxPoint x="879.92" y="409.83000000000004" as="targetPoint" />
            <Array as="points">
              <mxPoint x="500" y="179" />
            </Array>
          </mxGeometry>
        </mxCell>
        <mxCell id="Nmiffz_67GYMc-fDOYGb-9" value="User_Special_Category" style="rounded=0;whiteSpace=wrap;html=1;fillColor=#76608a;strokeColor=#432D57;fontSize=12;fontStyle=1;fontColor=#ffffff;" parent="Nmiffz_67GYMc-fDOYGb-1" vertex="1">
          <mxGeometry x="322.00000000000006" y="81.99999999999997" width="150" height="40" as="geometry" />
        </mxCell>
        <mxCell id="Nmiffz_67GYMc-fDOYGb-10" value="" style="endArrow=classic;html=1;dashed=1;fontSize=12;fontStyle=1" parent="Nmiffz_67GYMc-fDOYGb-1" source="Nmiffz_67GYMc-fDOYGb-3" target="Nmiffz_67GYMc-fDOYGb-9" edge="1">
          <mxGeometry width="50" height="50" relative="1" as="geometry">
            <mxPoint x="391.5" y="182.98" as="sourcePoint" />
            <mxPoint x="359" y="142.98" as="targetPoint" />
          </mxGeometry>
        </mxCell>
        <mxCell id="Nmiffz_67GYMc-fDOYGb-11" value="hasSpecialUserCategory" style="edgeLabel;html=1;align=center;verticalAlign=middle;resizable=0;points=[];fontSize=12;fontStyle=1" parent="Nmiffz_67GYMc-fDOYGb-10" vertex="1" connectable="0">
          <mxGeometry x="0.4732" y="1" relative="1" as="geometry">
            <mxPoint x="5" y="10" as="offset" />
          </mxGeometry>
        </mxCell>
        <mxCell id="Nmiffz_67GYMc-fDOYGb-12" value="First_Party" style="rounded=0;whiteSpace=wrap;html=1;fillColor=#dae8fc;strokeColor=#6c8ebf;fontSize=12;fontStyle=1" parent="Nmiffz_67GYMc-fDOYGb-1" vertex="1">
          <mxGeometry x="324" y="215.82000000000002" width="150" height="40" as="geometry" />
        </mxCell>
        <mxCell id="Nmiffz_67GYMc-fDOYGb-13" value="" style="endArrow=block;html=1;endFill=0;fontSize=12;fontStyle=1" parent="Nmiffz_67GYMc-fDOYGb-1" source="Nmiffz_67GYMc-fDOYGb-2" target="Nmiffz_67GYMc-fDOYGb-12" edge="1">
          <mxGeometry width="50" height="50" relative="1" as="geometry">
            <mxPoint x="527.4187999595265" y="199.82999999999993" as="sourcePoint" />
            <mxPoint x="431.5812000404735" y="141" as="targetPoint" />
            <Array as="points">
              <mxPoint x="493" y="236" />
            </Array>
          </mxGeometry>
        </mxCell>
      </root>
    </mxGraphModel>
  </diagram>
</mxfile>
